<svg width="168" height="121" viewBox="0 0 168 121" fill="none" xmlns="http://www.w3.org/2000/svg">
<path d="M167.515 40.249C167.081 35.764 164.995 31.6034 161.665 28.5828C158.335 25.5622 154.002 23.8995 149.515 23.9206C144.055 23.6193 146.695 26.3307 146.035 19.3414C144.115 -2.04835 113.455 -8.37488 92.6952 14.1596C91.3752 15.6057 91.9752 15.6659 90.8952 13.5571C77.8153 -11.267 44.7556 0.361757 36.8957 29.7651C33.4157 42.8399 37.8557 42.4784 34.3157 41.8156C9.23596 35.4288 -12.3639 61.217 8.21593 82.7272C12.9768 87.0149 18.6308 90.1812 24.7655 91.995C30.9002 93.8087 37.3607 94.2243 43.6757 93.2112C50.9956 92.2471 49.2556 90.7408 49.1956 94.7777C49.1907 99.3326 50.3734 103.809 52.626 107.763C54.8787 111.716 58.1227 115.008 62.0355 117.312C78.7753 127.615 108.355 115.384 112.855 92.3676C129.115 104.418 155.575 89.4152 150.415 63.1451C149.875 60.4939 149.095 62.7835 156.415 59.5902C159.961 57.8515 162.937 55.1281 164.99 51.7428C167.042 48.3576 168.085 44.4523 167.995 40.4901" fill="#FFBEA6" fill-opacity="0.2"/>
</svg>
