<svg width="1920" height="1764" viewBox="0 0 1920 1764" fill="none" xmlns="http://www.w3.org/2000/svg">
<path fill-rule="evenodd" clip-rule="evenodd" d="M-55.552 449.018C-28.2813 364.391 187.072 233.526 464.355 275.118C527.488 284.588 587.388 305.774 645.24 326.235C791.319 377.9 924.348 424.949 1063.44 267.133C1148.54 170.582 1240.94 182.312 1357.49 197.107C1364.37 197.98 1371.33 198.863 1378.38 199.736C1533.36 218.924 1588.93 166.445 1603.04 123.451C1661.48 -54.6047 1792.75 -3.4772 1939.79 53.7871L1943.27 55.1424L2287.44 1.69178L2073.83 533.094L2114.65 536.116C2087.38 620.744 1925.6 926.576 1479.59 841.807C1444.21 835.083 1409.04 826.879 1374.14 818.734C1190.35 775.858 1013.69 734.642 850.505 919.792C760.388 1022.04 657.542 1073.28 442.206 1099.23C246.244 1122.84 178.382 1439.22 154.763 1549.33C151.238 1565.77 148.698 1577.61 146.865 1583.19C98.7956 1729.66 6.25555 1740.77 -98.8423 1753.39C-122.517 1756.24 -146.83 1759.16 -171.415 1763.72L-343.5 1046.23L-30.7682 450.408L-55.552 449.018Z" fill="url(#paint0_linear)"/>
<defs>
<linearGradient id="paint0_linear" x1="14.673" y1="1268.93" x2="2216.4" y2="-206.528" gradientUnits="userSpaceOnUse">
<stop stop-color="#FFDA00"/>
<stop offset="1" stop-color="#FFDA00" stop-opacity="0"/>
</linearGradient>
</defs>
</svg>
