<svg width="29" height="29" viewBox="0 0 29 29" fill="none" xmlns="http://www.w3.org/2000/svg">
    <circle cx="14.6568" cy="14.3431" r="14.3431" fill="#FFEDC0"/>
    <circle cx="14.6568" cy="14.3431" r="11.3006" fill="#AB882E"/>
    <path d="M20.678 11.4289H20.0359C19.8687 11.4289 19.4312 11.6105 19.4312 11.7651V17.38C19.4312 17.535 19.8687 17.6621 20.0359 17.6621H20.678V18.9087H16.522V17.6621H17.3534V11.8442H17.2087L15.2081 18.9087H13.6592L11.6844 11.8442H11.5349V17.662H12.3659V18.9087H9.04126V17.662H9.50237C9.68339 17.662 9.87233 17.535 9.87233 17.38V11.7651C9.87233 11.6105 9.68341 11.4289 9.50237 11.4289H9.04126V10.1821H13.3499L14.7567 15.1687H14.7946L16.2153 10.1821H20.678V11.4289Z" fill="white"/>
    <defs>
        <linearGradient id="paint0_linear_0:1" x1="14.6568" y1="0" x2="14.6568" y2="28.6862" gradientUnits="userSpaceOnUse">
            <stop stop-color="#FFE39A" stop-opacity="0.95"/>
            <stop offset="1" stop-color="#FFEDC0"/>
        </linearGradient>
    </defs>
</svg>