<svg width="30" height="29" viewBox="0 0 30 29" fill="none" xmlns="http://www.w3.org/2000/svg">
    <circle cx="15.3285" cy="14.3431" r="14.3431" fill="#FFEDC0"/>
    <circle cx="15.3285" cy="14.3431" r="11.3006" fill="#AB882E"/>
    <path d="M19.4708 13.2404C19.1033 13.2404 18.7799 13.3951 18.5418 13.6361C17.6666 13.0213 16.4865 12.6256 15.1788 12.5834L15.8581 9.47738L18.0211 9.97C18.0211 10.5072 18.4526 10.946 18.9821 10.946C19.5217 10.946 19.9557 10.4956 19.9557 9.95788C19.9557 9.42017 19.5246 8.96973 18.9826 8.96973C18.6049 8.96973 18.279 9.20101 18.1166 9.51714L15.7277 8.97991C15.6074 8.94742 15.4896 9.0347 15.4576 9.15688L14.7119 12.581C13.4144 12.6358 12.2468 13.031 11.3687 13.6462C11.1307 13.3951 10.7947 13.2404 10.4271 13.2404C9.06369 13.2404 8.61713 15.097 9.86566 15.7317C9.82153 15.928 9.80165 16.1375 9.80165 16.3465C9.80165 18.4319 12.1169 20.1216 14.9596 20.1216C17.8145 20.1216 20.1298 18.4319 20.1298 16.3465C20.1298 16.1375 20.1079 15.9183 20.0541 15.7215C21.2774 15.0844 20.827 13.2414 19.4708 13.2404ZM11.8468 15.8635C11.8468 15.3161 12.2783 14.8754 12.8204 14.8754C13.3499 14.8754 13.7819 15.3132 13.7819 15.8635C13.7819 16.4012 13.3504 16.8396 12.8204 16.8396C12.2808 16.842 11.8468 16.4012 11.8468 15.8635ZM17.1023 18.1899C16.2096 19.0956 13.6908 19.0956 12.7976 18.1899C12.6992 18.1026 12.6992 17.9485 12.7976 17.8491C12.8835 17.7618 13.0357 17.7618 13.1215 17.8491C13.8032 18.5584 16.0647 18.5705 16.7759 17.8491C16.8618 17.7618 17.014 17.7618 17.0998 17.8491C17.2002 17.9489 17.2002 18.1031 17.1023 18.1899ZM17.0824 16.8415C16.5529 16.8415 16.1214 16.4037 16.1214 15.8664C16.1214 15.319 16.5529 14.8783 17.0824 14.8783C17.622 14.8783 18.056 15.3161 18.056 15.8664C18.0536 16.4012 17.622 16.8415 17.0824 16.8415Z" fill="white"/>
    <defs>
        <linearGradient id="paint0_linear_0:1" x1="15.3285" y1="0" x2="15.3285" y2="28.6862" gradientUnits="userSpaceOnUse">
            <stop stop-color="#FFE39A" stop-opacity="0.95"/>
            <stop offset="1" stop-color="#FFEDC0"/>
        </linearGradient>
    </defs>
</svg>