<svg width="29" height="29" viewBox="0 0 29 29" fill="none" xmlns="http://www.w3.org/2000/svg">
    <circle cx="14.3431" cy="14.3431" r="14.3431" fill="#FFEDC0"/>
    <circle cx="14.3431" cy="14.3436" r="11.3006" fill="#AB882E"/>
    <path d="M11.548 16.088L11.3555 18.7955C11.6309 18.7955 11.7502 18.6772 11.8932 18.5351L13.1844 17.3011L15.8599 19.2604C16.3506 19.5339 16.6963 19.3899 16.8287 18.809L18.5848 10.5799L18.5853 10.5794C18.741 9.85407 18.323 9.57042 17.8449 9.74837L7.52216 13.7005C6.81765 13.974 6.82832 14.3667 7.4024 14.5447L10.0415 15.3655L16.1717 11.5298C16.4602 11.3387 16.7225 11.4444 16.5067 11.6355L11.548 16.088Z" fill="white"/>
    <defs>
        <linearGradient id="paint0_linear_0:1" x1="14.3431" y1="0" x2="14.3431" y2="28.6862" gradientUnits="userSpaceOnUse">
            <stop stop-color="#FFE39A" stop-opacity="0.95"/>
            <stop offset="1" stop-color="#FFEDC0"/>
        </linearGradient>
    </defs>
</svg>
