<svg width="30" height="29" viewBox="0 0 30 29" fill="none" xmlns="http://www.w3.org/2000/svg">
    <circle cx="14.6715" cy="14.3431" r="14.3431" fill="#FFEDC0"/>
    <circle cx="14.6712" cy="14.3431" r="11.3006" fill="#AB882E"/>
    <path d="M13.1288 19.1633C17.2729 19.1633 19.539 15.6114 19.539 12.5314C19.539 12.4305 19.5371 12.3301 19.5327 12.2301C19.9726 11.9011 20.355 11.4905 20.6565 11.0231C20.2528 11.2088 19.8184 11.3337 19.3627 11.3901C19.8279 11.1015 20.185 10.645 20.3534 10.1008C19.9181 10.3678 19.436 10.5619 18.9228 10.6666C18.5116 10.2135 17.9263 9.93018 17.2782 9.93018C16.034 9.93018 15.0251 10.974 15.0251 12.2608C15.0251 12.4437 15.0448 12.6216 15.0835 12.7923C13.211 12.6948 11.5506 11.7673 10.4395 10.3569C10.246 10.7014 10.1344 11.1015 10.1344 11.5285C10.1344 12.3371 10.5322 13.0511 11.137 13.4687C10.7674 13.4569 10.4202 13.3519 10.1166 13.1772C10.1163 13.187 10.1163 13.1965 10.1163 13.2069C10.1163 14.3358 10.8929 15.2783 11.9238 15.4919C11.7345 15.5453 11.5353 15.5739 11.3297 15.5739C11.1848 15.5739 11.0436 15.5591 10.9063 15.5319C11.1931 16.458 12.0249 17.132 13.011 17.1508C12.2399 17.7761 11.2685 18.1486 10.2127 18.1486C10.0311 18.1486 9.85165 18.1379 9.67529 18.1163C10.6724 18.7775 11.8564 19.1633 13.1289 19.1633" fill="white"/>
    <defs>
        <linearGradient id="paint0_linear_0:1" x1="14.6715" y1="0" x2="14.6715" y2="28.6862" gradientUnits="userSpaceOnUse">
            <stop stop-color="#FFE39A" stop-opacity="0.95"/>
            <stop offset="1" stop-color="#FFEDC0"/>
        </linearGradient>
    </defs>
</svg>