<svg width="17" height="18" viewBox="0 0 17 18" fill="none" xmlns="http://www.w3.org/2000/svg">
<path d="M8.41016 0.608398C6.74679 0.608398 5.12077 1.10165 3.73773 2.02577C2.35468 2.94988 1.27673 4.26337 0.640189 5.80013C0.00364397 7.33688 -0.162905 9.02788 0.161603 10.6593C0.48611 12.2907 1.2871 13.7892 2.46328 14.9654C3.63946 16.1416 5.13801 16.9426 6.76942 17.2671C8.40083 17.5916 10.0918 17.4251 11.6286 16.7885C13.1653 16.152 14.4788 15.074 15.4029 13.691C16.3271 12.3079 16.8203 10.6819 16.8203 9.01855C16.8182 6.7887 15.9314 4.6508 14.3547 3.07405C12.7779 1.49731 10.64 0.610549 8.41016 0.608398V0.608398ZM11.0748 9.76188L9.18395 12.3656C9.09149 12.481 8.97345 12.5734 8.83917 12.6354C8.70488 12.6975 8.55801 12.7275 8.41016 12.723C8.26227 12.7271 8.11541 12.6972 7.98091 12.6355C7.8464 12.5739 7.72784 12.4822 7.63434 12.3676L5.74759 9.76594C5.66999 9.66331 5.62801 9.53817 5.62801 9.40951C5.62801 9.28085 5.66999 9.15571 5.74759 9.05308C5.84026 8.93734 5.95862 8.84478 6.09328 8.78273C6.22795 8.72069 6.37521 8.69087 6.52341 8.69563H7.47186V6.0554C7.47225 5.98592 7.48533 5.91709 7.51045 5.85231C7.58928 5.68238 7.71748 5.54015 7.87832 5.44415C8.03917 5.34815 8.22521 5.30283 8.41219 5.3141C8.59907 5.30339 8.78488 5.34894 8.94562 5.44488C9.10636 5.54081 9.23465 5.68273 9.31393 5.85231C9.33757 5.91743 9.34994 5.98612 9.35049 6.0554V8.69563H10.2989C10.4471 8.69087 10.5944 8.72069 10.7291 8.78273C10.8637 8.84478 10.9821 8.93734 11.0748 9.05308C11.1523 9.15494 11.1944 9.27944 11.1944 9.40748C11.1944 9.53552 11.1523 9.66002 11.0748 9.76188Z" fill="#FF0000"/>
</svg>
