<svg width="226" height="205" viewBox="0 0 226 205" fill="none" xmlns="http://www.w3.org/2000/svg">
    <path d="M167.146 3.05822C161.646 5.25745 157.211 8.53686 154.401 12.4817C151.592 16.4266 150.536 20.8597 151.365 25.2206C152.194 29.5814 154.871 33.674 159.059 36.981C163.246 40.2879 168.756 42.6606 174.891 43.799C181.026 44.9374 187.51 44.7904 193.524 43.3766C199.538 41.9627 204.812 39.3456 208.678 35.8561C212.545 32.3665 214.83 28.1613 215.245 23.7723C215.661 19.3832 214.188 15.0075 211.012 11.1983C206.754 6.09032 199.74 2.36309 191.513 0.836535C183.287 -0.690021 174.522 0.109139 167.146 3.05822ZM192.965 32.2841L182.896 36.3102L175.164 27.0361L171.614 28.4554L169.722 26.1854L173.272 24.766L165.54 15.4918L174.183 12.0361C176.228 11.2183 189.527 5.50869 198.595 16.3859C207.812 27.4419 192.973 32.2808 192.973 32.2808L192.965 32.2841Z" fill="#FFDA00" fill-opacity="0.2"/>
    <path d="M178.191 15.7303L174.22 17.3184L178.743 22.7445L184.994 20.2454L186.886 22.5154L180.636 25.0145L185.159 30.4406L189.323 28.776C190.394 28.3477 198.184 25.343 192.842 18.9526C187.499 12.5622 179.665 15.1411 178.191 15.7303Z" fill="#FFDA00" fill-opacity="0.2"/>
    <path d="M24.3586 143.498C16.3173 146.717 9.83329 151.518 5.72652 157.293C1.61976 163.067 0.0746762 169.557 1.28665 175.941C2.49862 182.324 6.41324 188.315 12.5354 193.156C18.6576 197.997 26.7125 201.471 35.6814 203.137C44.6502 204.803 54.1303 204.588 62.9228 202.519C71.7153 200.449 79.4252 196.618 85.0777 191.51C90.7302 186.401 94.0714 180.246 94.6787 173.821C95.286 167.396 93.1321 160.99 88.4895 155.414C82.2639 147.937 72.0098 142.48 59.9829 140.246C47.956 138.011 35.1416 139.181 24.3586 143.498ZM62.1053 186.281L47.3842 192.174L36.0808 178.598L30.8911 180.676L28.1244 177.353L33.3141 175.275L22.0108 161.699L34.6462 156.64C37.6367 155.443 57.0795 147.085 70.3366 163.008C83.8117 179.192 62.1175 186.276 62.1175 186.276L62.1053 186.281Z" fill="#FFDA00" fill-opacity="0.2"/>
    <path d="M40.5067 162.046L34.7002 164.371L41.3135 172.314L50.4513 168.656L53.218 171.979L44.0802 175.637L50.6936 183.58L56.78 181.144C58.3463 180.517 69.7354 176.118 61.9251 166.763C54.1148 157.409 42.6613 161.184 40.5067 162.046Z" fill="#FFDA00" fill-opacity="0.2"/>
    <path d="M168.272 82.127C178.847 82.1331 189.207 84.247 198.177 88.2286C210.269 93.5842 218.44 101.146 222.767 110.794C223.781 113.089 224.491 115.446 224.889 117.834C225.276 120.122 225.382 122.43 225.205 124.73C224.858 129.545 223.27 134.272 220.522 138.679C217.492 143.594 213.103 148.027 207.617 151.713C200.384 156.626 191.44 160.08 181.707 161.722C179.018 162.18 176.285 162.495 173.531 162.664C171.066 162.824 168.588 162.862 166.116 162.777C159.45 162.577 152.889 161.526 146.745 159.676C132.985 155.512 122.988 148.589 116.755 138.908C114.723 135.726 113.298 132.365 112.518 128.915C111.848 126.054 111.631 123.149 111.869 120.254C112.374 112.726 115.898 105.458 122.025 99.3088C129.469 91.7081 140.398 86.1843 152.941 83.6835C155.822 83.0903 158.769 82.6716 161.749 82.4318C163.921 82.2353 166.082 82.159 168.272 82.127ZM188.619 123.294L189.183 123.19C190.93 122.907 192.549 122.318 193.895 121.478C195.241 120.637 196.271 119.571 196.891 118.376C197.433 117.333 197.776 116.243 197.912 115.135C198.074 114.143 197.982 113.139 197.641 112.17C197.013 110.508 195.674 109.027 193.81 107.93C191.983 106.837 189.939 105.942 187.744 105.274C186.252 104.8 184.727 104.38 183.174 104.018C182.609 103.886 182.609 103.886 182.75 103.497C183.021 102.763 183.315 102.025 183.569 101.287L185.6 95.7384C185.696 95.4737 185.696 95.4696 185.335 95.3934L183.71 95.0645C182.085 94.7315 180.465 94.4025 178.84 94.0776C178.468 94.0014 178.468 94.0094 178.366 94.2702V94.3464C177.719 96.2185 177.068 98.0986 176.414 99.9867C176.188 100.653 175.961 101.321 175.731 101.993C175.686 102.133 175.652 102.245 175.348 102.197C173.655 101.924 171.962 101.676 170.235 101.395C169.733 101.319 169.733 101.307 169.869 100.942C170.467 99.3369 171.069 97.7402 171.674 96.1516L172.803 93.1349C172.709 93.0635 172.583 93.0168 172.447 93.0025L166.24 91.8752C165.812 91.795 165.806 91.795 165.676 92.1039C165.343 93.0145 165.01 93.9292 164.672 94.8398C164.059 96.5274 163.44 98.2149 162.815 99.9025C162.714 100.175 162.748 100.227 162.279 100.163C160.84 99.9587 159.407 99.7099 157.98 99.4572C155.266 98.9838 152.563 98.4744 149.849 97.9849C149.249 97.8588 148.641 97.7557 148.026 97.676C147.992 97.7242 147.97 97.7442 147.959 97.7683C147.308 99.4773 146.663 101.186 146.023 102.895C145.927 103.144 145.955 103.164 146.339 103.232L149.036 103.71C150.001 103.882 150.989 104.022 151.931 104.243C152.807 104.444 153.542 104.875 153.987 105.449C154.431 106.022 154.552 106.694 154.323 107.328C154.188 107.729 154.053 108.13 153.911 108.532C152.256 113.345 150.605 118.151 148.957 122.949C148.145 125.308 147.334 127.667 146.525 130.026C146.426 130.371 146.181 130.686 145.823 130.93C145.465 131.174 145.012 131.334 144.522 131.39C143.982 131.452 143.43 131.424 142.909 131.306C141.408 131.033 139.912 130.768 138.395 130.503C137.926 130.419 137.926 130.419 137.723 130.744C137.689 130.79 137.659 130.836 137.633 130.884C136.594 132.564 135.558 134.245 134.524 135.927C134.422 136.033 134.375 136.16 134.388 136.288C134.692 136.377 135.008 136.446 135.331 136.493C139.308 137.255 143.23 138.137 147.282 138.751C147.637 138.803 147.987 138.88 148.337 138.952C148.686 139.024 148.737 139.04 148.641 139.317C148.641 139.377 148.607 139.441 148.585 139.505L145.82 147.236C145.673 147.637 145.673 147.637 146.226 147.753L152.354 148.997C152.918 149.113 152.918 149.113 153.076 148.704C153.998 146.206 154.916 143.707 155.83 141.206C156.027 140.669 156.027 140.673 156.806 140.769C158.172 140.933 159.514 141.17 160.852 141.415C161.206 141.455 161.551 141.527 161.879 141.631C161.867 141.768 161.833 141.902 161.777 142.033C160.833 144.581 159.893 147.13 158.956 149.679C158.826 150.032 158.826 150.032 159.294 150.14L163.651 151.139L166.054 151.677C166.116 151.524 166.173 151.404 166.223 151.275L169.276 143.437C169.412 143.084 169.411 143.084 169.919 143.14C172.61 143.461 175.329 143.65 178.056 143.706C180.314 143.756 182.572 143.595 184.771 143.224C188.272 142.642 191.312 141.105 193.234 138.944C194.176 137.865 194.921 136.706 195.452 135.494C196.278 133.888 196.636 132.179 196.501 130.471C196.364 129.123 195.71 127.827 194.611 126.724C193.485 125.637 192.061 124.724 190.424 124.04C189.86 123.788 189.268 123.559 188.619 123.294Z" fill="#FFDA00" fill-opacity="0.1"/>
    <path d="M171.99 136.871C169.662 136.838 167.345 136.642 165.072 136.285C163.058 135.996 161.077 135.611 159.08 135.282C158.6 135.202 158.6 135.198 158.713 134.857C159.42 132.8 160.124 130.742 160.823 128.683C161.32 127.239 161.813 125.795 162.302 124.35C162.333 124.276 162.36 124.201 162.381 124.126C162.42 123.841 162.578 123.869 162.945 123.925C164.169 124.126 165.394 124.326 166.613 124.523C169.08 124.905 171.5 125.425 173.852 126.079C175.539 126.531 177.118 127.167 178.53 127.965C179.688 128.602 180.559 129.467 181.035 130.452C181.842 132.221 180.883 135.098 177.446 136.181C175.92 136.639 174.279 136.873 172.622 136.871H171.99Z" fill="#FFDA00" fill-opacity="0.1"/>
    <path d="M175.235 120.096C172.95 120.052 170.679 119.828 168.464 119.426C167.302 119.229 166.139 119.004 164.983 118.792C164.554 118.712 164.554 118.708 164.661 118.391C165.496 115.984 166.335 113.563 167.178 111.13C167.482 110.252 167.785 109.374 168.086 108.494C168.137 108.346 168.177 108.273 168.442 108.325C170.908 108.815 173.413 109.2 175.828 109.83C177.393 110.211 178.882 110.736 180.257 111.39C181.097 111.803 181.835 112.311 182.441 112.895C184.534 114.921 183.727 118.535 179.541 119.618C178.158 119.96 176.699 120.122 175.235 120.096Z" fill="#FFDA00" fill-opacity="0.1"/>
    <path d="M101.914 41.2598C107.958 41.2626 113.879 42.2321 119.006 44.0582C125.917 46.5145 130.587 49.9827 133.06 54.4076C133.64 55.4601 134.046 56.5411 134.273 57.6366C134.494 58.6859 134.555 59.7442 134.453 60.7994C134.255 63.0073 133.348 65.1757 131.777 67.1967C130.045 69.4511 127.537 71.4839 124.401 73.1745C120.267 75.4277 115.156 77.0122 109.592 77.765C108.056 77.9752 106.494 78.1198 104.92 78.1974C103.511 78.2706 102.095 78.2879 100.682 78.2489C96.872 78.1571 93.122 77.6753 89.6107 76.8267C81.7462 74.9169 76.0327 71.7418 72.4702 67.3016C71.3085 65.8422 70.494 64.3009 70.0483 62.7184C69.6656 61.4063 69.5412 60.0739 69.6775 58.7461C69.966 55.2936 71.9803 51.9604 75.4824 49.14C79.7366 45.6541 85.9831 43.1206 93.1518 41.9736C94.7984 41.7016 96.4824 41.5096 98.1859 41.3996C99.4275 41.3094 100.663 41.2745 101.914 41.2598ZM113.543 60.1407L113.866 60.0929C114.864 59.963 115.79 59.6931 116.559 59.3076C117.328 58.922 117.916 58.4331 118.271 57.885C118.581 57.4065 118.777 56.9065 118.854 56.3984C118.947 55.9435 118.894 55.4829 118.7 55.0387C118.341 54.2766 117.576 53.597 116.51 53.0939C115.466 52.5928 114.298 52.1824 113.043 51.8759C112.191 51.6583 111.319 51.4661 110.431 51.3C110.108 51.2393 110.108 51.2393 110.189 51.0609C110.344 50.7242 110.512 50.3856 110.657 50.0471L111.818 47.5025C111.872 47.3811 111.873 47.3792 111.666 47.3443L110.737 47.1934C109.809 47.0407 108.883 46.8898 107.954 46.7408C107.741 46.7058 107.741 46.7095 107.683 46.8291V46.8641C107.313 47.7227 106.942 48.585 106.567 49.451C106.438 49.7564 106.308 50.063 106.177 50.3709C106.151 50.4353 106.132 50.4868 105.958 50.4647C104.991 50.3396 104.023 50.2255 103.036 50.0968C102.749 50.0618 102.749 50.0563 102.827 49.8888C103.168 49.1529 103.512 48.4206 103.859 47.692L104.504 46.3084C104.45 46.2757 104.378 46.2543 104.3 46.2477L100.753 45.7307C100.508 45.6939 100.505 45.6939 100.43 45.8356C100.24 46.2532 100.05 46.6727 99.8564 47.0904C99.5059 47.8644 99.1523 48.6383 98.7954 49.4123C98.7374 49.5374 98.7567 49.5613 98.489 49.5319C97.6666 49.4381 96.8475 49.324 96.0316 49.2081C94.4804 48.991 92.9356 48.7573 91.3844 48.5329C91.0419 48.475 90.6942 48.4277 90.3428 48.3912C90.3235 48.4133 90.3106 48.4225 90.3041 48.4335C89.9322 49.2173 89.5635 50.0011 89.198 50.7849C89.1432 50.8989 89.1593 50.9081 89.3785 50.9394L90.9201 51.1584C91.4715 51.2375 92.0359 51.3019 92.5745 51.4031C93.0753 51.4953 93.4955 51.693 93.7495 51.9559C94.0036 52.2188 94.0724 52.5271 93.9419 52.818C93.8645 53.0019 93.7871 53.1859 93.7065 53.3699C92.7605 55.5778 91.8166 57.782 90.875 59.9825C90.4106 61.0643 89.9472 62.1462 89.485 63.2281C89.4282 63.3864 89.2882 63.531 89.0837 63.6428C88.8792 63.7545 88.6198 63.8281 88.3401 63.8536C88.0316 63.8823 87.7157 63.8691 87.4178 63.815C86.56 63.6899 85.7054 63.5684 84.8379 63.447C84.5702 63.4084 84.5702 63.4084 84.4541 63.5574C84.4349 63.5783 84.4177 63.5998 84.4025 63.6218C83.8091 64.3921 83.2168 65.163 82.6256 65.9345C82.5676 65.9831 82.5403 66.0415 82.5482 66.1001C82.722 66.1411 82.9024 66.1725 83.0867 66.194C85.3603 66.5435 87.6017 66.9483 89.9172 67.2298C90.1203 67.2537 90.3202 67.2887 90.5202 67.3218C90.7201 67.3549 90.7492 67.3623 90.6943 67.4892C90.6943 67.5168 90.675 67.5463 90.6621 67.5757L89.0819 71.1212C88.998 71.3052 88.998 71.3052 89.3141 71.3585L92.8164 71.9289C93.1389 71.9822 93.1389 71.9822 93.2292 71.7946C93.7559 70.6489 94.2805 69.5027 94.8029 68.3558C94.9158 68.1093 94.9158 68.1111 95.3608 68.1553C96.1413 68.2307 96.9088 68.3393 97.6731 68.4515C97.8755 68.4697 98.0729 68.5031 98.26 68.5509C98.2536 68.6133 98.2342 68.6751 98.202 68.7348C97.6624 69.9038 97.1249 71.0727 96.5895 72.2417C96.5154 72.4036 96.5153 72.4036 96.783 72.4533L99.2727 72.9114L100.647 73.1579C100.682 73.088 100.714 73.0328 100.743 72.9739L102.488 69.3788C102.565 69.2169 102.565 69.2169 102.856 69.2427C104.393 69.3898 105.947 69.4765 107.506 69.5021C108.797 69.5254 110.087 69.4512 111.344 69.2813C113.345 69.0143 115.082 68.3093 116.181 67.3181C116.719 66.8235 117.145 66.2918 117.448 65.7358C117.921 64.9992 118.125 64.2154 118.048 63.4323C117.969 62.814 117.596 62.2197 116.968 61.7138C116.324 61.2154 115.51 60.7966 114.575 60.4829C114.253 60.367 113.914 60.2621 113.543 60.1407Z" fill="#FFDA00" fill-opacity="0.1"/>
    <path d="M104.039 66.3662C102.709 66.3513 101.385 66.2613 100.086 66.0975C98.9345 65.9651 97.8025 65.7884 96.6609 65.6376C96.3867 65.6008 96.3868 65.5989 96.4513 65.4425C96.8555 64.4993 97.2575 63.5554 97.6574 62.6109C97.9412 61.9486 98.2228 61.2862 98.5023 60.6239C98.5204 60.59 98.5355 60.5556 98.5475 60.5208C98.5701 60.3902 98.6604 60.4031 98.87 60.4288C99.5698 60.5208 100.27 60.6128 100.966 60.703C102.376 60.8781 103.76 61.1169 105.104 61.4168C106.068 61.6241 106.97 61.9159 107.777 62.2816C108.439 62.574 108.937 62.9705 109.209 63.4223C109.67 64.2337 109.122 65.5529 107.158 66.0497C106.285 66.2597 105.348 66.3673 104.401 66.3662H104.039Z" fill="#FFDA00" fill-opacity="0.1"/>
    <path d="M105.895 58.6736C104.589 58.6538 103.291 58.5507 102.025 58.3663C101.361 58.2761 100.696 58.1731 100.035 58.0756C99.7902 58.0388 99.7901 58.037 99.8514 57.8916C100.329 56.7877 100.808 55.6776 101.29 54.5614C101.464 54.1591 101.637 53.7561 101.809 53.3526C101.838 53.2845 101.861 53.2514 102.012 53.2753C103.421 53.4998 104.853 53.6764 106.234 53.9653C107.128 54.1402 107.979 54.3808 108.765 54.681C109.245 54.8701 109.667 55.1033 110.013 55.371C111.21 56.3001 110.749 57.9578 108.356 58.4546C107.565 58.6114 106.732 58.6856 105.895 58.6736Z" fill="#FFDA00" fill-opacity="0.1"/>
</svg>
