<svg width="28" height="25" viewBox="0 0 28 25" fill="none" xmlns="http://www.w3.org/2000/svg">
<path d="M5.66519 21.3061C5.80344 22.1805 5.74584 23.0747 5.49659 23.9239C5.46686 24.0235 5.4669 24.1296 5.49669 24.2292C5.52648 24.3287 5.58472 24.4173 5.66422 24.4841C5.74372 24.5508 5.841 24.5928 5.94405 24.6048C6.0471 24.6168 6.1514 24.5984 6.24408 24.5517C7.34564 23.9887 8.90807 22.9697 9.73986 21.3793H10.847C11.7177 21.3797 12.5799 21.2082 13.3843 20.8746C14.1888 20.541 14.9197 20.0519 15.5353 19.4352C16.151 18.8186 16.6392 18.0864 16.9723 17.2806C17.3053 16.4748 17.4765 15.6112 17.4761 14.739C17.4754 12.9792 16.7769 11.2916 15.5343 10.0475C14.2918 8.80331 12.6068 8.10439 10.8499 8.10439H6.63469C5.76404 8.10328 4.90171 8.27405 4.09699 8.60694C3.29226 8.93983 2.56092 9.42832 1.94476 10.0445C1.3286 10.6606 0.839699 11.3924 0.506006 12.1979C0.172313 13.0034 0.000368526 13.8669 0 14.739C0.000627518 16.3324 0.573209 17.8724 1.61324 19.078C2.65328 20.2836 4.09142 21.0744 5.66519 21.3061ZM6.14853 13.706L7.74468 13.4526L8.45845 12.003C8.48469 11.9509 8.52485 11.9071 8.57447 11.8765C8.62408 11.8459 8.6812 11.8297 8.73946 11.8297C8.79772 11.8297 8.85484 11.8459 8.90446 11.8765C8.95407 11.9071 8.99424 11.9509 9.02047 12.003L9.73424 13.4526L11.3304 13.6863C11.3879 13.6952 11.4418 13.7198 11.4862 13.7576C11.5305 13.7953 11.5635 13.8446 11.5816 13.9001C11.5996 13.9555 11.602 14.0148 11.5884 14.0715C11.5748 14.1282 11.5458 14.1799 11.5046 14.2211L10.3497 15.347L10.6307 16.9403C10.6404 16.998 10.6338 17.0574 10.6117 17.1116C10.5896 17.1659 10.5529 17.2129 10.5056 17.2474C10.4583 17.2819 10.4024 17.3025 10.3441 17.3069C10.2858 17.3113 10.2274 17.2994 10.1754 17.2724L8.74789 16.5208L7.31192 17.2809C7.26 17.3078 7.2016 17.3198 7.14328 17.3153C7.08497 17.3109 7.02903 17.2903 6.98176 17.2558C6.93448 17.2213 6.89774 17.1743 6.87565 17.1201C6.85355 17.0658 6.84699 17.0065 6.85668 16.9487L7.1377 15.3555L5.98274 14.2295C5.94089 14.1892 5.91098 14.1381 5.89633 14.0818C5.88168 14.0256 5.88286 13.9663 5.89973 13.9107C5.9166 13.855 5.9485 13.8052 5.99192 13.7665C6.03533 13.7279 6.08856 13.7021 6.14572 13.6919L6.14853 13.706ZM28 7.23741C27.9993 8.82749 27.4278 10.3643 26.3898 11.5673C25.3519 12.7704 23.9166 13.5594 22.346 13.7904C22.2049 14.6652 22.2606 15.5606 22.509 16.4111C22.538 16.5104 22.5374 16.6161 22.5073 16.7152C22.4772 16.8142 22.4189 16.9023 22.3395 16.9686C22.2602 17.035 22.1632 17.0767 22.0606 17.0886C21.9579 17.1006 21.854 17.0823 21.7615 17.036C20.7492 16.5378 19.8382 15.8553 19.0751 15.0233C19.0751 14.9248 19.0751 14.8291 19.0751 14.7419C19.0758 12.5479 18.2074 10.4434 16.6606 8.8902C15.1137 7.33703 13.0148 6.46217 10.8246 6.45769H10.5941C10.7847 4.84617 11.5588 3.36065 12.7696 2.28259C13.9805 1.20454 15.5441 0.608849 17.1642 0.608399H21.3794C22.2487 0.608029 23.1095 0.779221 23.9128 1.11219C24.716 1.44517 25.4459 1.9334 26.0607 2.549C26.6755 3.16459 27.1632 3.8955 27.496 4.69995C27.8287 5.5044 28 6.36664 28 7.23741Z" fill="#AB882E"/>
</svg>
