<svg width="36" height="39" viewBox="0 0 36 39" fill="none" xmlns="http://www.w3.org/2000/svg">
    <path d="M35.6113 8.83591C28.7333 8.83591 20.1597 7.41705 18.3755 0.657288C18.3716 0.640799 18.3607 0.629806 18.3545 0.614102C18.3444 0.58819 18.3343 0.56385 18.3187 0.541079C18.304 0.519879 18.2877 0.502604 18.2698 0.484544C18.2527 0.46727 18.2363 0.450781 18.2161 0.436647C18.1928 0.420158 18.1679 0.409951 18.1415 0.399743C18.1267 0.394247 18.1158 0.383254 18.1003 0.379328C18.0933 0.377758 18.0855 0.379328 18.0785 0.378543C18.0521 0.373047 18.0264 0.373047 17.9984 0.373047C17.9728 0.373047 17.9487 0.373047 17.923 0.377758C17.9153 0.379328 17.9075 0.376972 17.8997 0.379328C17.8834 0.384039 17.8709 0.395032 17.8546 0.401313C17.8305 0.411521 17.8072 0.420944 17.7854 0.435863C17.7637 0.450781 17.7466 0.468056 17.7279 0.486115C17.7108 0.50339 17.6952 0.519878 17.6812 0.540293C17.6657 0.563064 17.6556 0.58819 17.6455 0.614102C17.6393 0.629021 17.6284 0.640799 17.6245 0.657288C15.8395 7.41705 7.26593 8.83591 0.388719 8.83591C0.174146 8.83591 0 9.01179 0 9.2285C0 25.7271 9.22973 36.774 17.9129 38.792C17.9417 38.799 17.9705 38.8014 17.9984 38.8022C17.9984 38.8022 17.9992 38.8022 18 38.8022C18 38.8022 18.0008 38.8022 18.0016 38.8022C18.0295 38.8014 18.0583 38.799 18.0871 38.792C26.771 36.774 36 25.7263 36 9.2285C36 9.011 35.8266 8.83591 35.6113 8.83591ZM23.5074 25.1397C23.5074 26.2225 22.6359 27.1027 21.5638 27.1027H14.4362C13.3649 27.1027 12.4926 26.2225 12.4926 25.1397V20.036C12.4926 19.0882 13.162 18.2952 14.0483 18.113V16.863C14.0483 14.6621 15.8208 12.8718 18 12.8718C20.1792 12.8718 21.9517 14.6621 21.9517 16.863V18.113C22.8388 18.2952 23.5074 19.0882 23.5074 20.036V25.1397Z" fill="#AB882E"/>
</svg>
