<svg width="25" height="27" viewBox="0 0 25 27" fill="none" xmlns="http://www.w3.org/2000/svg">
<path d="M14 12.6084V11.786C14 10.5855 13.1026 9.6084 12 9.6084C10.8974 9.6084 10 10.5855 10 11.786V12.6084H14Z" fill="#AB882E"/>
<path d="M12.5 19.6084C12.7761 19.6084 13 19.1607 13 18.6084C13 18.0561 12.7761 17.6084 12.5 17.6084C12.2239 17.6084 12 18.0561 12 18.6084C12 19.1607 12.2239 19.6084 12.5 19.6084Z" fill="#AB882E"/>
<path d="M15.1371 13.6084H9.86292C9.38716 13.6084 9 13.9621 9 14.3974V17.8188C9 18.2542 9.38716 18.6084 9.86292 18.6084H15.1371C15.6128 18.6084 16 18.2542 16 17.8188V14.3974C16 13.9626 15.6128 13.6084 15.1371 13.6084ZM13.291 16.3171V17.2156C13.291 17.6146 12.9361 17.9394 12.5 17.9394C12.0639 17.9394 11.709 17.6146 11.709 17.2156V16.3171C11.426 16.106 11.2413 15.7881 11.2413 15.4286C11.2413 14.7938 11.8056 14.2769 12.5 14.2769C13.1944 14.2769 13.7587 14.7933 13.7587 15.4286C13.7587 15.7881 13.5735 16.1055 13.291 16.3171Z" fill="#AB882E"/>
<path d="M24.7301 6.33411C19.9537 6.33411 13.9998 5.37416 12.7608 0.800707C12.7581 0.789551 12.7505 0.782114 12.7462 0.771489C12.7392 0.753958 12.7322 0.73749 12.7214 0.722084C12.7111 0.70774 12.6998 0.696053 12.6873 0.683834C12.6755 0.672147 12.6641 0.660991 12.6501 0.651429C12.6339 0.640273 12.6166 0.633366 12.5983 0.62646C12.588 0.622742 12.5804 0.615304 12.5696 0.612648C12.5648 0.611586 12.5594 0.612648 12.5545 0.612117C12.5362 0.608398 12.5184 0.608398 12.4989 0.608398C12.4811 0.608398 12.4644 0.608398 12.4466 0.611586C12.4412 0.612648 12.4358 0.611054 12.4304 0.612648C12.419 0.615836 12.4104 0.623273 12.399 0.627523C12.3823 0.634429 12.3661 0.640804 12.351 0.650898C12.3359 0.660991 12.324 0.672679 12.311 0.684897C12.2992 0.696584 12.2884 0.70774 12.2786 0.721552C12.2678 0.736958 12.2608 0.753958 12.2538 0.771489C12.2495 0.781583 12.2419 0.789551 12.2392 0.800707C10.9997 5.37416 5.04578 6.33411 0.269943 6.33411C0.120935 6.33411 0 6.45311 0 6.59974C0 17.7622 6.40954 25.2362 12.4395 26.6015C12.4595 26.6063 12.4795 26.6079 12.4989 26.6084C12.4989 26.6084 12.4995 26.6084 12.5 26.6084C12.5 26.6084 12.5005 26.6084 12.5011 26.6084C12.5205 26.6079 12.5405 26.6063 12.5605 26.6015C18.591 25.2362 25 17.7616 25 6.59974C25 6.45258 24.8796 6.33411 24.7301 6.33411ZM16.3246 17.3648C16.3246 18.0974 15.7193 18.6929 14.9748 18.6929H10.0252C9.28119 18.6929 8.67544 18.0974 8.67544 17.3648V13.9117C8.67544 13.2705 9.14028 12.734 9.75575 12.6107V11.765C9.75575 10.2759 10.9867 9.06469 12.5 9.06469C14.0133 9.06469 15.2442 10.2759 15.2442 11.765V12.6107C15.8603 12.734 16.3246 13.2705 16.3246 13.9117V17.3648Z" fill="#AB882E"/>
</svg>
