<svg width="39" height="42" viewBox="0 0 39 42" fill="none" xmlns="http://www.w3.org/2000/svg">
<path fill-rule="evenodd" clip-rule="evenodd" d="M19.8541 0.569825C30.3803 0.573509 38.849 9.79087 38.8535 21.2236C38.858 32.5437 30.2767 41.8521 19.6766 41.7619C9.45898 41.6749 0.831934 32.486 0.868033 21.1644C0.904315 9.78101 9.37393 0.566241 19.8541 0.569825ZM5.43898 31.9535C5.43255 32.1521 5.52863 32.2974 5.63169 32.4518C6.39702 33.5985 7.22573 34.6818 8.23695 35.5877C8.69567 35.9986 9.12086 36.4555 9.62138 36.8095C11.0118 37.7921 12.4421 38.6834 14.0198 39.2857C15.3103 39.7783 16.6275 40.1564 17.9814 40.2918C19.029 40.3964 20.0963 40.4552 21.1479 40.3013C21.7672 40.2109 22.4114 40.2179 22.9941 39.9104C23.0914 39.9908 23.1425 39.8651 23.2179 39.8515C24.4706 39.6255 25.6672 39.2035 26.8268 38.6487C30.6942 36.7984 33.6213 33.8461 35.5319 29.7642C37.2135 26.1716 37.7763 22.3575 37.2274 18.3581C36.7057 14.556 35.2622 11.2181 32.8778 8.3888C29.6384 4.54503 25.5822 2.47911 20.7949 2.14963C18.6451 2.00177 16.5303 2.31452 14.4784 3.04179C11.1638 4.21654 8.39871 6.26593 6.20311 9.20787C3.68677 12.5795 2.43185 16.4557 2.29646 20.7709C2.2633 21.8297 2.35635 22.8833 2.49294 23.9335C2.80873 26.3633 3.5477 28.6303 4.69101 30.7439C4.91725 31.1626 5.10545 31.6117 5.43898 31.9535Z" fill="#8DC740"/>
<path fill-rule="evenodd" clip-rule="evenodd" d="M22.9941 39.9101C22.4114 40.2178 21.7672 40.2108 21.1478 40.3012C20.0964 40.4551 19.029 40.3963 17.9813 40.2917C16.6274 40.1563 15.3102 39.7783 14.0198 39.2856C12.4421 38.6833 11.0117 37.792 9.62131 36.8093C9.12079 36.4554 8.6956 35.9985 8.23688 35.5876C7.22565 34.6817 6.39694 33.5983 5.63161 32.4517C5.52855 32.2973 5.43247 32.152 5.4389 31.9536C6.64504 29.0532 7.07667 25.9626 7.33983 22.832C7.46144 21.3847 7.50783 19.9292 7.71965 18.4921C7.96775 16.8082 8.54735 15.2902 9.66328 14.0464C10.6728 12.9213 11.9012 12.1715 13.2315 11.6089C14.3448 11.138 15.4686 10.6979 16.6858 10.6354C17.806 10.5778 18.8991 10.7688 19.9918 10.987C21.6528 11.4216 23.2822 11.9551 24.8161 12.7893C26.0687 13.3508 27.3294 13.8895 28.6318 14.3014C29.9848 14.7293 31.3149 15.2055 32.4613 16.1385C33.9042 17.3126 34.3106 18.8456 33.6285 20.6548C33.2093 21.7675 32.4924 22.6514 31.7188 23.4911C30.3549 24.9719 28.9174 26.373 27.6519 27.9603C26.1678 29.8216 24.8139 31.7761 23.8925 34.042C23.1323 35.9119 22.697 37.847 22.9941 39.9101ZM32.5824 22.166C32.5201 22.1627 32.4698 22.1856 32.4351 22.2437C32.375 22.2578 32.3195 22.2784 32.3154 22.3591C32.3149 22.3682 32.3298 22.3853 32.3387 22.3862C32.4123 22.3944 32.4421 22.3422 32.4612 22.2767C32.5062 22.2447 32.5513 22.2128 32.5962 22.1808C32.6161 22.1653 32.6665 22.1627 32.6188 22.1184C32.6068 22.1343 32.5946 22.1502 32.5824 22.166ZM17.3752 12.7931C15.4959 12.7913 13.9698 14.4414 13.9694 16.4754C13.969 18.5067 15.4986 20.1679 17.3705 20.169C19.2445 20.1702 20.7734 18.5128 20.7738 16.4797C20.774 14.4397 19.2578 12.795 17.3752 12.7931ZM20.1549 24.138C20.4293 24.6006 21.0173 25.0349 21.652 25.2826C22.9284 25.7811 24.2312 25.786 25.5456 25.5177C27.8244 25.0528 29.9492 24.1631 31.892 22.7822C32.008 22.6998 32.1778 22.65 32.2155 22.4621C32.1219 22.4111 32.0717 22.461 32.0228 22.493C31.3744 22.9195 30.691 23.2704 29.9934 23.5889C28.1821 24.4163 26.3011 24.9397 24.3329 25.0298C22.8827 25.0962 21.4557 24.9766 20.1549 24.138ZM29.5453 20.9632C29.9478 20.9537 30.2877 20.5642 30.2737 20.1284C30.2596 19.6844 29.907 19.3303 29.4973 19.3487C29.1063 19.3663 28.7854 19.7336 28.7891 20.1598C28.793 20.601 29.1428 20.9727 29.5453 20.9632Z" fill="#8BC43F"/>
<path fill-rule="evenodd" clip-rule="evenodd" d="M19.9921 10.9873C18.8994 10.7692 17.8063 10.5782 16.6861 10.6357C15.4689 10.6983 14.3451 11.1383 13.2318 11.6093C11.9016 12.1718 10.6732 12.9218 9.6636 14.0468C8.54766 15.2906 7.96806 16.8086 7.71997 18.4925C7.50815 19.9296 7.46176 21.3851 7.34015 22.8324C7.07699 25.963 6.64536 29.0536 5.43923 31.9541C5.1057 31.6119 4.91749 31.163 4.69107 30.7443C3.54786 28.6306 2.80889 26.3637 2.493 23.934C2.35651 22.8837 2.26337 21.8301 2.29653 20.7714C2.43201 16.4561 3.68692 12.5799 6.20318 9.20829C8.39868 6.26634 11.1639 4.21696 14.4784 3.04221C16.5303 2.31494 18.6451 2.00219 20.795 2.15005C25.5822 2.47953 29.6384 4.54555 32.8778 8.38921C35.2624 11.2185 36.7058 14.5564 37.2275 18.3585C37.7763 22.3579 37.2135 26.172 35.5319 29.7646C33.6213 33.8464 30.6942 36.7988 26.8268 38.6491C25.6673 39.2039 24.4707 39.6259 23.218 39.8519C23.1427 39.8655 23.0915 39.9911 22.9942 39.9108C22.6972 37.8474 23.1324 35.9124 23.8928 34.0425C24.8142 31.7766 26.1681 29.8221 27.6521 27.9608C28.9177 26.3736 30.3553 24.9724 31.7191 23.4916C32.4927 22.6518 33.2096 21.7679 33.6288 20.6553C34.3108 18.8461 33.9045 17.3131 32.4616 16.139C31.3152 15.206 29.985 14.7297 28.6321 14.3019C27.3297 13.89 26.069 13.3513 24.8164 12.7898C24.5524 11.8741 23.9694 11.2862 23.1585 10.9684C22.1066 10.5561 21.046 10.6473 19.9921 10.9873ZM36.2369 22.4375C36.2687 22.4396 36.3005 22.4417 36.3324 22.4438C36.5207 21.6764 36.5333 20.8794 36.5247 20.0985C36.5146 19.1781 36.4305 18.255 36.2606 17.3444C35.707 14.3738 34.4646 11.7915 32.5413 9.6012C31.3601 8.25609 29.9987 7.12893 28.68 5.9508C27.4979 4.89484 26.218 4.04918 24.7207 3.6272C23.3032 3.22771 21.8762 3.02449 20.4176 3.31962C20.3405 3.33525 20.2138 3.30219 20.2223 3.43353C20.2289 3.53469 20.3432 3.54276 20.4289 3.55869C22.6161 3.96425 24.6953 4.7429 26.7583 5.61256C28.7647 6.45842 30.432 7.72875 31.6586 9.65995C32.5187 11.0143 33.3103 12.4098 33.9211 13.9193C34.7465 15.9592 35.4115 18.0556 35.825 20.2412C35.9633 20.9732 36.0996 21.7054 36.2369 22.4375Z" fill="#F8E888"/>
<path fill-rule="evenodd" clip-rule="evenodd" d="M17.3753 12.793C19.2579 12.795 20.774 14.4396 20.7739 16.4796C20.7735 18.5127 19.2447 20.1701 17.3706 20.169C15.4987 20.1678 13.969 18.5067 13.9695 16.4754C13.9698 14.4412 15.496 12.7912 17.3753 12.793ZM19.7592 16.5034C19.7563 15.0617 18.6815 13.9024 17.3573 13.9125C16.0478 13.9224 14.9869 15.0776 14.9838 16.4965C14.9808 17.947 16.0347 19.0962 17.3696 19.0977C18.7071 19.0993 19.7622 17.954 19.7592 16.5034Z" fill="#FBFCFA"/>
<path fill-rule="evenodd" clip-rule="evenodd" d="M20.1549 24.1377C21.4557 24.9763 22.8827 25.0959 24.3328 25.0295C26.3011 24.9395 28.1821 24.416 29.9933 23.5886C30.691 23.2701 31.3744 22.9192 32.0228 22.4927C32.0715 22.4608 32.1219 22.4109 32.2154 22.4617C32.1778 22.6496 32.0079 22.6994 31.892 22.7819C29.9493 24.1627 27.8244 25.0525 25.5456 25.5174C24.2311 25.7856 22.9284 25.7808 21.652 25.2823C21.0172 25.0346 20.4293 24.6004 20.1549 24.1377Z" fill="#5A5D5A"/>
<path fill-rule="evenodd" clip-rule="evenodd" d="M19.9921 10.9869C21.0459 10.6469 22.1065 10.5557 23.1585 10.968C23.9694 11.2857 24.5524 11.8736 24.8164 12.7894C23.2824 11.9552 21.653 11.4217 19.9921 10.9869Z" fill="#069446"/>
<path fill-rule="evenodd" clip-rule="evenodd" d="M29.5454 20.9633C29.1429 20.9728 28.7931 20.601 28.7892 20.1599C28.7855 19.7339 29.1064 19.3665 29.4974 19.3488C29.9071 19.3304 30.2597 19.6846 30.2738 20.1285C30.2878 20.5644 29.9479 20.9539 29.5454 20.9633Z" fill="#FBFCFA"/>
<path fill-rule="evenodd" clip-rule="evenodd" d="M32.4617 22.2773C32.4423 22.342 32.4125 22.394 32.3389 22.3859C32.33 22.3849 32.3151 22.3678 32.3156 22.3589C32.3197 22.2784 32.3751 22.2579 32.4355 22.2441C32.4445 22.2551 32.4531 22.2661 32.4617 22.2773Z" fill="#5A5D5A"/>
<path fill-rule="evenodd" clip-rule="evenodd" d="M32.5967 22.1807C32.5517 22.2124 32.5066 22.2442 32.4616 22.2761C32.4532 22.2653 32.4445 22.2543 32.4355 22.2432C32.4701 22.1853 32.5204 22.1626 32.5827 22.1658L32.5967 22.1807Z" fill="#5A5D5A"/>
<path fill-rule="evenodd" clip-rule="evenodd" d="M32.5825 22.1658C32.5947 22.15 32.6069 22.134 32.6189 22.1182C32.6667 22.1626 32.6162 22.1652 32.5963 22.1808C32.5966 22.1809 32.5825 22.1658 32.5825 22.1658Z" fill="#5A5D5A"/>
<path fill-rule="evenodd" clip-rule="evenodd" d="M36.2368 22.4372C36.0994 21.7051 35.9631 20.9729 35.8247 20.241C35.4113 18.0554 34.7463 15.9589 33.9208 13.9191C33.3101 12.4096 32.5184 11.014 31.6584 9.65974C30.4318 7.72845 28.7644 6.45812 26.7581 5.61236C24.695 4.7426 22.6157 3.96395 20.4287 3.55849C20.343 3.54256 20.2286 3.5345 20.2221 3.43333C20.2135 3.302 20.3402 3.33506 20.4174 3.31942C21.8759 3.02429 23.303 3.22752 24.7205 3.627C26.2179 4.04898 27.4977 4.89465 28.6797 5.9506C29.9985 7.12873 31.3599 8.25579 32.541 9.601C34.4643 11.7914 35.7068 14.3736 36.2604 17.3442C36.4302 18.2549 36.5143 19.1779 36.5244 20.0983C36.5332 20.8792 36.5204 21.6761 36.3321 22.4435C36.3003 22.4414 36.2684 22.4394 36.2368 22.4372Z" fill="#FEFDFB"/>
<path fill-rule="evenodd" clip-rule="evenodd" d="M19.7591 16.504C19.7621 17.9545 18.7071 19.0997 17.3694 19.0983C16.0347 19.0968 14.9806 17.9477 14.9836 16.4971C14.9867 15.0782 16.0476 13.923 17.3572 13.9132C18.6814 13.903 19.7562 15.0623 19.7591 16.504Z" fill="#595A5C"/>
</svg>
