<svg width="355" height="546" viewBox="0 0 355 546" fill="none" xmlns="http://www.w3.org/2000/svg">
<g opacity="0.1">
<path d="M87.3742 262.287C84.7312 265.893 80.2768 267.339 77.4056 265.496C74.5645 263.666 74.389 259.261 77.0553 255.64C79.6934 252.03 84.1491 250.578 86.9917 252.422C89.8618 254.257 90.0295 258.661 87.3742 262.287Z" fill="#AB882E"/>
<path d="M72.1548 262.564C69.5125 266.167 65.0511 267.612 62.1872 265.777C59.3386 263.954 59.1704 259.539 61.8267 255.918C64.4797 252.311 68.9229 250.856 71.7832 252.698C74.6394 254.535 74.8073 258.943 72.1548 262.564Z" fill="#AB882E"/>
<path d="M88.8197 264.027C85.2382 266.779 84.0318 271.113 86.1388 273.702C88.2316 276.284 92.8565 276.152 96.4448 273.379C100.055 270.623 101.254 266.299 99.1542 263.718C97.0256 261.13 92.4148 261.268 88.8197 264.027Z" fill="#AB882E"/>
<path d="M89.5455 279.262C85.9581 282.018 84.7528 286.358 86.8668 288.947C88.9593 291.522 93.5703 291.391 97.1724 288.619C100.775 285.866 101.973 281.528 99.8675 278.954C97.7605 276.365 93.141 276.495 89.5455 279.262Z" fill="#AB882E"/>
<path d="M84.3552 285.793C82.2807 280.614 84.1748 275.641 80.2313 272.131C76.2768 268.6 71.2249 270.75 65.6506 269.114C56.931 266.548 47.3675 273.407 50.9854 281.344C53.96 287.883 57.819 286.306 62.3753 290.357C66.9063 294.394 65.528 298.252 72.5566 300.631C81.1168 303.543 87.6469 293.911 84.3552 285.793Z" fill="#AB882E"/>
<path d="M190.578 209.974C194.734 217.108 193.897 225.716 188.659 229.218C183.467 232.679 175.879 229.727 171.715 222.543C167.548 215.414 168.376 206.799 173.594 203.346C178.817 199.84 186.398 202.804 190.578 209.974Z" fill="#AB882E"/>
<path d="M179.824 235.945C183.975 243.076 183.132 251.696 177.913 255.191C172.726 258.67 165.127 255.698 160.956 248.531C156.806 241.379 157.619 232.783 162.848 229.299C168.063 225.818 175.651 228.785 179.824 235.945Z" fill="#AB882E"/>
<path d="M194.586 208.811C196.604 216.904 203.053 222.143 208.989 220.485C214.904 218.846 218.092 210.919 216.044 202.798C214.039 194.654 207.603 189.435 201.684 191.086C195.733 192.782 192.566 200.69 194.586 208.811Z" fill="#AB882E"/>
<path d="M220.917 218.82C222.937 226.926 229.396 232.168 235.339 230.498C241.241 228.854 244.421 220.951 242.384 212.808C240.38 204.679 233.92 199.451 228.008 201.117C222.071 202.775 218.885 210.693 220.917 218.82Z" fill="#AB882E"/>
<path d="M228.148 232.423C217.85 232.116 210.827 225.242 201.975 229.33C193.081 233.421 192.995 243.56 186.115 251.791C175.34 264.662 179.9 285.912 196.006 285.64C209.27 285.426 209.446 277.729 219.665 273.002C229.842 268.309 235.357 273.487 244.568 263.342C255.812 250.996 244.319 232.837 228.148 232.423Z" fill="#AB882E"/>
<path d="M339.609 265.725C336.966 269.331 332.511 270.777 329.64 268.934C326.799 267.105 326.623 262.699 329.29 259.079C331.928 255.468 336.383 254.016 339.226 255.86C342.096 257.695 342.264 262.1 339.609 265.725Z" fill="#AB882E"/>
<path d="M324.389 266.002C321.747 269.605 317.285 271.051 314.422 269.215C311.573 267.392 311.405 262.977 314.061 259.357C316.714 255.75 321.157 254.294 324.018 256.137C326.874 257.973 327.042 262.382 324.389 266.002Z" fill="#AB882E"/>
<path d="M341.054 267.465C337.473 270.217 336.266 274.552 338.373 277.14C340.466 279.722 345.091 279.591 348.679 276.818C352.289 274.061 353.488 269.737 351.389 267.156C349.26 264.568 344.649 264.706 341.054 267.465Z" fill="#AB882E"/>
<path d="M341.78 282.7C338.192 285.456 336.987 289.796 339.101 292.385C341.194 294.96 345.805 294.83 349.407 292.057C353.009 289.305 354.207 284.967 352.102 282.392C349.995 279.803 345.375 279.934 341.78 282.7Z" fill="#AB882E"/>
<path d="M336.59 289.232C334.515 284.053 336.409 279.079 332.466 275.569C328.511 272.038 323.459 274.188 317.885 272.552C309.165 269.987 299.602 276.846 303.22 284.783C306.194 291.322 310.053 289.745 314.61 293.795C319.141 297.833 317.762 301.691 324.791 304.07C333.351 306.982 339.881 297.349 336.59 289.232Z" fill="#AB882E"/>
<path d="M82.2492 506.212C79.6062 509.818 75.1518 511.264 72.2806 509.421C69.4395 507.592 69.264 503.187 71.9303 499.566C74.5684 495.956 79.0241 494.504 81.8667 496.348C84.7368 498.183 84.9045 502.587 82.2492 506.212Z" fill="#AB882E"/>
<path d="M67.0298 506.489C64.3875 510.092 59.9261 511.538 57.0622 509.703C54.2136 507.88 54.0454 503.464 56.7017 499.844C59.3547 496.237 63.7979 494.782 66.6582 496.624C69.5144 498.46 69.6823 502.869 67.0298 506.489Z" fill="#AB882E"/>
<path d="M83.6947 507.952C80.1132 510.704 78.9068 515.039 81.0138 517.627C83.1066 520.209 87.7315 520.078 91.3198 517.305C94.9298 514.549 96.1289 510.225 94.0292 507.644C91.9006 505.056 87.2898 505.194 83.6947 507.952Z" fill="#AB882E"/>
<path d="M84.4205 523.188C80.8331 525.943 79.6278 530.284 81.7418 532.873C83.8343 535.447 88.4453 535.317 92.0474 532.545C95.6497 529.792 96.8481 525.454 94.7425 522.88C92.6355 520.291 88.016 520.421 84.4205 523.188Z" fill="#AB882E"/>
<path d="M79.2302 529.719C77.1557 524.54 79.0498 519.567 75.1063 516.056C71.1518 512.526 66.0999 514.675 60.5256 513.04C51.806 510.474 42.2425 517.333 45.8604 525.27C48.835 531.809 52.694 530.232 57.2503 534.283C61.7813 538.32 60.403 542.178 67.4316 544.557C75.9918 547.469 82.5219 537.836 79.2302 529.719Z" fill="#AB882E"/>
<path d="M121.312 11.353C118.669 14.959 114.214 16.4051 111.343 14.562C108.502 12.7329 108.326 8.32735 110.993 4.70672C113.631 1.09636 118.087 -0.355641 120.929 1.48816C123.799 3.32319 123.967 7.72745 121.312 11.353Z" fill="#AB882E"/>
<path d="M106.092 11.6299C103.45 15.233 98.9886 16.6785 96.1247 14.8433C93.2761 13.0204 93.1079 8.60506 95.7642 4.98467C98.4172 1.37765 102.86 -0.0777473 105.721 1.76488C108.577 3.60096 108.745 8.00963 106.092 11.6299Z" fill="#AB882E"/>
<path d="M122.757 13.0931C119.176 15.8451 117.969 20.1796 120.076 22.768C122.169 25.3501 126.794 25.2185 130.382 22.4458C133.992 19.6894 135.191 15.3654 133.092 12.7842C130.963 10.1963 126.352 10.3341 122.757 13.0931Z" fill="#AB882E"/>
<path d="M123.483 28.3282C119.896 31.084 118.69 35.4244 120.804 38.0133C122.897 40.5881 127.508 40.4577 131.11 37.6854C134.712 34.9329 135.911 30.5949 133.805 28.0204C131.698 25.4313 127.078 25.5619 123.483 28.3282Z" fill="#AB882E"/>
<path d="M118.293 34.8599C116.218 29.6808 118.112 24.7074 114.169 21.197C110.214 17.6663 105.162 19.8161 99.5881 18.1804C90.8685 15.6146 81.305 22.4739 84.9229 30.4107C87.8975 36.9497 91.7565 35.3726 96.3128 39.4233C100.844 43.4606 99.4655 47.3189 106.494 49.6974C115.054 52.6099 121.584 42.977 118.293 34.8599Z" fill="#AB882E"/>
<path d="M48.0229 124.29C52.1789 131.424 51.3421 140.032 46.1041 143.534C40.9121 146.995 33.3238 144.044 29.1604 136.859C24.9935 129.73 25.8212 121.116 31.0392 117.663C36.2627 114.157 43.843 117.121 48.0229 124.29Z" fill="#AB882E"/>
<path d="M37.2691 150.262C41.4205 157.393 40.5776 166.012 35.3585 169.508C30.1713 172.986 22.5719 170.015 18.4015 162.848C14.2512 155.696 15.0639 147.1 20.2931 143.616C25.5081 140.134 33.0959 143.101 37.2691 150.262Z" fill="#AB882E"/>
<path d="M52.0311 123.127C54.049 131.221 60.4978 136.46 66.4339 134.801C72.3489 133.162 75.5372 125.235 73.4891 117.115C71.4847 108.97 65.0483 103.751 59.1297 105.403C53.1786 107.098 50.0114 115.006 52.0311 123.127Z" fill="#AB882E"/>
<path d="M78.3621 133.137C80.3821 141.243 86.8417 146.484 92.784 144.814C98.6863 143.171 101.866 135.268 99.829 127.124C97.8256 118.996 91.365 113.768 85.4535 115.434C79.516 117.092 76.3303 125.009 78.3621 133.137Z" fill="#AB882E"/>
<path d="M85.5938 146.74C75.2954 146.433 68.272 139.558 59.4206 143.646C50.5265 147.737 50.4404 157.876 43.5601 166.107C32.7854 178.978 37.3455 200.228 53.4511 199.956C66.7157 199.742 66.8915 192.046 77.1099 187.319C87.2868 182.625 92.8025 187.804 102.013 177.658C113.257 165.313 101.764 147.153 85.5938 146.74Z" fill="#AB882E"/>
<path d="M107.898 375.479C112.054 382.614 111.217 391.222 105.979 394.724C100.787 398.185 93.1988 395.233 89.0354 388.049C84.8685 380.92 85.6962 372.305 90.9142 368.852C96.1377 365.346 103.718 368.31 107.898 375.479Z" fill="#AB882E"/>
<path d="M97.1441 401.451C101.296 408.582 100.453 417.202 95.2335 420.697C90.0463 424.176 82.4469 421.204 78.2765 414.037C74.1262 406.885 74.9389 398.289 80.1681 394.805C85.3831 391.324 92.9709 394.291 97.1441 401.451Z" fill="#AB882E"/>
<path d="M111.906 374.317C113.924 382.41 120.373 387.649 126.309 385.991C132.224 384.352 135.412 376.424 133.364 368.304C131.36 360.16 124.923 354.941 119.005 356.592C113.054 358.287 109.886 366.195 111.906 374.317Z" fill="#AB882E"/>
<path d="M138.237 384.326C140.257 392.432 146.717 397.674 152.659 396.004C158.561 394.36 161.741 386.457 159.704 378.314C157.701 370.185 151.24 364.957 145.328 366.623C139.391 368.281 136.205 376.199 138.237 384.326Z" fill="#AB882E"/>
<path d="M145.469 397.929C135.17 397.622 128.147 390.748 119.296 394.835C110.402 398.927 110.315 409.065 103.435 417.297C92.6604 430.168 97.2205 451.418 113.326 451.146C126.591 450.932 126.766 443.235 136.985 438.508C147.162 433.814 152.678 438.993 161.888 428.848C173.132 416.502 161.639 398.342 145.469 397.929Z" fill="#AB882E"/>
</g>
</svg>
