<svg width="19" height="19" viewBox="0 0 19 19" fill="none" xmlns="http://www.w3.org/2000/svg">
<path d="M16.262 7.05722C15.7018 7.05722 15.2088 7.31281 14.8459 7.71102C13.5117 6.69506 11.7127 6.04126 9.71926 5.97156L10.7548 0.838886L14.052 1.65293C14.052 2.5407 14.7099 3.26581 15.517 3.26581C16.3396 3.26581 17.0012 2.52147 17.0012 1.6329C17.0012 0.744341 16.3441 0 15.5177 0C14.9419 0 14.4453 0.382186 14.1976 0.904587L10.556 0.0168258C10.3726 -0.0368565 10.193 0.107365 10.1443 0.309274L9.00747 5.96755C7.02956 6.05809 5.24974 6.71109 3.91118 7.72785C3.54826 7.31281 3.03605 7.05722 2.47579 7.05722C0.397355 7.05722 -0.283383 10.1251 1.61988 11.1739C1.55261 11.4984 1.52231 11.8446 1.52231 12.1899C1.52231 15.636 5.05165 18.4283 9.38517 18.4283C13.7372 18.4283 17.2665 15.636 17.2665 12.1899C17.2665 11.8446 17.2332 11.4824 17.1512 11.1571C19.016 10.1043 18.3294 7.05882 16.262 7.05722ZM4.63996 11.3919C4.63996 10.4873 5.29778 9.75896 6.12413 9.75896C6.93126 9.75896 7.58982 10.4825 7.58982 11.3919C7.58982 12.2804 6.932 13.0047 6.12413 13.0047C5.30148 13.0087 4.63996 12.2804 4.63996 11.3919ZM12.6514 15.2362C11.2906 16.7329 7.45087 16.7329 6.08939 15.2362C5.93935 15.0919 5.93935 14.8371 6.08939 14.6729C6.22022 14.5287 6.4523 14.5287 6.58313 14.6729C7.62235 15.8451 11.0696 15.8651 12.1539 14.6729C12.2848 14.5287 12.5169 14.5287 12.6477 14.6729C12.8007 14.8379 12.8007 15.0927 12.6514 15.2362ZM12.6211 13.0079C11.8139 13.0079 11.1561 12.2844 11.1561 11.3967C11.1561 10.4921 11.8139 9.76377 12.6211 9.76377C13.4437 9.76377 14.1053 10.4873 14.1053 11.3967C14.1016 12.2804 13.4437 13.0079 12.6211 13.0079Z" fill="white"/>
</svg>
