<svg width="79" height="76" viewBox="0 0 79 76" fill="none" xmlns="http://www.w3.org/2000/svg">
<g filter="url(#filter0_d_304_2)">
<path d="M2.00213 9.68916L2.50947 31.1707C2.55362 33.1019 3.3402 34.9419 4.70577 36.3082L31.9992 63.6016C33.4081 65.0095 35.3184 65.8003 37.3102 65.8003C39.3019 65.8003 41.2122 65.0095 42.6211 63.6016L63.6146 42.6243C65.0224 41.2153 65.8133 39.3051 65.8133 37.3133C65.8133 35.3215 65.0224 33.4112 63.6146 32.0023L36.3051 4.7057C34.9388 3.34012 33.0988 2.55354 31.1675 2.50939L9.68602 2.00205C8.67019 1.97831 7.66011 2.16094 6.71691 2.53889C5.77371 2.91684 4.91701 3.48224 4.19866 4.20088C3.48032 4.91953 2.91526 5.77646 2.53771 6.71982C2.16015 7.66317 1.97795 8.67334 2.00213 9.68916Z" fill="#FFDA00"/>
<path d="M2.00213 9.68916L2.50947 31.1707C2.55362 33.1019 3.3402 34.9419 4.70577 36.3082L31.9992 63.6016C33.4081 65.0095 35.3184 65.8003 37.3102 65.8003C39.3019 65.8003 41.2122 65.0095 42.6211 63.6016L63.6146 42.6243C65.0224 41.2153 65.8133 39.3051 65.8133 37.3133C65.8133 35.3215 65.0224 33.4112 63.6146 32.0023L36.3051 4.7057C34.9388 3.34012 33.0988 2.55354 31.1675 2.50939L9.68602 2.00205C8.67019 1.97831 7.66011 2.16094 6.71691 2.53889C5.77371 2.91684 4.91701 3.48224 4.19866 4.20088C3.48032 4.91953 2.91526 5.77646 2.53771 6.71982C2.16015 7.66317 1.97795 8.67334 2.00213 9.68916Z" stroke="black" stroke-width="2.88989" stroke-miterlimit="10"/>
</g>
<path d="M16.3383 19.7815C18.5816 19.7815 20.4002 17.9629 20.4002 15.7196C20.4002 13.4763 18.5816 11.6577 16.3383 11.6577C14.0949 11.6577 12.2764 13.4763 12.2764 15.7196C12.2764 17.9629 14.0949 19.7815 16.3383 19.7815Z" fill="#AB882E" stroke="black" stroke-width="2.88989" stroke-miterlimit="10"/>
<defs>
<filter id="filter0_d_304_2" x="0.555054" y="0.555176" width="77.7031" height="74.6899" filterUnits="userSpaceOnUse" color-interpolation-filters="sRGB">
<feFlood flood-opacity="0" result="BackgroundImageFix"/>
<feColorMatrix in="SourceAlpha" type="matrix" values="0 0 0 0 0 0 0 0 0 0 0 0 0 0 0 0 0 0 127 0" result="hardAlpha"/>
<feOffset dx="7" dy="4"/>
<feGaussianBlur stdDeviation="2"/>
<feComposite in2="hardAlpha" operator="out"/>
<feColorMatrix type="matrix" values="0 0 0 0 0 0 0 0 0 0 0 0 0 0 0 0 0 0 0.25 0"/>
<feBlend mode="normal" in2="BackgroundImageFix" result="effect1_dropShadow_304_2"/>
<feBlend mode="normal" in="SourceGraphic" in2="effect1_dropShadow_304_2" result="shape"/>
</filter>
</defs>
</svg>
