<svg width="35" height="27" viewBox="0 0 35 27" fill="none" xmlns="http://www.w3.org/2000/svg">
<g filter="url(#filter0_d_73_119)">
<path d="M24.0863 11.0483L23.9103 10.9007L18.7941 6.04674V4.77229L17.3381 5.16746L16.7642 4.38629L16.5891 4.14882C16.5891 4.14882 13.8256 4.24509 12.9408 3.9306L11.1071 3.28879L8.97534 10.0388L10.6771 10.6806C10.6995 10.7948 10.733 10.9066 10.777 11.0144C10.8191 11.323 10.982 11.6023 11.2299 11.791L18.1569 17.0758C18.3389 17.215 18.5576 17.2981 18.7861 17.315C19.0146 17.3318 19.2431 17.2816 19.4435 17.1706C19.644 17.0596 19.8077 16.8925 19.9146 16.6899C20.0216 16.4872 20.0671 16.2578 20.0457 16.0297C20.1854 16.0866 20.3349 16.1159 20.4858 16.1159C20.6703 16.1163 20.8523 16.0733 21.0171 15.9905C21.1819 15.9076 21.325 15.7872 21.4347 15.6389C21.5445 15.4906 21.6178 15.3186 21.6489 15.1368C21.68 14.9549 21.6678 14.7683 21.6135 14.592C21.7249 14.6266 21.8408 14.6442 21.9574 14.6443C22.1406 14.6446 22.3214 14.6022 22.4853 14.5203C22.6493 14.4385 22.7918 14.3195 22.9017 14.1729C23.0116 14.0263 23.0857 13.856 23.1182 13.6757C23.1506 13.4954 23.1406 13.3099 23.0888 13.1342C23.3521 13.1992 23.6297 13.1715 23.875 13.0558C24.1202 12.9401 24.3182 12.7435 24.4355 12.499C24.5528 12.2545 24.5823 11.977 24.519 11.7133C24.4558 11.4496 24.3036 11.2157 24.0882 11.051L24.0863 11.0483Z" fill="#FFDA00" stroke="black" stroke-width="0.825187" stroke-miterlimit="10"/>
<path d="M13.0629 15.2311C12.8908 15.231 12.722 15.1838 12.5748 15.0947C12.4276 15.0056 12.3076 14.878 12.2277 14.7256C12.1478 14.5732 12.1111 14.4019 12.1216 14.2301C12.1321 14.0584 12.1894 13.8928 12.2872 13.7512L12.929 12.8023C12.9993 12.6999 13.0891 12.6124 13.1932 12.5448C13.2974 12.4771 13.4138 12.4307 13.5359 12.408C13.658 12.3854 13.7833 12.387 13.9048 12.4128C14.0262 12.4386 14.1414 12.4881 14.2438 12.5584C14.3461 12.6287 14.4336 12.7185 14.5013 12.8226C14.5689 12.9267 14.6154 13.0432 14.638 13.1653C14.6607 13.2873 14.6591 13.4127 14.6333 13.5342C14.6075 13.6556 14.558 13.7708 14.4877 13.8732L13.8459 14.823C13.7585 14.9497 13.6414 15.0531 13.505 15.1242C13.3685 15.1953 13.2167 15.232 13.0629 15.2311Z" fill="#FFDA00" stroke="black" stroke-width="0.825187" stroke-miterlimit="10"/>
<path d="M14.5299 16.4716C14.3524 16.471 14.1787 16.4204 14.0287 16.3255C13.8787 16.2307 13.7585 16.0955 13.6819 15.9354C13.6053 15.7753 13.5754 15.5968 13.5956 15.4205C13.6159 15.2442 13.6855 15.0772 13.7964 14.9386L14.2823 14.3435C14.4387 14.1482 14.6662 14.0229 14.915 13.9953C15.1637 13.9677 15.4132 14.04 15.6086 14.1964C15.804 14.3527 15.9292 14.5803 15.9568 14.829C15.9844 15.0778 15.9121 15.3273 15.7557 15.5226L15.2698 16.1177C15.1812 16.2287 15.0686 16.3182 14.9404 16.3795C14.8123 16.4408 14.6719 16.4723 14.5299 16.4716Z" fill="#FFDA00" stroke="black" stroke-width="0.825187" stroke-miterlimit="10"/>
<path d="M16.0681 17.6249C15.8816 17.6249 15.6993 17.5696 15.5442 17.466C15.3891 17.3623 15.2682 17.2151 15.1968 17.0428C15.1254 16.8705 15.1066 16.6809 15.1429 16.498C15.1792 16.315 15.2689 16.1469 15.4006 16.0149L15.651 15.8123C15.7388 15.7247 15.843 15.6553 15.9577 15.6079C16.0724 15.5606 16.1952 15.5364 16.3193 15.5365C16.4433 15.5367 16.5661 15.5613 16.6807 15.6089C16.7952 15.6566 16.8993 15.7263 16.9868 15.8141C17.0744 15.902 17.1439 16.0062 17.1912 16.1209C17.2385 16.2355 17.2628 16.3584 17.2626 16.4824C17.2624 16.6065 17.2378 16.7293 17.1902 16.8438C17.1426 16.9584 17.0728 17.0624 16.985 17.15L16.7347 17.3526C16.647 17.4396 16.5429 17.5085 16.4286 17.5552C16.3142 17.602 16.1917 17.6256 16.0681 17.6249Z" fill="#FFDA00" stroke="black" stroke-width="0.825187" stroke-miterlimit="10"/>
<path d="M11.6525 13.9777C11.4873 13.9779 11.3249 13.9342 11.1821 13.8511C10.9666 13.7263 10.8092 13.5212 10.7445 13.2806C10.6797 13.0401 10.7128 12.7837 10.8365 12.5675L11.283 11.7359C11.343 11.6251 11.4246 11.5274 11.523 11.4487C11.6214 11.3699 11.7346 11.3117 11.8559 11.2774C11.9771 11.2431 12.104 11.2334 12.2291 11.249C12.3542 11.2646 12.4749 11.305 12.584 11.368C12.6932 11.431 12.7886 11.5152 12.8647 11.6157C12.9408 11.7161 12.996 11.8308 13.027 11.953C13.058 12.0751 13.0643 12.2023 13.0454 12.3269C13.0264 12.4515 12.9827 12.571 12.9169 12.6784L12.4703 13.5101C12.387 13.6529 12.2676 13.7713 12.124 13.8534C11.9805 13.9354 11.8178 13.9783 11.6525 13.9777Z" fill="#FFDA00" stroke="black" stroke-width="0.825187" stroke-miterlimit="10"/>
<path d="M25.8074 9.32264L23.9003 3.13741L22.3288 3.48858C22.1978 3.39682 22.0487 3.33428 21.8915 3.3052L19.0766 2.58729C18.8911 2.55315 18.7 2.5664 18.521 2.6258L15.2661 3.90025C15.0734 3.96386 14.9016 4.07869 14.7692 4.23246C14.6368 4.38622 14.5486 4.57311 14.5143 4.77312L13.9917 8.34893C13.8862 8.95865 13.8 9.47668 14.6096 9.53628C14.9443 9.56103 16.0766 9.44459 16.3324 7.95925L16.6075 5.81285L18.7933 6.0439L23.9095 10.8978C24.3028 10.4816 24.6118 10.1515 24.7814 9.96812L25.8074 9.32264Z" fill="#FFDA00" stroke="black" stroke-width="0.825187" stroke-miterlimit="10"/>
<path d="M8.22061 10.7191L5.48558 9.78293C5.33654 9.73053 5.2143 9.62126 5.14558 9.479C5.07686 9.33675 5.06724 9.17308 5.11883 9.02376L7.5403 1.40362C7.59178 1.25374 7.70066 1.13043 7.84302 1.0608C7.98537 0.991166 8.14956 0.98091 8.29947 1.03228L11.0336 1.96933C11.1079 1.99472 11.1764 2.03451 11.2354 2.08641C11.2943 2.13831 11.3424 2.20131 11.377 2.27181C11.4115 2.3423 11.4319 2.41892 11.4368 2.49728C11.4418 2.57564 11.4313 2.65421 11.4058 2.7285L8.98346 10.3477C8.95809 10.4224 8.91817 10.4914 8.86599 10.5506C8.81382 10.6097 8.75043 10.658 8.6795 10.6925C8.60856 10.7271 8.53148 10.7472 8.45272 10.7517C8.37395 10.7563 8.29506 10.7452 8.22061 10.7191Z" fill="white" stroke="black" stroke-width="0.825187" stroke-miterlimit="10"/>
<path d="M26.7544 10.7191L29.4885 9.78293C29.6376 9.73053 29.7598 9.62126 29.8285 9.479C29.8973 9.33675 29.9069 9.17308 29.8553 9.02376L27.4338 1.40362C27.3823 1.25374 27.2735 1.13043 27.1311 1.0608C26.9888 0.991166 26.8246 0.98091 26.6747 1.03228L23.9405 1.96933C23.7913 2.02152 23.669 2.13077 23.6002 2.27309C23.5314 2.41541 23.5219 2.57919 23.5738 2.7285L25.9953 10.3477C26.0467 10.4976 26.1556 10.6209 26.298 10.6905C26.4403 10.7602 26.6045 10.7704 26.7544 10.7191Z" fill="white" stroke="black" stroke-width="0.825187" stroke-miterlimit="10"/>
</g>
<defs>
<filter id="filter0_d_73_119" x="0.673462" y="0.587402" width="33.6272" height="25.4501" filterUnits="userSpaceOnUse" color-interpolation-filters="sRGB">
<feFlood flood-opacity="0" result="BackgroundImageFix"/>
<feColorMatrix in="SourceAlpha" type="matrix" values="0 0 0 0 0 0 0 0 0 0 0 0 0 0 0 0 0 0 127 0" result="hardAlpha"/>
<feOffset dy="4"/>
<feGaussianBlur stdDeviation="2"/>
<feComposite in2="hardAlpha" operator="out"/>
<feColorMatrix type="matrix" values="0 0 0 0 0 0 0 0 0 0 0 0 0 0 0 0 0 0 0.25 0"/>
<feBlend mode="normal" in2="BackgroundImageFix" result="effect1_dropShadow_73_119"/>
<feBlend mode="normal" in="SourceGraphic" in2="effect1_dropShadow_73_119" result="shape"/>
</filter>
</defs>
</svg>
