<svg width="23" height="23" viewBox="0 0 23 23" fill="none" xmlns="http://www.w3.org/2000/svg">
<path d="M11.4999 0C5.15891 0 0 5.15879 0 11.4999C0 17.8411 5.15891 23 11.4999 23C17.841 23 22.9999 17.8411 22.9999 11.4999C22.9999 5.15879 17.8411 0 11.4999 0ZM18.1034 9.5575L10.8786 16.7823C10.5714 17.0895 10.163 17.2586 9.72862 17.2586C9.29422 17.2586 8.88586 17.0895 8.57866 16.7823L4.89647 13.1001C4.58927 12.7929 4.42007 12.3846 4.42007 11.9502C4.42007 11.5157 4.58927 11.1073 4.89647 10.8001C5.20355 10.4929 5.61191 10.3237 6.04643 10.3237C6.48083 10.3237 6.88931 10.4929 7.19639 10.8002L9.7285 13.3322L15.8033 7.25747C16.1105 6.95027 16.5188 6.78119 16.9532 6.78119C17.3876 6.78119 17.796 6.95027 18.1032 7.25747C18.7375 7.89179 18.7375 8.92342 18.1034 9.5575Z" fill="#B78300"/>
</svg>
