<svg width="23" height="23" viewBox="0 0 23 23" fill="none" xmlns="http://www.w3.org/2000/svg">
<path d="M0.5 11.4999C0.5 5.43494 5.43505 0.5 11.4999 0.5C17.5649 0.5 22.4999 5.43493 22.4999 11.4999C22.4999 17.565 17.5648 22.5 11.4999 22.5C5.43506 22.5 0.5 17.565 0.5 11.4999ZM11.2321 17.1359L18.457 9.91106C19.2864 9.08167 19.2863 7.73345 18.4567 6.90391C18.0557 6.50291 17.5202 6.28119 16.9532 6.28119C16.3862 6.28119 15.8507 6.50291 15.4497 6.90391L9.72849 12.6251L7.55008 10.4468C7.14917 10.0456 6.61344 9.8237 6.04643 9.8237C5.47932 9.8237 4.94378 10.0456 4.54292 10.4465C4.14197 10.8475 3.92007 11.383 3.92007 11.9502C3.92007 12.5172 4.14198 13.0528 4.54292 13.4537L8.22511 17.1359C8.62611 17.5369 9.16166 17.7586 9.72862 17.7586C10.2956 17.7586 10.8311 17.5369 11.2321 17.1359Z" fill="white" stroke="#B78300"/>
</svg>
