<svg id="Ebene_1" data-name="Ebene 1" xmlns="http://www.w3.org/2000/svg" viewBox="0 0 560.2 538.24"><defs><style>.cls-1{fill:#efcea3;isolation:isolate;opacity:0.35;}.cls-2{fill:#f9eedf;}.cls-3{fill:#ffda00;}.cls-4{fill:#f79cbf;}.cls-5{fill:#b78300;}.cls-6{fill:#ab882e;}</style></defs><path class="cls-1" d="M27.88,237.57c93-68.16,61.24-108.5,124.23-200.65,50.12-73.31,125.63-19.1,176.46,6.34,97.32,48.69,110.89-7.33,177,48.3,80.55,67.77-91.23,137,16.11,252.14,63.73,68.36,50.67,137.1-56.56,186.06-66,30.15-90.15-39.15-195.68-37.25-42.77.78-137.06,92.36-192.46,14.14-42.13-59.48-29.55-99.17-21.83-127.09C70.31,324.84-53.36,297.11,27.88,237.57Z"/><circle class="cls-2" cx="271.33" cy="287.93" r="220.1"/><path class="cls-3" d="M271.33,67.83A220.11,220.11,0,1,1,271,508l.16-110a110.06,110.06,0,1,0,.15-220.11Z"/><path class="cls-4" d="M271,508A220.1,220.1,0,0,1,142.21,109.68l64.56,89.13A110.05,110.05,0,0,0,271.18,398Z"/><path class="cls-5" d="M142.06,109.79a220.05,220.05,0,0,1,129.39-42l-.06,110.05a110.08,110.08,0,0,0-64.7,21Z"/><path class="cls-6" d="M251.24,297.77V282.15h3.61v15.62Zm17.45,0h-3.52v-6.49a2.53,2.53,0,0,0-.44-1.65,1.38,1.38,0,0,0-1.13-.53,1.83,1.83,0,0,0-.74.16,2.68,2.68,0,0,0-.73.44,3.17,3.17,0,0,0-.64.63,3.73,3.73,0,0,0-.42.82v6.62h-3.52V286.22h3.17v1.94a4.19,4.19,0,0,1,1.81-1.59,6,6,0,0,1,2.68-.57,3.38,3.38,0,0,1,1.8.42,2.74,2.74,0,0,1,1.06,1.05,3.81,3.81,0,0,1,.48,1.41,8.64,8.64,0,0,1,.14,1.5Zm10.77-9a3.92,3.92,0,0,1-1.47-.27,3.58,3.58,0,0,1-1.19-.72,3.77,3.77,0,0,1-.82-1.08,3.25,3.25,0,0,1-.28-1.34A3.1,3.1,0,0,1,276,284a3.73,3.73,0,0,1,2-1.81,4.29,4.29,0,0,1,2.94,0,3.77,3.77,0,0,1,1.19.73,3.3,3.3,0,0,1,.82,1.08,3.1,3.1,0,0,1,.28,1.32,3.25,3.25,0,0,1-.28,1.34,3.3,3.3,0,0,1-.82,1.08,3.58,3.58,0,0,1-1.19.72A3.92,3.92,0,0,1,279.46,288.73Zm0-1.72a1.12,1.12,0,0,0,.92-.48,1.88,1.88,0,0,0,.4-1.21,1.78,1.78,0,0,0-.4-1.19,1.12,1.12,0,0,0-.92-.48,1.17,1.17,0,0,0-.95.5,1.84,1.84,0,0,0-.37,1.17,2,2,0,0,0,.37,1.21A1.2,1.2,0,0,0,279.46,287Zm8.93,11a4.13,4.13,0,0,1-1.47-.26,3.77,3.77,0,0,1-1.19-.73,3.56,3.56,0,0,1-.81-1.08,3.15,3.15,0,0,1,0-2.64,3.53,3.53,0,0,1,.81-1.1,3.58,3.58,0,0,1,1.19-.72,3.92,3.92,0,0,1,1.47-.27,4,4,0,0,1,1.48.27,3.53,3.53,0,0,1,1.18.72,3.14,3.14,0,0,1,.82,1.1,3.25,3.25,0,0,1,0,2.64,3.17,3.17,0,0,1-.82,1.08,3.73,3.73,0,0,1-1.18.73A4.22,4.22,0,0,1,288.39,298Zm0-1.72a1.2,1.2,0,0,0,.95-.48,1.89,1.89,0,0,0,.39-1.19,1.85,1.85,0,0,0-.39-1.19,1.2,1.2,0,0,0-.95-.5,1.18,1.18,0,0,0-.94.5,1.9,1.9,0,0,0-.38,1.19,1.88,1.88,0,0,0,.38,1.19A1.18,1.18,0,0,0,288.39,296.27Zm-11.17.27,6.2-7.13,5.63-7.46,1.59,1.41-6,6.95L278.78,298Z"/></svg>