<svg width="1018" height="925" viewBox="0 0 1018 925" fill="none" xmlns="http://www.w3.org/2000/svg">
<path opacity="0.35" d="M103.262 389.973C227.049 314.878 184.777 270.428 268.614 168.912C335.323 88.1353 435.831 147.862 503.489 175.886C633.016 229.538 651.087 167.812 739.088 229.101C846.295 303.767 617.658 380.04 760.534 506.901C845.358 582.217 827.976 657.946 685.254 711.893C597.39 745.104 565.251 668.758 424.79 670.855C367.868 671.705 242.365 772.604 168.631 686.432C112.557 620.899 129.294 577.172 139.579 546.409C159.737 486.118 -4.86032 455.566 103.262 389.973Z" fill="#EFCEA3"/>
<path d="M706.137 371.072C725.115 419.814 724.964 472.278 705.706 520.944C686.448 569.611 649.071 611.981 598.933 641.983C548.794 671.985 488.469 688.079 426.602 687.957C364.735 687.834 304.502 671.503 254.538 641.304C204.573 611.104 167.441 568.586 148.463 519.844C129.485 471.102 129.636 418.639 148.895 369.972C168.153 321.306 205.53 278.935 255.668 248.933C305.806 218.931 366.132 202.838 427.999 202.96L427.649 324.209C396.716 324.148 366.553 332.195 341.484 347.196C316.415 362.197 297.727 383.382 288.097 407.715C278.468 432.048 278.393 458.28 287.882 482.651C297.37 507.022 315.937 528.281 340.919 543.381C365.901 558.481 396.017 566.646 426.951 566.707C457.885 566.768 488.047 558.722 513.116 543.721C538.186 528.72 556.874 507.534 566.503 483.201C576.132 458.868 576.208 432.636 566.719 408.265L706.137 371.072Z" fill="#FFDA00"/>
<path d="M428.19 202.961C490.057 203.117 550.276 219.481 600.217 249.707L513.758 347.583C488.788 332.47 458.678 324.288 427.744 324.21L428.19 202.961Z" fill="#F79CBF"/>
<path d="M599.943 249.542C649.926 279.721 687.084 322.223 706.091 370.957L566.695 408.208C557.191 383.841 538.612 362.59 513.621 347.5L599.943 249.542Z" fill="#B78300"/>
</svg>
