<svg width="20" height="20" viewBox="0 0 20 20" fill="none" xmlns="http://www.w3.org/2000/svg">
<g clip-path="url(#clip0_452:1485)">
<path d="M17.6809 7.53615C17.0831 7.53615 16.5571 7.78772 16.1699 8.17968C14.7464 7.17969 12.8269 6.53616 10.6999 6.46755L11.8048 1.41555L15.3229 2.2168C15.3229 3.09061 16.0248 3.80432 16.886 3.80432C17.7637 3.80432 18.4695 3.07168 18.4695 2.19708C18.4695 1.32249 17.7684 0.589844 16.8868 0.589844C16.2724 0.589844 15.7424 0.966023 15.4782 1.48021L11.5926 0.606405C11.3971 0.553567 11.2054 0.695521 11.1534 0.894257L9.94045 6.4636C7.83006 6.55272 5.93103 7.19546 4.50281 8.19624C4.11559 7.78772 3.56906 7.53615 2.97128 7.53615C0.753631 7.53615 0.0272976 10.5558 2.05803 11.5882C1.98627 11.9076 1.95393 12.2482 1.95393 12.5882C1.95393 15.9801 5.71967 18.7285 10.3434 18.7285C14.9869 18.7285 18.7527 15.9801 18.7527 12.5882C18.7527 12.2482 18.7172 11.8918 18.6296 11.5716C20.6194 10.5353 19.8867 7.53773 17.6809 7.53615ZM5.2804 11.8027C5.2804 10.9123 5.98229 10.1954 6.86398 10.1954C7.72517 10.1954 8.42785 10.9076 8.42785 11.8027C8.42785 12.6773 7.72596 13.3902 6.86398 13.3902C5.98623 13.3941 5.2804 12.6773 5.2804 11.8027ZM13.8284 15.5865C12.3765 17.0597 8.27958 17.0597 6.82692 15.5865C6.66682 15.4446 6.66682 15.1938 6.82692 15.0321C6.9665 14.8902 7.21413 14.8902 7.35372 15.0321C8.46255 16.1859 12.1407 16.2056 13.2977 15.0321C13.4373 14.8902 13.6849 14.8902 13.8245 15.0321C13.9877 15.1946 13.9877 15.4454 13.8284 15.5865ZM13.7961 13.3933C12.9349 13.3933 12.233 12.6812 12.233 11.8074C12.233 10.917 12.9349 10.2002 13.7961 10.2002C14.6738 10.2002 15.3797 10.9123 15.3797 11.8074C15.3757 12.6773 14.6738 13.3933 13.7961 13.3933Z" fill="white"/>
</g>
<defs>
<clipPath id="clip0_452:1485">
<rect width="18.9273" height="18.9273" fill="white" transform="translate(0.863281 0.195557)"/>
</clipPath>
</defs>
</svg>
