<svg width="75" height="75" viewBox="0 0 75 75" fill="none" xmlns="http://www.w3.org/2000/svg">
<rect x="0.648438" y="0.642578" width="74.2396" height="74.2396" rx="37.1198" fill="#AB882E" fill-opacity="0.5"/>
<path d="M23.0135 37.0777C23.0136 36.7819 23.0721 36.489 23.1856 36.2158C23.2992 35.9427 23.4656 35.6947 23.6752 35.486C23.8849 35.2773 24.1338 35.1122 24.4074 34.9999C24.6811 34.8877 24.9743 34.8306 25.2701 34.832L29.0113 34.8442C29.6078 34.8442 30.1799 35.0812 30.6017 35.503C31.0235 35.9248 31.2605 36.4969 31.2605 37.0934V51.2409C31.6819 51.116 32.2211 50.9828 32.8145 50.8431C33.2257 50.7463 33.5921 50.5136 33.8543 50.1825C34.1166 49.8515 34.2593 49.4415 34.2594 49.0192V31.4715C34.2594 30.875 34.4964 30.3029 34.9182 29.881C35.34 29.4591 35.912 29.222 36.5086 29.2219H40.2612C40.8577 29.222 41.4298 29.4591 41.8516 29.881C42.2734 30.3029 42.5104 30.875 42.5104 31.4715V47.7586C42.5104 47.7586 43.4491 47.3787 44.363 46.9927C44.7027 46.8491 44.9925 46.6086 45.1963 46.3013C45.4001 45.9941 45.509 45.6336 45.5093 45.2649V25.8484C45.5093 25.2519 45.7462 24.6799 46.1679 24.2581C46.5896 23.8363 47.1616 23.5993 47.758 23.5992H51.5066C52.1028 23.5998 52.6743 23.837 53.0956 24.2587C53.517 24.6805 53.7536 25.2522 53.7536 25.8484V41.8372C57.0036 39.4819 60.2973 36.6489 62.911 33.2426C63.2903 32.7481 63.5412 32.1675 63.6415 31.5525C63.7417 30.9375 63.6882 30.3073 63.4857 29.718C62.2758 26.237 60.3525 23.047 57.839 20.3521C55.3255 17.6571 52.277 15.5165 48.8887 14.0673C45.5004 12.6181 41.8469 11.8922 38.162 11.936C34.4771 11.9798 30.8418 12.7923 27.489 14.3217C24.1361 15.851 21.1394 18.0634 18.6906 20.8174C16.2419 23.5714 14.395 26.8062 13.2681 30.3149C12.1413 33.8236 11.7593 37.5289 12.1467 41.1936C12.534 44.8584 13.6821 48.402 15.5175 51.5976C15.8373 52.1489 16.3078 52.5974 16.8737 52.8906C17.4395 53.1837 18.0773 53.3093 18.7121 53.2525C19.4212 53.1901 20.3041 53.1019 21.3538 52.9787C21.8107 52.9267 22.2324 52.7085 22.5388 52.3657C22.8452 52.0228 23.0148 51.5793 23.0153 51.1195V37.0777" fill="white"/>
<path d="M22.9337 59.7664C26.885 62.641 31.5546 64.3664 36.4257 64.7518C41.2967 65.1372 46.1795 64.1676 50.5337 61.9502C54.8879 59.7328 58.5438 56.3541 61.097 52.1878C63.6502 48.0216 65.001 43.2303 65.0001 38.344C65.0001 37.7327 64.9717 37.131 64.9311 36.531C55.2536 50.9645 37.3851 57.712 22.9337 59.7664Z" fill="#E9E9E9"/>
</svg>
