<svg width="19" height="16" viewBox="0 0 19 16" fill="none" xmlns="http://www.w3.org/2000/svg">
<g clip-path="url(#clip0_452:1473)">
<path d="M5.76169 15.1679C12.5022 15.1679 16.188 9.3907 16.188 4.38107C16.188 4.21698 16.1848 4.05362 16.1776 3.89101C16.8932 3.35586 17.5151 2.68803 18.0056 1.92781C17.349 2.22976 16.6424 2.43303 15.9011 2.52468C16.6577 2.05532 17.2386 1.31284 17.5126 0.427696C16.8046 0.86195 16.0205 1.17757 15.1856 1.34795C14.5169 0.611008 13.5649 0.150146 12.5107 0.150146C10.4871 0.150146 8.84597 1.84799 8.84597 3.9409C8.84597 4.23841 8.87812 4.52779 8.941 4.80534C5.89531 4.6468 3.19469 3.13818 1.3875 0.844213C1.07278 1.40449 0.891313 2.05532 0.891313 2.74975C0.891313 4.06508 1.53824 5.22629 2.52204 5.90558C1.92083 5.88636 1.35606 5.71562 0.862377 5.43141C0.861837 5.44732 0.861839 5.46283 0.861839 5.47983C0.861839 7.31589 2.12498 8.84889 3.80179 9.1963C3.49386 9.28315 3.16986 9.32972 2.8355 9.32972C2.59973 9.32972 2.37004 9.30571 2.14677 9.26135C2.61331 10.7677 3.96611 11.8639 5.57005 11.8946C4.31584 12.9117 2.73583 13.5174 1.01866 13.5174C0.723235 13.5174 0.431382 13.5 0.144531 13.4649C1.76633 14.5404 3.69212 15.1679 5.76188 15.1679" fill="white"/>
</g>
<defs>
<clipPath id="clip0_452:1473">
<rect width="17.9809" height="15.1418" fill="white" transform="translate(0.0859375 0.0881348)"/>
</clipPath>
</defs>
</svg>
