<svg width="20" height="20" viewBox="0 0 20 20" fill="none" xmlns="http://www.w3.org/2000/svg">
<g clip-path="url(#clip0_452:1467)">
<path d="M14.7804 0.195557H6.10002C3.2749 0.195557 0.976562 2.49388 0.976562 5.31898V13.9995C0.976562 16.8245 3.2749 19.1228 6.10002 19.1228H14.7806C17.6056 19.1228 19.9039 16.8245 19.9039 13.9995V5.31898C19.9039 2.49388 17.6056 0.195557 14.7804 0.195557V0.195557ZM10.4402 14.8344C7.58651 14.8344 5.26493 12.5129 5.26493 9.65917C5.26493 6.80547 7.58651 4.4839 10.4402 4.4839C13.2939 4.4839 15.6155 6.80547 15.6155 9.65917C15.6155 12.5129 13.2939 14.8344 10.4402 14.8344ZM15.7393 5.7044C14.896 5.7044 14.21 5.01848 14.21 4.17517C14.21 3.33185 14.896 2.64579 15.7393 2.64579C16.5826 2.64579 17.2687 3.33185 17.2687 4.17517C17.2687 5.01848 16.5826 5.7044 15.7393 5.7044Z" fill="white"/>
<path d="M10.4407 5.59351C8.19896 5.59351 6.375 7.41732 6.375 9.65918C6.375 11.9009 8.19896 13.7249 10.4407 13.7249C12.6825 13.7249 14.5063 11.9009 14.5063 9.65918C14.5063 7.41732 12.6825 5.59351 10.4407 5.59351Z" fill="white"/>
<path d="M15.7399 3.75562C15.5086 3.75562 15.3203 3.94392 15.3203 4.17525C15.3203 4.40658 15.5086 4.59489 15.7399 4.59489C15.9714 4.59489 16.1597 4.40673 16.1597 4.17525C16.1597 3.94377 15.9714 3.75562 15.7399 3.75562Z" fill="white"/>
</g>
<defs>
<clipPath id="clip0_452:1467">
<rect width="18.9274" height="18.9273" fill="white" transform="translate(0.976562 0.195557)"/>
</clipPath>
</defs>
</svg>
