<svg width="20" height="20" viewBox="0 0 20 20" fill="none" xmlns="http://www.w3.org/2000/svg">
<g clip-path="url(#clip0_452:1482)">
<path d="M19.5757 4.59013H18.5313C18.2594 4.59013 17.5478 4.88555 17.5478 5.13703V14.2696C17.5478 14.5217 18.2594 14.7284 18.5313 14.7284H19.5757V16.7561H12.8159V14.7284H14.1682V5.26569H13.9329L10.6789 16.756H8.15949L4.94758 5.26569H4.70431V14.7284H6.056V16.756H0.648438V14.7284H1.39843C1.69287 14.7284 2.00017 14.5217 2.00017 14.2696V5.13703C2.00017 4.88551 1.69291 4.59013 1.39843 4.59013H0.648438V2.56226H7.65648L9.94468 10.6729H10.0063L12.317 2.56226H19.5757V4.59013Z" fill="white"/>
</g>
<defs>
<clipPath id="clip0_452:1482">
<rect width="18.9273" height="18.9273" fill="white" transform="translate(0.648438 0.195557)"/>
</clipPath>
</defs>
</svg>
