<svg width="18" height="18" viewBox="0 0 18 18" fill="none" xmlns="http://www.w3.org/2000/svg">
<path d="M8.86718 17.5078C10.5306 17.5078 12.1566 17.0146 13.5396 16.0904C14.9227 15.1663 16.0006 13.8528 16.6372 12.3161C17.2737 10.7793 17.4402 9.08833 17.1157 7.45692C16.7912 5.82551 15.9902 4.32696 14.8141 3.15078C13.6379 1.9746 12.1393 1.17361 10.5079 0.849102C8.87652 0.524595 7.18551 0.691143 5.64876 1.32769C4.112 1.96423 2.79852 3.04218 1.8744 4.42523C0.950277 5.80827 0.457031 7.43429 0.457031 9.09766C0.459183 11.3275 1.34594 13.4654 2.92268 15.0422C4.49943 16.6189 6.63733 17.5057 8.86718 17.5078V17.5078ZM6.20258 8.35433L8.09339 5.75066C8.18586 5.63519 8.30389 5.5428 8.43818 5.48077C8.57246 5.41873 8.71933 5.38876 8.86718 5.39321C9.01508 5.38914 9.16193 5.41906 9.29644 5.48068C9.43094 5.5423 9.54951 5.63397 9.64301 5.74862L11.5298 8.35027C11.6074 8.4529 11.6493 8.57804 11.6493 8.7067C11.6493 8.83536 11.6074 8.9605 11.5298 9.06313C11.4371 9.17887 11.3187 9.27144 11.1841 9.33348C11.0494 9.39552 10.9021 9.42535 10.7539 9.42058H9.80548V12.0608C9.80509 12.1303 9.79201 12.1991 9.76689 12.2639C9.68806 12.4338 9.55987 12.5761 9.39902 12.6721C9.23817 12.7681 9.05213 12.8134 8.86515 12.8021C8.67827 12.8128 8.49246 12.7673 8.33172 12.6713C8.17099 12.5754 8.04269 12.4335 7.96341 12.2639C7.93977 12.1988 7.92741 12.1301 7.92686 12.0608V9.42058H6.9784C6.83021 9.42535 6.68294 9.39552 6.54828 9.33348C6.41361 9.27144 6.29525 9.17887 6.20258 9.06313C6.125 8.96127 6.08299 8.83677 6.08299 8.70873C6.08299 8.58069 6.125 8.45619 6.20258 8.35433Z" fill="#32C130"/>
</svg>
