<svg width="26" height="26" viewBox="0 0 26 26" fill="none" xmlns="http://www.w3.org/2000/svg">
<g filter="url(#filter0_d_73_113)">
<path d="M13.1903 8.13039L10.9155 5.85862C10.8179 5.761 10.7828 5.68169 10.827 5.5429C10.9323 5.20058 10.9729 4.84162 10.9467 4.48442C10.8988 3.67091 10.5417 2.90649 9.94853 2.34774C9.35533 1.78899 8.57094 1.4782 7.75603 1.47903C7.75603 1.4653 6.06001 1.47903 6.65026 2.05784C6.68839 2.0952 6.72042 2.13943 6.75855 2.1768C7.12307 2.5398 7.48988 2.9005 7.85287 3.26503C8.16401 3.57693 8.16401 3.93916 7.85287 4.24877C7.67671 4.42646 7.49827 4.60186 7.31906 4.77649C7.00182 5.08763 6.65178 5.08687 6.33759 4.77649C6.05696 4.49662 5.77861 4.2137 5.49874 3.93764C5.38119 3.81282 5.25723 3.6942 5.12735 3.58227C4.96187 3.44805 4.76664 3.51516 4.70182 3.72106C4.44391 4.49846 4.50479 5.34642 4.87112 6.07901C5.5689 7.50506 7.1185 8.18377 8.6475 7.74833C8.69192 7.73155 8.74051 7.7293 8.78629 7.74191C8.83206 7.75452 8.87265 7.78133 8.90221 7.81849C9.86816 8.79004 10.8382 9.76006 11.8123 10.7286C13.8118 12.7281 15.8101 14.7281 17.807 16.7287C18.1426 17.0657 18.533 17.2297 19.0097 17.1931C19.5252 17.1534 20.0559 16.7256 20.1947 16.2299C20.3587 15.6465 20.2077 15.1539 19.7814 14.7284C18.0274 12.9764 16.2735 11.224 14.5195 9.47104" fill="#FFDA00"/>
<path d="M13.1903 8.13039L10.9155 5.85862C10.8179 5.761 10.7828 5.68169 10.827 5.5429C10.9323 5.20058 10.9729 4.84162 10.9467 4.48442C10.8988 3.67091 10.5417 2.90649 9.94853 2.34774C9.35533 1.78899 8.57094 1.4782 7.75603 1.47903C7.75603 1.4653 6.06001 1.47903 6.65026 2.05784C6.68839 2.0952 6.72042 2.13943 6.75855 2.1768C7.12307 2.5398 7.48988 2.9005 7.85287 3.26503C8.16401 3.57693 8.16401 3.93916 7.85287 4.24877C7.67671 4.42646 7.49827 4.60186 7.31906 4.77649C7.00182 5.08763 6.65178 5.08687 6.33759 4.77649C6.05696 4.49662 5.77861 4.2137 5.49874 3.93764C5.38119 3.81282 5.25723 3.6942 5.12735 3.58227C4.96187 3.44805 4.76664 3.51516 4.70182 3.72106C4.44391 4.49846 4.50479 5.34642 4.87112 6.07901C5.5689 7.50506 7.1185 8.18377 8.6475 7.74833C8.69192 7.73155 8.74051 7.7293 8.78629 7.74191C8.83206 7.75452 8.87265 7.78133 8.90221 7.81849C9.86816 8.79004 10.8382 9.76006 11.8123 10.7286C13.8118 12.7281 15.8101 14.7281 17.807 16.7287C18.1426 17.0657 18.533 17.2297 19.0097 17.1931C19.5252 17.1534 20.0559 16.7256 20.1947 16.2299C20.3587 15.6465 20.2077 15.1539 19.7814 14.7284C18.0274 12.9764 16.2735 11.224 14.5195 9.47104" stroke="black" stroke-width="0.686337" stroke-miterlimit="10"/>
<path d="M7.99708 17.1702C8.83136 16.2475 9.66412 15.324 10.4954 14.3997C11.1367 13.6874 11.775 12.9729 12.4179 12.2644C12.607 12.0555 12.6817 11.8175 12.5986 11.5483C12.5835 11.5087 12.5819 11.4652 12.594 11.4245C12.6061 11.3838 12.6313 11.3483 12.6657 11.3234C13.9367 10.0524 15.2077 8.78139 16.4787 7.5104C16.513 7.47532 16.5549 7.44329 16.6198 7.38076C16.7639 7.54014 16.8943 7.69571 17.0361 7.83831C17.123 7.93275 17.2333 8.00257 17.3558 8.04073C17.4783 8.0789 17.6088 8.08404 17.7339 8.05565C17.9474 8.00532 18.0885 8.07243 18.2395 8.18529C18.3158 8.24096 18.392 8.29358 18.4683 8.34392C18.7909 8.55269 19.0537 8.84176 19.2309 9.18277C19.4391 9.57627 19.6579 9.96443 19.8738 10.3541C20.0065 10.592 20.2017 10.6248 20.3893 10.4304C20.8506 9.95147 20.8118 10.1055 20.7134 9.47713C20.7134 9.45654 20.7134 9.43519 20.7065 9.41536C20.5693 8.83198 20.4732 8.2341 20.2817 7.66902C20.1399 7.24806 19.8738 6.86982 19.6671 6.47022C19.633 6.41559 19.6175 6.35138 19.6229 6.28719C19.6691 6.12679 19.6696 5.95664 19.6241 5.79599C19.5787 5.63535 19.4893 5.49062 19.3659 5.37818C18.6663 4.67811 17.9673 3.97754 17.2687 3.27646C17.0514 3.05988 16.7891 2.94778 16.4787 3.00422C16.3488 3.03695 16.2214 3.07874 16.0974 3.12928C15.9845 3.00955 15.8633 2.87534 15.7344 2.74798C15.7039 2.72562 15.6828 2.6927 15.6751 2.65564C15.6675 2.61857 15.674 2.58 15.6932 2.54742C15.8381 2.19129 15.7969 1.85574 15.5353 1.56367C15.3935 1.40581 15.2463 1.25253 15.0938 1.10611C14.9413 0.959694 14.7956 0.971133 14.6492 1.10154C14.5684 1.17398 14.4967 1.25406 14.4204 1.33032L12.7427 3.0126C12.5368 3.2185 12.5376 3.34204 12.7427 3.55252C12.8266 3.63717 12.9135 3.71877 12.9944 3.80647C13.3536 4.18776 13.7692 4.2991 14.2374 4.07338C14.4029 4.23581 14.5608 4.39138 14.7201 4.54695C14.4914 4.95494 14.5425 5.35149 14.881 5.69084C15.0023 5.81133 15.1274 5.92725 15.2623 6.05536L14.5623 6.75619C13.4855 7.83348 12.4077 8.91027 11.3289 9.98655C11.3062 10.0099 11.2789 10.0282 11.2487 10.0402C11.2184 10.0521 11.186 10.0575 11.1535 10.0559C11.0188 10.0159 10.8757 10.0128 10.7394 10.047C10.6031 10.0812 10.4785 10.1515 10.3787 10.2504C8.74011 11.7314 7.09697 13.2111 5.44925 14.6895C5.32444 14.797 5.22316 14.9291 5.15175 15.0776C5.08035 15.2261 5.04035 15.3877 5.03426 15.5523C5.02818 15.717 5.05614 15.8811 5.11639 16.0344C5.17664 16.1878 5.26789 16.327 5.38443 16.4435C5.646 16.7165 5.91824 16.9826 6.18897 17.2434C6.75024 17.7788 7.47471 17.7475 7.99708 17.1702Z" fill="#FFDA00" stroke="black" stroke-width="0.686337" stroke-miterlimit="10"/>
<path d="M15.5354 1.56367C15.797 1.85574 15.8381 2.19129 15.6933 2.54742L14.2375 4.07338C13.7692 4.2991 13.3536 4.18776 12.9944 3.80647C12.9136 3.71877 12.8266 3.63717 12.7428 3.55252C12.5376 3.34204 12.5369 3.2185 12.7428 3.0126L14.4205 1.33032C14.4967 1.25406 14.5684 1.17398 14.6493 1.10154C14.7957 0.971133 14.9413 0.959694 15.0939 1.10611C15.2464 1.25253 15.3935 1.40581 15.5354 1.56367Z" fill="white" stroke="black" stroke-width="0.686337" stroke-miterlimit="10"/>
<path d="M14.2434 4.07489L15.7373 2.58096" stroke="black" stroke-width="0.686337" stroke-linecap="round" stroke-linejoin="round"/>
<path d="M10.4954 14.3997C9.66412 15.324 8.83137 16.2475 7.99708 17.1702C7.47471 17.7475 6.75024 17.7788 6.18897 17.2434C5.91824 16.9826 5.646 16.7165 5.38443 16.4435C5.26789 16.327 5.17664 16.1878 5.11639 16.0345C5.05614 15.8811 5.02818 15.717 5.03426 15.5524C5.04035 15.3877 5.08035 15.2261 5.15175 15.0776C5.22316 14.9292 5.32444 14.797 5.44925 14.6895C7.09697 13.2111 8.74011 11.7314 10.3787 10.2504C10.4785 10.1515 10.6031 10.0812 10.7394 10.047C10.8757 10.0128 11.0188 10.0159 11.1535 10.056L12.5986 11.5484C12.6817 11.8176 12.607 12.0555 12.4179 12.2645C11.775 12.9729 11.1367 13.6875 10.4954 14.3997Z" fill="white" stroke="black" stroke-width="0.686337" stroke-miterlimit="10"/>
</g>
<defs>
<filter id="filter0_d_73_113" x="0.201294" y="0.65683" width="24.9178" height="25.3113" filterUnits="userSpaceOnUse" color-interpolation-filters="sRGB">
<feFlood flood-opacity="0" result="BackgroundImageFix"/>
<feColorMatrix in="SourceAlpha" type="matrix" values="0 0 0 0 0 0 0 0 0 0 0 0 0 0 0 0 0 0 127 0" result="hardAlpha"/>
<feOffset dy="4"/>
<feGaussianBlur stdDeviation="2"/>
<feComposite in2="hardAlpha" operator="out"/>
<feColorMatrix type="matrix" values="0 0 0 0 0 0 0 0 0 0 0 0 0 0 0 0 0 0 0.25 0"/>
<feBlend mode="normal" in2="BackgroundImageFix" result="effect1_dropShadow_73_113"/>
<feBlend mode="normal" in="SourceGraphic" in2="effect1_dropShadow_73_113" result="shape"/>
</filter>
</defs>
</svg>
