<svg width="33" height="34" viewBox="0 0 33 34" fill="none" xmlns="http://www.w3.org/2000/svg">
<path d="M17.6763 14.5098L13.3661 10.2054C13.1812 10.0204 13.1147 9.87017 13.1985 9.60719C13.3981 8.95858 13.475 8.27845 13.4253 7.60164C13.3346 6.06026 12.658 4.61189 11.534 3.55321C10.4101 2.49452 8.92385 1.90566 7.3798 1.90722C7.3798 1.88121 4.1663 1.90722 5.28467 3.00391C5.35691 3.07471 5.4176 3.15852 5.48984 3.22932C6.18052 3.9171 6.87552 4.60054 7.5633 5.29122C8.15283 5.88219 8.15283 6.56852 7.5633 7.15516C7.22952 7.49183 6.89141 7.82416 6.55186 8.15505C5.95077 8.74458 5.28755 8.74313 4.69225 8.15505C4.16051 7.62476 3.63312 7.0887 3.10283 6.56564C2.88011 6.32914 2.64523 6.10439 2.39916 5.8923C2.08561 5.638 1.71571 5.76515 1.59289 6.15528C1.10421 7.62826 1.21957 9.23491 1.91367 10.623C3.23577 13.325 6.17185 14.6109 9.06891 13.7859C9.15307 13.7541 9.24514 13.7498 9.33187 13.7737C9.4186 13.7976 9.49551 13.8484 9.55151 13.9188C11.3817 15.7597 13.2197 17.5976 15.0653 19.4326C18.8539 23.2212 22.6401 27.0108 26.4238 30.8013C27.0596 31.4399 27.7994 31.7506 28.7025 31.6812C29.6792 31.6061 30.6849 30.7955 30.9479 29.8563C31.2585 28.7509 30.9725 27.8175 30.1647 27.0113C26.8414 23.6918 23.5181 20.3714 20.1948 17.05" fill="#FFDA00"/>
<path d="M17.6763 14.5098L13.3661 10.2054C13.1812 10.0204 13.1147 9.87017 13.1985 9.60719C13.3981 8.95858 13.475 8.27845 13.4253 7.60164C13.3346 6.06026 12.658 4.61189 11.534 3.55321C10.4101 2.49452 8.92385 1.90566 7.3798 1.90722C7.3798 1.88121 4.1663 1.90722 5.28467 3.00391C5.35691 3.07471 5.4176 3.15852 5.48984 3.22932C6.18052 3.9171 6.87552 4.60054 7.5633 5.29122C8.15283 5.88219 8.15283 6.56852 7.5633 7.15516C7.22952 7.49183 6.89141 7.82416 6.55186 8.15505C5.95077 8.74458 5.28755 8.74313 4.69225 8.15505C4.16051 7.62476 3.63312 7.0887 3.10283 6.56564C2.88011 6.32914 2.64523 6.10439 2.39916 5.8923C2.08561 5.638 1.71571 5.76515 1.59289 6.15528C1.10421 7.62826 1.21957 9.23491 1.91367 10.623C3.23577 13.325 6.17185 14.6109 9.06891 13.7859C9.15307 13.7541 9.24514 13.7498 9.33187 13.7737C9.4186 13.7976 9.49551 13.8484 9.55151 13.9188C11.3817 15.7597 13.2197 17.5976 15.0653 19.4326C18.8539 23.2212 22.6401 27.0108 26.4238 30.8013C27.0596 31.4399 27.7994 31.7506 28.7025 31.6812C29.6792 31.6061 30.6849 30.7955 30.9479 29.8563C31.2585 28.7509 30.9725 27.8175 30.1647 27.0113C26.8414 23.6918 23.5181 20.3714 20.1948 17.05" stroke="black" stroke-width="1.30043" stroke-miterlimit="10"/>
<path d="M7.8365 31.6383C9.41725 29.8899 10.9951 28.1401 12.5701 26.3889C13.7852 25.0393 14.9946 23.6855 16.2127 22.3431C16.571 21.9472 16.7126 21.4964 16.5552 20.9863C16.5265 20.9112 16.5234 20.8287 16.5464 20.7516C16.5694 20.6746 16.6172 20.6073 16.6823 20.5601C19.0905 18.1519 21.4987 15.7437 23.9069 13.3355C23.9719 13.269 24.0514 13.2083 24.1742 13.0899C24.4473 13.3918 24.6944 13.6866 24.9631 13.9568C25.1278 14.1357 25.3367 14.268 25.5689 14.3403C25.801 14.4126 26.0481 14.4224 26.2852 14.3686C26.6898 14.2732 26.9571 14.4004 27.2432 14.6142C27.3877 14.7197 27.5322 14.8194 27.6767 14.9148C28.288 15.3104 28.7859 15.8581 29.1216 16.5042C29.5161 17.2498 29.9308 17.9852 30.3397 18.7236C30.5911 19.1744 30.961 19.2365 31.3164 18.8681C32.1906 17.9607 32.1169 18.2526 31.9305 17.0619C31.9305 17.0229 31.9305 16.9825 31.9175 16.9449C31.6575 15.8395 31.4754 14.7067 31.1127 13.636C30.844 12.8384 30.3397 12.1218 29.9481 11.3646C29.8835 11.2611 29.854 11.1395 29.8643 11.0178C29.9519 10.7139 29.9528 10.3915 29.8667 10.0871C29.7807 9.78277 29.6112 9.50854 29.3774 9.29549C28.0519 7.96906 26.7274 6.64166 25.4038 5.31329C24.992 4.90294 24.495 4.69054 23.9069 4.79746C23.6608 4.85948 23.4194 4.93866 23.1844 5.03443C22.9706 4.80757 22.7408 4.55327 22.4967 4.31197C22.4388 4.26959 22.3988 4.20723 22.3844 4.137C22.37 4.06677 22.3822 3.99369 22.4186 3.93195C22.6932 3.25717 22.6151 2.62141 22.1195 2.06801C21.8508 1.76891 21.5719 1.47848 21.2829 1.20105C20.9939 0.92363 20.718 0.945304 20.4405 1.19239C20.2874 1.32965 20.1516 1.48137 20.0071 1.62586L16.8282 4.81335C16.4381 5.20348 16.4396 5.43756 16.8282 5.83635C16.9872 5.99674 17.1519 6.15135 17.3051 6.31752C17.9856 7.03998 18.7731 7.25093 19.6603 6.82324C19.9738 7.13101 20.2729 7.42577 20.5749 7.72053C20.1414 8.49356 20.2383 9.24492 20.8798 9.88791C21.1095 10.1162 21.3465 10.3358 21.6023 10.5786L20.2758 11.9065C18.2356 13.9477 16.1934 15.9879 14.1494 18.0271C14.1065 18.0714 14.0547 18.1061 13.9974 18.1287C13.9401 18.1514 13.8786 18.1616 13.817 18.1586C13.5618 18.0827 13.2908 18.0768 13.0325 18.1416C12.7742 18.2065 12.5381 18.3396 12.349 18.5271C9.24433 21.3331 6.13102 24.1367 3.00903 26.938C2.77254 27.1417 2.58065 27.3921 2.44535 27.6734C2.31006 27.9547 2.23427 28.2609 2.22274 28.5728C2.21121 28.8848 2.26419 29.1957 2.37835 29.4863C2.49251 29.7768 2.6654 30.0406 2.88621 30.2613C3.38182 30.7786 3.89765 31.2828 4.4106 31.777C5.47406 32.7913 6.84673 32.7321 7.8365 31.6383Z" fill="#FFDA00" stroke="black" stroke-width="1.30043" stroke-miterlimit="10"/>
<path d="M22.1196 2.06801C22.6152 2.62141 22.6932 3.25717 22.4187 3.93195L19.6603 6.82324C18.7732 7.25093 17.9857 7.03998 17.3051 6.31752C17.152 6.15135 16.9873 5.99674 16.8283 5.83635C16.4396 5.43756 16.4382 5.20348 16.8283 4.81335L20.0071 1.62586C20.1516 1.48137 20.2874 1.32965 20.4406 1.19239C20.718 0.945304 20.994 0.92363 21.283 1.20105C21.572 1.47848 21.8508 1.76891 22.1196 2.06801Z" fill="white" stroke="black" stroke-width="1.30043" stroke-miterlimit="10"/>
<path d="M19.6716 6.8262L22.5022 3.99561" stroke="black" stroke-width="1.30043" stroke-linecap="round" stroke-linejoin="round"/>
<path d="M12.5701 26.3891C10.9951 28.1403 9.41725 29.8901 7.8365 31.6385C6.84673 32.7323 5.47406 32.7915 4.4106 31.7772C3.89765 31.283 3.38182 30.7788 2.88621 30.2615C2.6654 30.0408 2.49251 29.777 2.37835 29.4865C2.26419 29.1959 2.21121 28.885 2.22274 28.573C2.23427 28.2611 2.31006 27.9549 2.44535 27.6736C2.58065 27.3923 2.77254 27.1419 3.00903 26.9382C6.13102 24.1369 9.24434 21.3333 12.349 18.5273C12.5381 18.3398 12.7742 18.2066 13.0325 18.1418C13.2908 18.077 13.5618 18.0829 13.817 18.1588L16.5552 20.9865C16.7127 21.4966 16.571 21.9474 16.2127 22.3433C14.9946 23.6856 13.7852 25.0395 12.5701 26.3891Z" fill="white" stroke="black" stroke-width="1.30043" stroke-miterlimit="10"/>
</svg>
