<svg width="35" height="35" viewBox="0 0 35 35" fill="none" xmlns="http://www.w3.org/2000/svg">
<path d="M10.7027 14.7073L17.5 7.91L24.3005 14.7102L28.2555 10.7552L17.5 0L6.748 10.752L10.7029 14.707L10.7027 14.7073ZM0 17.5L3.95514 13.5443L7.91 17.4992L3.95486 21.4543L0 17.5ZM10.7027 20.2931L17.5 27.09L24.3004 20.2899L28.2575 24.2428L28.2555 24.2449L17.5 35L6.748 24.248L6.7424 24.2424L10.7031 20.2927L10.7027 20.2931ZM27.09 17.5017L31.0451 13.5465L35 17.5014L31.045 21.4565L27.09 17.5017Z" fill="#F3BA2F"/>
<path d="M21.5113 17.4976H21.513L17.5 13.4844L14.5338 16.4497L14.1931 16.7906L13.4903 17.4936L13.4847 17.499L13.4903 17.5048L17.5 21.5151L21.5133 17.5018L21.5152 17.4996L21.5116 17.4976" fill="#F3BA2F"/>
</svg>
