<svg width="1206" height="430" viewBox="0 0 1206 430" fill="none" xmlns="http://www.w3.org/2000/svg">
<g opacity="0.15">
<path d="M154.828 7.77756C136.972 26.6559 76.0383 31.7601 57.1219 51.3888L43.7978 38.5972L46.1693 33.1241L27.7684 25.6999L36.1008 43.6763L41.9672 40.8107L55.1013 53.247L53.7008 54.7277C34.9694 74.5315 36.2227 133.081 14.6904 155.846C-2.46547 173.984 7.90772 164.685 7.90772 164.685L15.2751 157.452C40.4476 136.029 46.2563 72.2376 59.0357 58.7266L59.911 57.8012L96.9085 92.8331L95.7725 97.3708L107.632 109.302L109.303 104.569L117.632 112.631L119.645 110.503L111.131 102.265L116.132 100.685L103.738 88.9496L98.5716 91.0748L61.6566 55.7702C75.711 42.7649 134.605 35.5538 157.078 7.71554C157.353 7.88822 170.408 -8.69476 154.828 7.77756Z" fill="#B78300"/>
<path d="M256.995 101.436C275.375 119.806 278.798 180.857 297.898 200.307L284.744 213.273L279.339 210.752L271.41 228.941L289.609 221.107L286.907 215.164L299.7 202.378L301.142 203.819C320.422 223.088 378.983 223.449 401.147 245.6C418.805 263.249 409.796 252.624 409.796 252.624L402.768 245.06C382.047 219.306 318.44 211.743 305.286 198.596L304.385 197.695L340.423 161.677L344.928 162.938L357.18 151.412L352.495 149.611L360.784 141.507L358.712 139.436L350.243 147.72L348.802 142.677L336.729 154.743L338.711 159.966L302.403 195.895C289.79 181.487 284.204 122.417 256.995 99.1851C257.175 98.9149 240.958 85.408 256.995 101.436Z" fill="#B78300"/>
<path d="M926.644 248.707C945.014 230.328 1006.06 226.904 1025.51 207.804L1038.48 220.958L1035.96 226.363L1054.15 234.292L1046.32 216.093L1040.37 218.796L1027.59 206.002L1029.03 204.561C1048.3 185.28 1048.66 126.719 1070.81 104.556C1088.46 86.897 1077.83 95.9065 1077.83 95.9065L1070.27 102.934C1044.51 123.656 1036.95 187.262 1023.8 200.416L1022.9 201.317L986.885 165.279L988.146 160.775L976.62 148.522L974.819 153.207L966.715 144.918L964.644 146.99L972.928 155.459L967.885 156.901L979.951 168.973L985.174 166.991L1021.1 203.299C1006.7 215.912 947.625 221.498 924.393 248.707C924.123 248.527 910.616 264.744 926.644 248.707Z" fill="#B78300"/>
<path d="M107.467 258.91C117.051 249.321 148.904 247.535 159.051 237.57L165.817 244.432L164.501 247.253L173.991 251.389L169.904 241.894L166.803 243.304L160.132 236.629L160.884 235.877C170.938 225.818 171.125 195.264 182.683 183.701C191.891 174.488 186.347 179.188 186.347 179.188L182.401 182.855C168.964 193.666 165.018 226.852 158.159 233.715L157.689 234.185L138.897 215.383L139.555 213.032L133.541 206.64L132.601 209.084L128.373 204.759L127.293 205.841L131.615 210.259L128.984 211.011L135.279 217.31L138.004 216.276L156.749 235.219C149.233 241.8 118.413 244.714 106.292 258.91C106.151 258.816 99.1043 267.277 107.467 258.91Z" fill="#B78300"/>
<path d="M1124.27 167.774C1133.86 177.359 1135.64 209.211 1145.61 219.359L1138.74 226.124L1135.92 224.809L1131.79 234.299L1141.28 230.212L1139.87 227.111L1146.55 220.44L1147.3 221.191C1157.36 231.245 1187.91 231.433 1199.48 242.99C1208.69 252.198 1203.99 246.655 1203.99 246.655L1200.32 242.708C1189.51 229.272 1156.32 225.326 1149.46 218.466L1148.99 217.997L1167.79 199.204L1170.14 199.862L1176.54 193.849L1174.09 192.909L1178.42 188.681L1177.34 187.6L1172.92 191.922L1172.17 189.292L1165.87 195.587L1166.9 198.312L1147.96 217.057C1141.38 209.54 1138.46 178.721 1124.27 166.6C1124.36 166.459 1115.9 159.412 1124.27 167.774Z" fill="#B78300"/>
<path d="M985.225 348.997C975.641 358.586 943.788 360.372 933.64 370.338L926.875 363.475L928.19 360.654L918.7 356.518L922.787 366.013L925.888 364.603L932.559 371.278L931.808 372.03C921.754 382.089 921.566 412.643 910.009 424.206C900.801 433.42 906.344 428.719 906.344 428.719L910.291 425.052C923.727 414.241 927.673 381.055 934.533 374.192L935.002 373.722L953.795 392.524L953.137 394.875L959.15 401.268L960.09 398.823L964.318 403.148L965.399 402.067L961.077 397.648L963.707 396.896L957.412 390.597L954.687 391.631L935.942 372.688C943.459 366.107 974.278 363.193 986.399 348.997C986.54 349.091 993.587 340.63 985.225 348.997Z" fill="#B78300"/>
</g>
</svg>
