<svg width="18" height="19" viewBox="0 0 18 19" fill="none" xmlns="http://www.w3.org/2000/svg">
<path d="M12.8454 0.0839844H5.08221C2.5556 0.0839844 0.500122 2.31214 0.500122 5.05099V13.4665C0.500122 16.2052 2.5556 18.4333 5.08221 18.4333H12.8455C15.372 18.4333 17.4275 16.2052 17.4275 13.4665V5.05099C17.4275 2.31214 15.372 0.0839844 12.8454 0.0839844V0.0839844ZM8.96381 14.2759C6.41163 14.2759 4.33536 12.0252 4.33536 9.25867C4.33536 6.49209 6.41163 4.2414 8.96381 4.2414C11.516 4.2414 13.5923 6.49209 13.5923 9.25867C13.5923 12.0252 11.516 14.2759 8.96381 14.2759ZM13.7029 5.42464C12.9487 5.42464 12.3353 4.75966 12.3353 3.94209C12.3353 3.12453 12.9487 2.45941 13.7029 2.45941C14.4571 2.45941 15.0707 3.12453 15.0707 3.94209C15.0707 4.75966 14.4571 5.42464 13.7029 5.42464Z" fill="white"/>
<path d="M8.96368 5.31689C6.95885 5.31689 5.32764 7.08503 5.32764 9.25845C5.32764 11.4317 6.95885 13.2 8.96368 13.2C10.9686 13.2 12.5997 11.4317 12.5997 9.25845C12.5997 7.08503 10.9686 5.31689 8.96368 5.31689Z" fill="white"/>
</svg>
