<svg width="29" height="29" viewBox="0 0 29 29" fill="none" xmlns="http://www.w3.org/2000/svg">
<g filter="url(#filter0_d_73_106)">
<path d="M17.4045 5.12084C17.4045 2.84496 15.5596 1 13.2837 1C11.0078 1 9.16284 2.84496 9.16284 5.12084C9.16284 7.39672 11.0078 9.24169 13.2837 9.24169C15.5596 9.24169 17.4045 7.39672 17.4045 5.12084Z" fill="#FFDA00" stroke="black" stroke-width="0.718195" stroke-miterlimit="10"/>
<path d="M13.284 9.24167C9.37381 9.24167 5 12.4105 5 16.3191C5 16.6279 5.12266 16.924 5.34101 17.1423C5.55935 17.3607 5.85549 17.4834 6.16427 17.4834H20.3191C20.472 17.4834 20.6234 17.4532 20.7647 17.3947C20.9059 17.3362 21.0343 17.2505 21.1424 17.1423C21.2505 17.0342 21.3362 16.9059 21.3948 16.7646C21.4533 16.6234 21.4834 16.472 21.4834 16.3191C21.4834 12.4105 17.1926 9.24167 13.284 9.24167Z" fill="#FFDA00" stroke="black" stroke-width="0.718195" stroke-miterlimit="10"/>
<path d="M19.0998 11.3851C18.9591 11.3831 18.8208 11.421 18.7008 11.4944C18.5412 11.5925 18.4398 11.7458 18.3369 11.8934C18.2201 12.0706 18.0409 12.1974 17.835 12.2485C17.6953 12.2815 17.5538 12.3065 17.4112 12.3235C17.2318 12.3419 17.0637 12.4198 16.9335 12.5447C16.8034 12.6696 16.7188 12.8344 16.693 13.013C16.6803 13.0928 16.6747 13.1798 16.6667 13.2628C16.658 13.3842 16.6246 13.5025 16.5685 13.6105C16.5123 13.7185 16.4347 13.8139 16.3403 13.8908L16.069 14.1118C15.923 14.2225 15.8186 14.3793 15.7728 14.5567C15.7271 14.7342 15.7426 14.9218 15.8168 15.0894C15.8432 15.1532 15.8767 15.2138 15.9062 15.2753C16.0058 15.4696 16.0267 15.6948 15.9645 15.9041C15.9238 16.0414 15.8647 16.1738 15.8192 16.3095C15.7235 16.5976 15.7179 16.8817 15.9214 17.1258C16.0209 17.2333 16.1338 17.3274 16.2573 17.4059C16.3605 17.4758 16.4482 17.5662 16.5148 17.6715C16.5814 17.7769 16.6255 17.8948 16.6444 18.018C16.6619 18.1241 16.6795 18.2303 16.6962 18.3372C16.7641 18.7745 17.0665 19.0482 17.5086 19.0666C17.7855 19.0785 18.0353 19.1512 18.2268 19.3634C18.317 19.4632 18.3936 19.5749 18.4829 19.6754C18.7223 19.9444 19.0064 20.0704 19.3607 19.9563C19.4629 19.9236 19.561 19.8765 19.66 19.8342C19.877 19.7329 20.1252 19.7209 20.351 19.8007C20.4604 19.8406 20.5665 19.8909 20.6766 19.9292C20.9519 20.0234 21.224 20.0242 21.4595 19.8334C21.5729 19.7316 21.6764 19.6191 21.7683 19.4975C21.9031 19.3379 22.0444 19.1839 22.2535 19.128C22.3809 19.0973 22.5106 19.0771 22.6413 19.0674C22.8534 19.0552 23.053 18.9631 23.1999 18.8096C23.3391 18.6461 23.4229 18.4428 23.4393 18.2287C23.472 17.9837 23.5079 17.7379 23.6946 17.5536C23.7837 17.4697 23.8798 17.3936 23.9819 17.3261C24.2508 17.1394 24.3937 16.8904 24.3514 16.5617C24.3318 16.4194 24.2917 16.2807 24.2325 16.1499C24.1568 15.9901 24.1211 15.8142 24.1285 15.6375C24.1358 15.4609 24.186 15.2886 24.2748 15.1356C24.3575 14.9941 24.3915 14.8293 24.3716 14.6666C24.3518 14.5039 24.279 14.3522 24.1647 14.2347C24.0702 14.1349 23.9671 14.0435 23.8566 13.9618C23.6899 13.8285 23.5454 13.6777 23.4911 13.4646C23.4642 13.3511 23.4469 13.2355 23.4393 13.1191C23.4336 12.9173 23.3542 12.7246 23.2159 12.5775C23.0776 12.4305 22.8902 12.3392 22.6892 12.3211C22.5203 12.3001 22.3534 12.2648 22.1904 12.2158C21.9566 12.136 21.8146 11.9508 21.6837 11.7521C21.5137 11.4928 21.2735 11.3452 20.9583 11.3779C20.8129 11.3954 20.6717 11.4381 20.541 11.504C20.395 11.5814 20.2323 11.6222 20.067 11.6229C19.9018 11.6236 19.7388 11.5842 19.5921 11.508C19.4395 11.43 19.2711 11.3879 19.0998 11.3851Z" fill="#FFDA00" stroke="black" stroke-width="0.718195" stroke-miterlimit="10"/>
<path d="M19.0996 11.3851C19.2712 11.389 19.4396 11.4321 19.592 11.5112C19.7386 11.5874 19.9016 11.6269 20.0669 11.6262C20.2321 11.6255 20.3948 11.5846 20.5408 11.5072C20.6715 11.4413 20.8128 11.3986 20.9581 11.3811C21.2773 11.3484 21.5167 11.496 21.6835 11.7554C21.8144 11.9541 21.9564 12.1432 22.1902 12.219C22.3532 12.2681 22.5201 12.3033 22.689 12.3243C22.89 12.3424 23.0775 12.4337 23.2157 12.5808C23.354 12.7279 23.4335 12.9206 23.4391 13.1223C23.4467 13.2388 23.4641 13.3544 23.491 13.4679C23.5452 13.6809 23.6897 13.8318 23.8565 13.965C23.9669 14.0468 24.07 14.1381 24.1645 14.2379C24.2781 14.3552 24.3504 14.5063 24.3703 14.6683C24.3901 14.8304 24.3566 14.9945 24.2746 15.1357C24.1855 15.2888 24.135 15.4613 24.1275 15.6383C24.12 15.8153 24.1557 15.9914 24.2315 16.1515C24.2907 16.2824 24.3308 16.421 24.3504 16.5633C24.3927 16.8921 24.2499 17.141 23.9809 17.3278C23.8789 17.3952 23.7828 17.4713 23.6937 17.5552C23.5069 17.7395 23.471 17.9853 23.4383 18.2303C23.4219 18.4444 23.3381 18.6478 23.1989 18.8113C23.052 18.9648 22.8524 19.0569 22.6403 19.069C22.5096 19.0787 22.3799 19.099 22.2525 19.1296C22.0434 19.1855 21.9022 19.3387 21.7673 19.4991C21.6754 19.6208 21.572 19.7333 21.4585 19.8351C21.2191 20.0258 20.951 20.025 20.6756 19.9308C20.5655 19.8925 20.4594 19.8423 20.3501 19.8024C20.1242 19.7225 19.8761 19.7346 19.659 19.8359C19.56 19.8782 19.4619 19.9253 19.3598 19.958C19.0015 20.0721 18.715 19.946 18.482 19.6771C18.3926 19.5765 18.316 19.4648 18.2258 19.3651C18.0343 19.1528 17.7845 19.0802 17.5076 19.0682C17.0655 19.0499 16.7631 18.7761 16.6952 18.3388C16.6785 18.2319 16.6609 18.1258 16.6434 18.0196C16.6245 17.8965 16.5804 17.7785 16.5138 17.6732C16.4472 17.5678 16.3596 17.4774 16.2564 17.4076C16.1328 17.329 16.0199 17.2349 15.9204 17.1275C15.7169 16.8833 15.7225 16.5992 15.8183 16.3111C15.8637 16.1755 15.9228 16.043 15.9635 15.9058C16.0257 15.6965 16.0049 15.4712 15.9052 15.2769C15.8757 15.2155 15.8422 15.1548 15.8159 15.091C15.7416 14.9235 15.7261 14.7358 15.7719 14.5584C15.8176 14.3809 15.922 14.2242 16.068 14.1135L16.3393 13.8924C16.4337 13.8155 16.5113 13.7202 16.5675 13.6121C16.6236 13.5041 16.657 13.3858 16.6657 13.2644C16.6737 13.1846 16.6793 13.0976 16.6921 13.0146C16.7178 12.8361 16.8024 12.6713 16.9326 12.5464C17.0627 12.4214 17.2308 12.3436 17.4103 12.3251C17.5528 12.3082 17.6943 12.2831 17.834 12.2501C18.04 12.199 18.2191 12.0722 18.3359 11.895C18.4389 11.7442 18.5378 11.591 18.6998 11.496C18.8199 11.422 18.9585 11.3835 19.0996 11.3851Z" fill="white" stroke="black" stroke-width="0.718195" stroke-miterlimit="10"/>
<path d="M18.6012 15.8355L19.6482 16.8817" stroke="black" stroke-width="0.718195" stroke-miterlimit="10" stroke-linecap="round"/>
<path d="M21.7419 14.7877L19.6488 16.8808" stroke="black" stroke-width="0.718195" stroke-miterlimit="10" stroke-linecap="round"/>
</g>
<defs>
<filter id="filter0_d_73_106" x="0.640869" y="0.6409" width="28.0955" height="27.7182" filterUnits="userSpaceOnUse" color-interpolation-filters="sRGB">
<feFlood flood-opacity="0" result="BackgroundImageFix"/>
<feColorMatrix in="SourceAlpha" type="matrix" values="0 0 0 0 0 0 0 0 0 0 0 0 0 0 0 0 0 0 127 0" result="hardAlpha"/>
<feOffset dy="4"/>
<feGaussianBlur stdDeviation="2"/>
<feComposite in2="hardAlpha" operator="out"/>
<feColorMatrix type="matrix" values="0 0 0 0 0 0 0 0 0 0 0 0 0 0 0 0 0 0 0.25 0"/>
<feBlend mode="normal" in2="BackgroundImageFix" result="effect1_dropShadow_73_106"/>
<feBlend mode="normal" in="SourceGraphic" in2="effect1_dropShadow_73_106" result="shape"/>
</filter>
</defs>
</svg>
