<svg width="39" height="38" viewBox="0 0 39 38" fill="none" xmlns="http://www.w3.org/2000/svg">
<path d="M24.5033 8.80792C24.5033 4.49572 21.0076 1 16.6954 1C12.3832 1 8.88745 4.49572 8.88745 8.80792C8.88745 13.1201 12.3832 16.6158 16.6954 16.6158C21.0076 16.6158 24.5033 13.1201 24.5033 8.80792Z" fill="#FFDA00" stroke="black" stroke-width="1.36079" stroke-miterlimit="10"/>
<path d="M16.696 16.6157C9.28722 16.6157 1 22.6198 1 30.0256C1 30.6106 1.23242 31.1717 1.64612 31.5854C2.05983 31.9991 2.62093 32.2316 3.20599 32.2316H30.0257C30.3154 32.2316 30.6022 32.1745 30.8699 32.0636C31.1375 31.9528 31.3807 31.7903 31.5855 31.5854C31.7904 31.3806 31.9529 31.1374 32.0637 30.8698C32.1746 30.6021 32.2317 30.3153 32.2317 30.0256C32.2317 22.6198 24.1017 16.6157 16.696 16.6157Z" fill="#FFDA00" stroke="black" stroke-width="1.36079" stroke-miterlimit="10"/>
<path d="M27.7153 20.6774C27.4488 20.6737 27.1867 20.7456 26.9593 20.8846C26.6569 21.0705 26.4649 21.3608 26.2698 21.6406C26.0486 21.9763 25.7091 22.2165 25.3188 22.3134C25.0541 22.3759 24.786 22.4234 24.5159 22.4555C24.176 22.4904 23.8574 22.638 23.6109 22.8746C23.3643 23.1113 23.2039 23.4236 23.1551 23.7619C23.131 23.9131 23.1204 24.0779 23.1052 24.2351C23.0888 24.4652 23.0254 24.6894 22.9191 24.894C22.8127 25.0987 22.6656 25.2794 22.4868 25.4251L21.9728 25.8439C21.6961 26.0536 21.4984 26.3507 21.4116 26.6869C21.3249 27.023 21.3543 27.3787 21.495 27.6961C21.5449 27.817 21.6084 27.9319 21.6643 28.0484C21.8531 28.4165 21.8926 28.8433 21.7747 29.2398C21.6976 29.4999 21.5857 29.7509 21.4995 30.0079C21.3181 30.5537 21.3075 31.092 21.693 31.5547C21.8815 31.7582 22.0955 31.9366 22.3296 32.0854C22.5251 32.2177 22.6912 32.389 22.8174 32.5886C22.9436 32.7882 23.0272 33.0117 23.0629 33.2451C23.0962 33.4462 23.1294 33.6473 23.1612 33.8499C23.2897 34.6784 23.8628 35.1971 24.7004 35.2318C25.2251 35.2545 25.6983 35.3921 26.0612 35.7943C26.232 35.9833 26.3772 36.195 26.5465 36.3855C27.0001 36.895 27.5384 37.1339 28.2097 36.9177C28.4033 36.8557 28.5892 36.7665 28.7767 36.6864C29.188 36.4944 29.6582 36.4716 30.0861 36.6229C30.2932 36.6985 30.4943 36.7937 30.703 36.8663C31.2246 37.0447 31.7402 37.0462 32.1863 36.6849C32.4013 36.4919 32.5972 36.2788 32.7714 36.0483C33.0269 35.7459 33.2945 35.4541 33.6907 35.3483C33.9321 35.2901 34.1779 35.2517 34.4255 35.2333C34.8274 35.2103 35.2056 35.0358 35.4839 34.745C35.7476 34.4352 35.9064 34.0499 35.9375 33.6442C35.9995 33.1801 36.0675 32.7144 36.4213 32.3651C36.5901 32.2062 36.7722 32.062 36.9657 31.9342C37.4752 31.5804 37.7458 31.1086 37.6657 30.4857C37.6285 30.2162 37.5526 29.9534 37.4404 29.7055C37.297 29.4027 37.2294 29.0695 37.2433 28.7347C37.2573 28.4 37.3524 28.0736 37.5206 27.7838C37.6773 27.5156 37.7418 27.2034 37.7041 26.8951C37.6664 26.5867 37.5286 26.2993 37.3119 26.0767C37.1329 25.8876 36.9376 25.7145 36.7283 25.5596C36.4123 25.3071 36.1386 25.0214 36.0358 24.6177C35.9848 24.4026 35.9519 24.1836 35.9375 23.963C35.9268 23.5806 35.7762 23.2155 35.5143 22.9368C35.2523 22.6581 34.8972 22.4853 34.5162 22.451C34.1962 22.4111 33.8801 22.3443 33.5712 22.2514C33.1282 22.1002 32.8591 21.7494 32.6111 21.3729C32.2891 20.8815 31.834 20.6018 31.2367 20.6638C30.9613 20.697 30.6937 20.7778 30.446 20.9027C30.1693 21.0494 29.8612 21.1268 29.548 21.1281C29.2349 21.1294 28.9261 21.0547 28.6482 20.9103C28.3591 20.7625 28.04 20.6829 27.7153 20.6774Z" fill="#FFDA00" stroke="black" stroke-width="1.36079" stroke-miterlimit="10"/>
<path d="M27.715 20.6767C28.0401 20.6841 28.3592 20.7658 28.6479 20.9156C28.9258 21.06 29.2345 21.1348 29.5477 21.1335C29.8608 21.1321 30.169 21.0548 30.4456 20.9081C30.6934 20.7832 30.961 20.7024 31.2364 20.6692C31.8412 20.6072 32.2948 20.8869 32.6108 21.3783C32.8588 21.7548 33.1279 22.1131 33.5709 22.2568C33.8798 22.3497 34.1959 22.4165 34.5159 22.4563C34.8969 22.4906 35.252 22.6635 35.5139 22.9422C35.7759 23.2209 35.9265 23.586 35.9372 23.9683C35.9516 24.1889 35.9845 24.4079 36.0355 24.623C36.1383 25.0267 36.412 25.3125 36.728 25.565C36.9373 25.7199 37.1326 25.8929 37.3116 26.0821C37.5269 26.3042 37.6638 26.5905 37.7015 26.8976C37.7392 27.2046 37.6755 27.5155 37.5202 27.7831C37.3514 28.0732 37.2557 28.4 37.2415 28.7354C37.2272 29.0707 37.2949 29.4045 37.4386 29.7079C37.5508 29.9557 37.6267 30.2185 37.6639 30.488C37.744 31.111 37.4734 31.5827 36.9638 31.9365C36.7704 32.0644 36.5883 32.2085 36.4195 32.3674C36.0657 32.7167 35.9977 33.1824 35.9357 33.6466C35.9046 34.0522 35.7458 34.4376 35.4821 34.7473C35.2038 35.0382 34.8256 35.2127 34.4237 35.2357C34.176 35.2541 33.9303 35.2925 33.6889 35.3506C33.2927 35.4564 33.0251 35.7467 32.7696 36.0507C32.5954 36.2811 32.3994 36.4943 32.1844 36.6872C31.7308 37.0486 31.2228 37.0471 30.7012 36.8686C30.4925 36.7961 30.2914 36.7008 30.0843 36.6252C29.6564 36.4739 29.1862 36.4967 28.7749 36.6887C28.5874 36.7689 28.4014 36.8581 28.2079 36.92C27.529 37.1363 26.9862 36.8974 26.5447 36.3878C26.3754 36.1973 26.2302 35.9856 26.0594 35.7966C25.6965 35.3944 25.2232 35.2569 24.6986 35.2342C23.8609 35.1994 23.2879 34.6808 23.1594 33.8522C23.1276 33.6496 23.0943 33.4485 23.0611 33.2474C23.0254 33.014 22.9418 32.7905 22.8156 32.5909C22.6894 32.3914 22.5233 32.2201 22.3278 32.0877C22.0937 31.9389 21.8797 31.7605 21.6912 31.557C21.3057 31.0943 21.3162 30.5561 21.4977 30.0103C21.5839 29.7532 21.6958 29.5022 21.7729 29.2422C21.8908 28.8456 21.8513 28.4189 21.6625 28.0507C21.6065 27.9343 21.543 27.8194 21.4931 27.6984C21.3524 27.381 21.3231 27.0254 21.4098 26.6892C21.4965 26.353 21.6943 26.056 21.9709 25.8462L22.485 25.4274C22.6638 25.2817 22.8109 25.101 22.9173 24.8964C23.0236 24.6917 23.087 24.4675 23.1034 24.2375C23.1185 24.0863 23.1291 23.9215 23.1533 23.7642C23.2021 23.426 23.3625 23.1137 23.609 22.877C23.8556 22.6403 24.1741 22.4928 24.5141 22.4579C24.7842 22.4257 25.0522 22.3783 25.317 22.3157C25.7072 22.2188 26.0467 21.9786 26.268 21.6429C26.4631 21.3571 26.6505 21.0668 26.9575 20.8869C27.185 20.7466 27.4477 20.6737 27.715 20.6767Z" fill="white" stroke="black" stroke-width="1.36079" stroke-miterlimit="10"/>
<path d="M26.7706 29.1094L28.7544 31.0916" stroke="black" stroke-width="1.36079" stroke-miterlimit="10" stroke-linecap="round"/>
<path d="M32.7216 27.124L28.7556 31.09" stroke="black" stroke-width="1.36079" stroke-miterlimit="10" stroke-linecap="round"/>
</svg>
