<svg width="18" height="18" viewBox="0 0 18 18" fill="none" xmlns="http://www.w3.org/2000/svg">
<path d="M17.4632 10.9145C17.4632 10.3332 17.2505 9.7907 16.87 9.38013C16.9015 9.23203 16.9175 9.08069 16.9175 8.92782C16.9175 7.75788 16.0237 6.80618 14.9249 6.80618H12.5856C12.5961 6.76978 12.6073 6.74195 12.6159 6.72613C12.9782 6.0693 13.9406 4.12244 13.9406 2.75789V2.73883C13.9406 1.48292 13.0415 0.0497483 11.7513 0.00171543L11.6979 0C10.9284 0 10.4313 0.623284 10.4313 1.58756V1.81362C10.4313 3.0844 9.78918 3.87313 9.04562 4.55207C8.80241 4.77393 8.551 5.00362 8.32284 5.26074C8.09221 5.51978 7.85909 5.91891 7.5892 6.38056C7.098 7.22151 6.4589 8.31121 5.69685 8.73264C5.55752 8.02549 4.93443 7.4897 4.18668 7.4897H1.84946C0.999733 7.48951 0.308594 8.18103 0.308594 9.03056V15.5388C0.308594 16.3886 0.999543 17.0797 1.84946 17.0797H4.18668C4.87038 17.0797 5.45059 16.6314 5.65149 16.014C6.42688 16.3809 7.7819 16.8289 9.78403 16.8289H14.3142C15.3648 16.8289 16.2193 15.921 16.2193 14.805C16.2193 14.7362 16.2157 14.667 16.2086 14.5982C16.6575 14.1975 16.9175 13.6219 16.9175 12.9994C16.9175 12.8194 16.8944 12.638 16.8492 12.4628C17.2387 12.0486 17.4632 11.4928 17.4632 10.9145ZM3.79631 15.8146C3.39128 15.8146 3.06267 15.486 3.06267 15.0806C3.06267 14.6754 3.39147 14.3468 3.79631 14.3468C4.20154 14.3468 4.52996 14.6754 4.52996 15.0806C4.52996 15.486 4.20154 15.8146 3.79631 15.8146ZM15.945 11.898L15.6101 12.1474L15.7859 12.5261C15.8539 12.6732 15.8901 12.837 15.8901 12.9994C15.8901 13.3836 15.6926 13.7456 15.374 13.9446L15.0476 14.1485L15.1521 14.5193C15.1786 14.6129 15.1919 14.7089 15.1919 14.8048C15.1919 15.3541 14.7981 15.8013 14.3142 15.8013H9.78403C7.48474 15.8013 6.15946 15.154 5.69399 14.8738H5.66369L5.69418 9.84617C6.97449 9.46686 7.83184 8.0011 8.47628 6.89882C8.70844 6.50159 8.92745 6.1261 9.0906 5.94292C9.28369 5.72601 9.50441 5.52435 9.73829 5.31068C10.5446 4.57437 11.4587 3.53766 11.4587 1.81362V1.58756C11.4587 1.45738 11.4755 1.03576 11.6911 1.02756L11.713 1.02832C12.3891 1.05329 12.9134 1.96839 12.9134 2.73864V2.7577C12.9134 3.85769 12.0122 5.69304 11.7114 6.23856C11.598 6.44422 11.5306 6.73051 11.5306 7.01833C11.5306 7.46759 11.8906 7.83336 12.3334 7.83336H14.9247C15.4569 7.83336 15.8899 8.32436 15.8899 8.92782C15.8899 9.07269 15.8625 9.21507 15.8085 9.35059L15.666 9.70988L15.9715 9.94624C16.2666 10.175 16.4358 10.528 16.4358 10.9145C16.4358 11.3013 16.2523 11.6691 15.945 11.898Z" fill="#876C25"/>
</svg>
