<svg width="16" height="16" viewBox="0 0 16 16" fill="none" xmlns="http://www.w3.org/2000/svg">
<path d="M15.7075 8.54601C15.8756 8.38626 16.0227 8.11357 15.9948 7.44873C15.9667 6.78388 15.0664 6.17877 14.448 6.17877C13.7409 6.17877 12.8483 6.17709 12.3289 6.17709C11.9312 6.17709 11.5888 6.15749 11.5888 5.73827C11.5888 5.39916 11.9931 5.05762 12.3131 4.57623C12.6908 4.00775 13.0164 3.44915 13.0164 2.45188C13.0164 1.72912 12.5755 0.457031 11.6201 0.457031C10.7414 0.457031 10.7172 1.75253 10.3916 2.50174C9.91933 3.58884 8.57533 4.25703 8.11341 4.92522C7.81181 5.36146 6.53021 7.56835 6.20269 7.56835C5.98941 7.56835 5.68029 7.56835 5.41309 7.56835V7.7354C5.41549 7.75729 5.41933 7.77872 5.41933 7.80122V13.9451C5.41933 13.9721 5.41661 13.9984 5.41309 14.0244V14.0743C5.56269 14.0803 5.68445 14.0975 5.72685 14.1378C5.83885 14.2442 6.09789 14.5234 6.65773 14.5234C7.21773 14.5234 13.202 14.5234 13.8179 14.5234C15.0356 14.5234 15.2947 13.393 15.0987 12.9809C15.014 12.8028 14.9657 12.6748 15.1409 12.5885C15.5462 12.3881 15.7288 11.591 15.5116 11.2054C15.3848 10.9798 15.3646 10.8464 15.5396 10.7C15.9379 10.3668 16.1417 9.57612 15.7006 9.0578C15.5492 8.87996 15.5396 8.70531 15.7075 8.54601Z" fill="#B78300"/>
<path d="M0.00683594 6.86536V15.2H4.99356V6.86536H0.00683594ZM2.50012 14.1106C2.01404 14.1106 1.62012 13.7362 1.62012 13.2746C1.62012 12.813 2.01404 12.4386 2.50012 12.4386C2.9862 12.4386 3.38012 12.813 3.38012 13.2746C3.38012 13.7362 2.9862 14.1106 2.50012 14.1106Z" fill="#B78300"/>
</svg>
