<svg width="324" height="387" viewBox="0 0 324 387" fill="none" xmlns="http://www.w3.org/2000/svg">
<g opacity="0.1">
<path d="M219.589 211.943C216.855 207.223 212.363 203.778 207.097 202.366C201.832 200.953 196.224 201.688 191.504 204.409C186.792 207.138 183.355 211.627 181.948 216.891C180.541 222.156 181.279 227.766 183.999 232.492C186.49 236.792 190.45 240.048 195.149 241.658C199.849 243.269 204.969 243.125 209.567 241.254L214.869 250.437C214.537 251.145 214.381 251.922 214.413 252.704C214.445 253.485 214.665 254.247 215.053 254.926L224.022 270.46C224.668 271.579 225.731 272.396 226.978 272.731C228.225 273.065 229.553 272.891 230.67 272.246C231.787 271.601 232.602 270.538 232.935 269.291C233.269 268.044 233.093 266.715 232.447 265.596L223.479 250.062C223.088 249.383 222.538 248.81 221.877 248.391C221.216 247.972 220.463 247.721 219.683 247.657L214.381 238.474C218.304 235.43 220.993 231.066 221.95 226.19C222.907 221.313 222.069 216.253 219.589 211.943ZM188.813 229.712C186.831 226.265 186.295 222.174 187.321 218.335C188.347 214.496 190.852 211.222 194.287 209.23C197.73 207.246 201.821 206.71 205.661 207.74C209.502 208.77 212.779 211.281 214.775 214.723C216.762 218.173 217.301 222.269 216.274 226.112C215.247 229.956 212.737 233.233 209.295 235.224C205.85 237.205 201.76 237.737 197.92 236.703C194.081 235.67 190.806 233.156 188.813 229.712Z" fill="#AB882E"/>
<path d="M276.014 44.6981C279.983 40.9557 282.307 35.7937 282.476 30.3448C282.645 24.8959 280.645 19.6053 276.916 15.634C273.18 11.6719 268.023 9.35498 262.577 9.19113C257.13 9.02728 251.838 11.0299 247.861 14.7599C244.245 18.17 241.983 22.7709 241.492 27.7139C241 32.6569 242.313 37.6086 245.187 41.6555L237.463 48.9198C236.698 48.7589 235.905 48.7847 235.152 48.9949C234.399 49.2052 233.707 49.5937 233.135 50.1276L220.068 62.4158C219.127 63.3007 218.576 64.5227 218.535 65.813C218.495 67.1033 218.969 68.3561 219.852 69.2959C220.736 70.2358 221.958 70.7856 223.248 70.8244C224.538 70.8632 225.792 70.3878 226.733 69.5029L239.8 57.2147C240.371 56.679 240.803 56.0126 241.059 55.273C241.316 54.5335 241.388 53.743 241.271 52.9696L248.996 45.7053C252.858 48.8268 257.721 50.4442 262.687 50.2591C267.653 50.074 272.387 48.0988 276.014 44.6981ZM251.669 18.8097C254.571 16.091 258.43 14.6317 262.402 14.7511C266.374 14.8706 270.135 16.5593 272.861 19.4472C275.58 22.3445 277.039 26.2033 276.916 30.1775C276.793 34.1518 275.099 37.9173 272.206 40.6483C269.303 43.3729 265.439 44.836 261.463 44.7163C257.486 44.5967 253.721 42.9041 250.994 40.0102C248.278 37.1104 246.823 33.2502 246.949 29.2761C247.076 25.3019 248.773 21.538 251.669 18.8097Z" fill="#AB882E"/>
<path d="M304.171 290.036C308.139 286.294 310.463 281.132 310.632 275.683C310.801 270.234 308.802 264.943 305.072 260.972C301.336 257.01 296.179 254.693 290.733 254.529C285.286 254.365 279.994 256.368 276.017 260.098C272.401 263.508 270.139 268.109 269.648 273.052C269.156 277.995 270.469 282.946 273.344 286.993L265.619 294.258C264.854 294.097 264.062 294.123 263.308 294.333C262.555 294.543 261.863 294.932 261.292 295.465L248.224 307.754C247.283 308.639 246.732 309.861 246.692 311.151C246.651 312.441 247.125 313.694 248.009 314.634C248.892 315.574 250.114 316.123 251.404 316.162C252.695 316.201 253.948 315.726 254.889 314.841L267.956 302.553C268.527 302.017 268.959 301.35 269.216 300.611C269.472 299.871 269.545 299.081 269.427 298.307L277.152 291.043C281.014 294.165 285.877 295.782 290.843 295.597C295.809 295.412 300.543 293.437 304.171 290.036ZM279.825 264.148C282.727 261.429 286.586 259.97 290.558 260.089C294.53 260.209 298.291 261.897 301.017 264.785C303.737 267.682 305.195 271.541 305.072 275.515C304.949 279.49 303.256 283.255 300.362 285.986C297.459 288.711 293.596 290.174 289.619 290.054C285.642 289.935 281.877 288.242 279.151 285.348C276.434 282.448 274.979 278.588 275.106 274.614C275.232 270.64 276.929 266.876 279.825 264.148Z" fill="#AB882E"/>
<path d="M84.1009 315.527C81.367 310.807 76.8745 307.362 71.6092 305.95C66.3438 304.537 60.7358 305.272 56.0159 307.993C51.3035 310.722 47.867 315.211 46.4601 320.475C45.0531 325.74 45.7904 331.35 48.5103 336.076C51.0016 340.376 54.9621 343.632 59.6612 345.242C64.3603 346.853 69.481 346.709 74.0787 344.838L79.3806 354.021C79.0488 354.729 78.8924 355.506 78.9245 356.288C78.9566 357.069 79.1764 357.831 79.5651 358.51L88.5338 374.044C89.1797 375.163 90.2429 375.98 91.4896 376.315C92.7363 376.649 94.0644 376.475 95.1817 375.83C96.2989 375.185 97.1138 374.122 97.4472 372.875C97.7805 371.628 97.6049 370.299 96.959 369.18L87.9903 353.646C87.5996 352.967 87.0499 352.394 86.3887 351.975C85.7275 351.556 84.9747 351.305 84.195 351.241L78.8931 342.058C82.8162 339.014 85.5045 334.65 86.4617 329.774C87.4189 324.897 86.5804 319.837 84.1009 315.527ZM53.3247 333.296C51.3429 329.849 50.8063 325.758 51.8323 321.919C52.8584 318.08 55.3635 314.806 58.799 312.814C62.2421 310.83 66.3323 310.294 70.1728 311.324C74.0134 312.354 77.2908 314.865 79.2865 318.307C81.2739 321.757 81.8131 325.853 80.7858 329.696C79.7585 333.54 77.2486 336.817 73.8071 338.808C70.3622 340.789 66.2714 341.321 62.4319 340.287C58.5923 339.254 55.3172 336.74 53.3247 333.296Z" fill="#AB882E"/>
<path d="M278.26 114.758C273.94 107.3 266.841 101.857 258.521 99.6251C250.202 97.3931 241.34 98.5542 233.882 102.853C226.436 107.166 221.006 114.259 218.783 122.577C216.56 130.895 217.725 139.76 222.023 147.227C225.959 154.022 232.217 159.167 239.642 161.711C247.067 164.256 255.159 164.029 262.423 161.072L270.801 175.582C270.277 176.701 270.03 177.929 270.08 179.164C270.131 180.398 270.478 181.603 271.093 182.676L285.264 207.221C286.284 208.989 287.965 210.279 289.934 210.808C291.904 211.338 294.003 211.062 295.768 210.043C297.534 209.024 298.821 207.344 299.348 205.373C299.875 203.403 299.597 201.303 298.577 199.535L284.405 174.989C283.788 173.917 282.919 173.012 281.875 172.35C280.83 171.688 279.64 171.29 278.408 171.19L270.031 156.68C276.23 151.869 280.477 144.975 281.99 137.269C283.502 129.564 282.177 121.568 278.26 114.758ZM229.63 142.835C226.499 137.388 225.651 130.923 227.272 124.857C228.893 118.791 232.852 113.618 238.28 110.47C243.72 107.336 250.183 106.49 256.252 108.117C262.32 109.744 267.499 113.712 270.652 119.15C273.793 124.601 274.645 131.073 273.021 137.147C271.398 143.22 267.432 148.398 261.994 151.545C256.551 154.674 250.087 155.514 244.02 153.882C237.953 152.249 232.778 148.276 229.63 142.835Z" fill="#AB882E"/>
<path d="M110.769 238.622C116.856 232.519 120.276 224.253 120.278 215.639C120.281 207.025 116.866 198.767 110.783 192.675C104.69 186.599 96.4336 183.19 87.8235 183.196C79.2133 183.201 70.9524 186.621 64.852 192.705C59.307 198.266 55.9575 205.642 55.4213 213.473C54.8852 221.303 57.1986 229.06 61.9348 235.312L50.0872 247.16C48.8715 246.943 47.6209 247.022 46.4415 247.391C45.262 247.759 44.1883 248.406 43.3113 249.277L23.2698 269.319C21.8266 270.762 21.015 272.719 21.0137 274.758C21.0124 276.798 21.8215 278.754 23.2629 280.195C24.7043 281.637 26.6601 282.446 28.6998 282.445C30.7396 282.443 32.6964 281.632 34.1396 280.188L54.1811 260.147C55.0567 259.273 55.7069 258.2 56.0758 257.019C56.4447 255.839 56.5211 254.587 56.2986 253.371L68.1462 241.523C74.3976 246.266 82.1566 248.585 89.9907 248.051C97.8249 247.518 105.205 244.169 110.769 238.622ZM71.0633 198.916C75.5143 194.481 81.5389 191.989 87.8179 191.985C94.0968 191.981 100.118 194.466 104.564 198.895C108.999 203.339 111.49 209.362 111.488 215.645C111.487 221.928 108.995 227.957 104.558 232.41C100.106 236.854 94.0743 239.353 87.7878 239.357C81.5012 239.361 75.4731 236.87 71.0265 232.432C66.595 227.984 64.1103 221.958 64.1172 215.675C64.1241 209.392 66.622 203.365 71.0633 198.916Z" fill="#AB882E"/>
</g>
</svg>
