<svg width="20" height="16" viewBox="0 0 20 16" fill="none" xmlns="http://www.w3.org/2000/svg">
<path d="M19.4274 2.36623H18.383C18.111 2.36623 17.3995 2.68646 17.3995 2.95907V12.859C17.3995 13.1323 18.111 13.3563 18.383 13.3563H19.4274V15.5543H12.6676V13.3563H14.0199V3.09854H13.7846L10.5306 15.5543H8.01117L4.79926 3.09854H4.55599V13.3563H5.90768V15.5543H0.500122V13.3563H1.25012C1.54455 13.3563 1.85186 13.1323 1.85186 12.8589V2.95907C1.85186 2.68642 1.54459 2.36623 1.25012 2.36623H0.500122V0.167969H7.50816L9.79636 8.96006H9.85793L12.1687 0.167969H19.4274V2.36623Z" fill="white"/>
</svg>
