<svg width="30" height="27" viewBox="0 0 30 27" fill="none" xmlns="http://www.w3.org/2000/svg">
<g filter="url(#filter0_d_73_128)">
<path d="M14.5127 17.625C19.1036 17.625 22.8252 13.9034 22.8252 9.3125C22.8252 4.72163 19.1036 1 14.5127 1C9.92182 1 6.2002 4.72163 6.2002 9.3125C6.2002 13.9034 9.92182 17.625 14.5127 17.625Z" fill="#FFDA00" stroke="black" stroke-width="0.766051" stroke-linecap="round" stroke-linejoin="round"/>
<path d="M18.9777 9.56616C19.3788 10.5619 19.3678 11.6762 18.9473 12.6639C18.5268 13.6516 17.7311 14.4317 16.7353 14.8328C15.7396 15.2338 14.6253 15.2228 13.6376 14.8023C12.6499 14.3818 11.8698 13.5861 11.4688 12.5904C11.4688 12.5904 13.5967 13.0159 15.6675 12.1809C17.7384 11.346 18.9777 9.56616 18.9777 9.56616Z" fill="white" stroke="black" stroke-width="0.766051" stroke-linecap="round" stroke-linejoin="round"/>
<path d="M12.0305 10.156C12.0305 10.156 11.3692 9.77132 10.478 10.1305C9.5366 10.5093 9.37573 11.2251 9.37573 11.2251" stroke="black" stroke-width="0.766051" stroke-linecap="round" stroke-linejoin="round"/>
<path d="M19.5404 7.13182C19.5404 7.13182 18.879 6.74709 17.987 7.10628C17.0456 7.48505 16.8856 8.20088 16.8856 8.20088" stroke="black" stroke-width="0.766051" stroke-linecap="round" stroke-linejoin="round"/>
<path d="M8.51099 8.59246C9.27229 7.62243 9.76277 6.46789 9.93243 5.24652" stroke="black" stroke-width="0.766051" stroke-linecap="round" stroke-linejoin="round"/>
<path d="M15.0258 3.19608C15.0258 3.19608 16.5315 4.34941 18.3725 4.62093" stroke="black" stroke-width="0.766051" stroke-linecap="round" stroke-linejoin="round"/>
<path d="M25.1575 6.73437C25.1576 6.94276 25.1167 7.14912 25.037 7.34166C24.9573 7.5342 24.8404 7.70915 24.693 7.8565C24.5457 8.00385 24.3708 8.12071 24.1782 8.20041C23.9857 8.2801 23.7793 8.32106 23.5709 8.32095C22.6951 8.32095 20.9783 7.42807 20.9783 7.42807C20.9783 7.42807 21.8107 5.1478 23.5709 5.1478C23.9917 5.1478 24.3953 5.31495 24.6928 5.61249C24.9903 5.91003 25.1575 6.31359 25.1575 6.73437Z" fill="white" stroke="black" stroke-width="0.766051" stroke-linecap="round" stroke-linejoin="round"/>
<path d="M5.00857 14.8353C5.15527 14.9821 5.32943 15.0984 5.52112 15.1779C5.7128 15.2573 5.91824 15.2981 6.12572 15.2981C6.3332 15.2981 6.53867 15.2573 6.73035 15.1779C6.92204 15.0984 7.09618 14.9821 7.24288 14.8353C7.85913 14.2191 8.43452 12.3823 8.43452 12.3823C8.43452 12.3823 6.24363 11.3609 5.00433 12.6019C4.70904 12.8988 4.54364 13.3007 4.54444 13.7195C4.54523 14.1382 4.71215 14.5396 5.00857 14.8353Z" fill="white" stroke="black" stroke-width="0.766051" stroke-linecap="round" stroke-linejoin="round"/>
</g>
<defs>
<filter id="filter0_d_73_128" x="0.161377" y="0.616974" width="29.3792" height="25.3911" filterUnits="userSpaceOnUse" color-interpolation-filters="sRGB">
<feFlood flood-opacity="0" result="BackgroundImageFix"/>
<feColorMatrix in="SourceAlpha" type="matrix" values="0 0 0 0 0 0 0 0 0 0 0 0 0 0 0 0 0 0 127 0" result="hardAlpha"/>
<feOffset dy="4"/>
<feGaussianBlur stdDeviation="2"/>
<feComposite in2="hardAlpha" operator="out"/>
<feColorMatrix type="matrix" values="0 0 0 0 0 0 0 0 0 0 0 0 0 0 0 0 0 0 0.25 0"/>
<feBlend mode="normal" in2="BackgroundImageFix" result="effect1_dropShadow_73_128"/>
<feBlend mode="normal" in="SourceGraphic" in2="effect1_dropShadow_73_128" result="shape"/>
</filter>
</defs>
</svg>
