<svg width="42" height="34" viewBox="0 0 42 34" fill="none" xmlns="http://www.w3.org/2000/svg">
<path d="M20.3872 32.5C29.0857 32.5 36.1372 25.4485 36.1372 16.75C36.1372 8.05151 29.0857 1 20.3872 1C11.6887 1 4.63721 8.05151 4.63721 16.75C4.63721 25.4485 11.6887 32.5 20.3872 32.5Z" fill="#FFDA00" stroke="black" stroke-width="1.45146" stroke-linecap="round" stroke-linejoin="round"/>
<path d="M28.8473 17.231C29.6072 19.1177 29.5864 21.2289 28.7896 23.1003C27.9928 24.9717 26.4853 26.4499 24.5986 27.2098C22.7119 27.9696 20.6006 27.9489 18.7292 27.1521C16.8578 26.3553 15.3796 24.8477 14.6198 22.961C14.6198 22.961 18.6516 23.7674 22.5754 22.1853C26.4992 20.6032 28.8473 17.231 28.8473 17.231Z" fill="white" stroke="black" stroke-width="1.45146" stroke-linecap="round" stroke-linejoin="round"/>
<path d="M15.6842 18.3481C15.6842 18.3481 14.4311 17.6191 12.7425 18.2997C10.9589 19.0174 10.6541 20.3737 10.6541 20.3737" stroke="black" stroke-width="1.45146" stroke-linecap="round" stroke-linejoin="round"/>
<path d="M29.9134 12.6186C29.9134 12.6186 28.6603 11.8896 26.9702 12.5702C25.1865 13.2879 24.8833 14.6442 24.8833 14.6442" stroke="black" stroke-width="1.45146" stroke-linecap="round" stroke-linejoin="round"/>
<path d="M9.01562 15.3861C10.4581 13.5481 11.3874 11.3606 11.7089 9.04639" stroke="black" stroke-width="1.45146" stroke-linecap="round" stroke-linejoin="round"/>
<path d="M21.3594 5.16162C21.3594 5.16162 24.2123 7.34688 27.7006 7.86134" stroke="black" stroke-width="1.45146" stroke-linecap="round" stroke-linejoin="round"/>
<path d="M40.5564 11.8655C40.5566 12.2604 40.479 12.6514 40.328 13.0162C40.177 13.381 39.9555 13.7125 39.6763 13.9917C39.3972 14.2708 39.0657 14.4923 38.7009 14.6433C38.336 14.7943 37.945 14.8719 37.5502 14.8717C35.8907 14.8717 32.6378 13.1799 32.6378 13.1799C32.6378 13.1799 34.2151 8.85938 37.5502 8.85938C38.3475 8.85938 39.1121 9.17609 39.6759 9.73985C40.2396 10.3036 40.5564 11.0682 40.5564 11.8655Z" fill="white" stroke="black" stroke-width="1.45146" stroke-linecap="round" stroke-linejoin="round"/>
<path d="M2.37941 27.2137C2.65737 27.4917 2.98737 27.7123 3.35056 27.8627C3.71375 28.0132 4.10301 28.0906 4.49613 28.0906C4.88925 28.0906 5.27855 28.0132 5.64174 27.8627C6.00493 27.7123 6.33489 27.4917 6.61285 27.2137C7.78047 26.0461 8.87068 22.5658 8.87068 22.5658C8.87068 22.5658 4.71953 20.6305 2.37138 22.9819C1.81189 23.5445 1.49849 24.3061 1.50001 25.0995C1.50152 25.8929 1.81778 26.6533 2.37941 27.2137Z" fill="white" stroke="black" stroke-width="1.45146" stroke-linecap="round" stroke-linejoin="round"/>
</svg>
