<svg width="87" height="82" viewBox="0 0 87 82" fill="none" xmlns="http://www.w3.org/2000/svg">
<g filter="url(#filter0_d_73_316)">
<path d="M61.8382 2H14.0809C12.4849 2 11.191 3.29383 11.191 4.88986V6.04581C11.191 7.64184 12.4849 8.93567 14.0809 8.93567H61.8382C63.4342 8.93567 64.7281 7.64184 64.7281 6.04581V4.88986C64.7281 3.29383 63.4342 2 61.8382 2Z" fill="#FFDA00" stroke="black" stroke-width="2.88989" stroke-miterlimit="10"/>
<path d="M53.3647 65.0645H22.5582C20.9621 65.0645 19.6683 66.3583 19.6683 67.9543V69.1103C19.6683 70.7063 20.9621 72.0001 22.5582 72.0001H53.3647C54.9608 72.0001 56.2546 70.7063 56.2546 69.1103V67.9543C56.2546 66.3583 54.9608 65.0645 53.3647 65.0645Z" fill="#FFDA00" stroke="black" stroke-width="2.88989" stroke-miterlimit="10"/>
<path d="M13.941 8.93311H61.9251V32.0893C61.9218 36.6948 60.09 41.1106 56.8322 44.3661C53.5744 47.6215 49.1573 49.4502 44.5518 49.4502H31.3112C29.0297 49.4502 26.7706 49.0008 24.6627 48.1278C22.5549 47.2547 20.6397 45.975 19.0264 44.3617C17.4132 42.7484 16.1334 40.8332 15.2603 38.7254C14.3872 36.6175 13.9379 34.3584 13.9379 32.0769V8.93311H13.941Z" fill="#FFDA00" stroke="black" stroke-width="2.88989" stroke-miterlimit="10"/>
<path d="M46.8823 49.4624H28.8035V64.788H46.8823V49.4624Z" fill="#FFDA00" stroke="black" stroke-width="2.88989" stroke-miterlimit="10"/>
<path d="M13.951 37.0328C10.7814 37.0328 7.7416 35.7737 5.50035 33.5325C3.25911 31.2912 2 28.2514 2 25.0818C2 21.9122 3.25911 18.8725 5.50035 16.6312C7.7416 14.39 10.7814 13.1309 13.951 13.1309" stroke="black" stroke-width="2.88989" stroke-linecap="round" stroke-linejoin="round"/>
<path d="M61.9226 13.1245C65.0922 13.1245 68.132 14.3836 70.3732 16.6249C72.6145 18.8661 73.8736 21.9059 73.8736 25.0755C73.8736 28.2451 72.6145 31.2849 70.3732 33.5261C68.132 35.7674 65.0922 37.0265 61.9226 37.0265" stroke="black" stroke-width="2.88989" stroke-linecap="round" stroke-linejoin="round"/>
<path d="M37.9611 17.1641L41.6961 24.7305L50.0487 25.9455L44.0049 31.8371L45.4312 40.1556L37.9611 36.2278L30.4909 40.1556L31.9172 31.8371L25.8734 25.9455L34.226 24.7305L37.9611 17.1641Z" fill="white" stroke="black" stroke-width="2.88989" stroke-linecap="round" stroke-linejoin="round"/>
</g>
<defs>
<filter id="filter0_d_73_316" x="0.555054" y="0.555176" width="85.7635" height="80.8901" filterUnits="userSpaceOnUse" color-interpolation-filters="sRGB">
<feFlood flood-opacity="0" result="BackgroundImageFix"/>
<feColorMatrix in="SourceAlpha" type="matrix" values="0 0 0 0 0 0 0 0 0 0 0 0 0 0 0 0 0 0 127 0" result="hardAlpha"/>
<feOffset dx="7" dy="4"/>
<feGaussianBlur stdDeviation="2"/>
<feComposite in2="hardAlpha" operator="out"/>
<feColorMatrix type="matrix" values="0 0 0 0 0 0 0 0 0 0 0 0 0 0 0 0 0 0 0.25 0"/>
<feBlend mode="normal" in2="BackgroundImageFix" result="effect1_dropShadow_73_316"/>
<feBlend mode="normal" in="SourceGraphic" in2="effect1_dropShadow_73_316" result="shape"/>
</filter>
</defs>
</svg>
