<svg width="19" height="28" viewBox="0 0 19 28" fill="none" xmlns="http://www.w3.org/2000/svg">
<path d="M14.6128 25.0221C14.4772 24.9661 14.3262 24.9633 14.1887 25.0142C14.0512 25.065 13.9368 25.1659 13.8674 25.2977L12.7829 27.2684C12.7201 27.3809 12.6271 27.4725 12.5148 27.5322C12.4026 27.592 12.276 27.6174 12.1501 27.6055C12.0241 27.5936 11.9042 27.5449 11.8045 27.465C11.7049 27.3852 11.6298 27.2778 11.5882 27.1554L10.1001 22.7454C10.6211 22.6626 11.1205 22.4736 11.5689 22.1896C12.0172 21.9055 12.4054 21.5321 12.7103 21.0916C12.7222 21.0745 12.738 21.0606 12.7562 21.0511C12.7745 21.0415 12.7947 21.0365 12.8152 21.0365H12.8556C13.3861 21.2208 13.9493 21.2857 14.5066 21.2267C15.0638 21.1677 15.6021 20.9863 16.0847 20.6947L17.5539 25.0469C17.595 25.1697 17.6007 25.302 17.5702 25.4281C17.5398 25.5541 17.4745 25.6685 17.3822 25.7575C17.2899 25.8465 17.1745 25.9063 17.0499 25.9299C16.9252 25.9535 16.7966 25.9397 16.6794 25.8903L14.6128 25.0221ZM7.40108 27.1554L8.88916 22.7454C8.36819 22.6626 7.86872 22.4736 7.42037 22.1896C6.97201 21.9055 6.58388 21.5321 6.27897 21.0916C6.267 21.0745 6.25125 21.0606 6.233 21.0511C6.21475 21.0415 6.19453 21.0365 6.17402 21.0365H6.13366C5.6031 21.2208 5.03995 21.2857 4.48267 21.2267C3.92539 21.1677 3.3871 20.9863 2.90455 20.6947L1.44607 25.0469C1.40535 25.1694 1.39986 25.3013 1.43025 25.4269C1.46064 25.5526 1.52564 25.6666 1.6175 25.7554C1.70936 25.8443 1.82421 25.9043 1.94839 25.9282C2.07257 25.9521 2.20084 25.9389 2.31793 25.8903L4.38725 25.0221C4.52285 24.9661 4.6738 24.9633 4.8113 25.0142C4.94879 25.065 5.06318 25.1659 5.13264 25.2977L6.23053 27.2795C6.29553 27.3876 6.38901 27.4748 6.50021 27.531C6.61141 27.5873 6.73584 27.6102 6.8592 27.5972C6.98256 27.5843 7.09985 27.536 7.19761 27.4578C7.29536 27.3797 7.36962 27.2749 7.41185 27.1554H7.40108ZM0.404686 11.9628C0.664639 11.6041 0.804992 11.1692 0.804992 10.7225C0.804992 10.2757 0.664639 9.84085 0.404686 9.48214C0.209998 9.2155 0.080615 8.9049 0.0274042 8.57643C-0.0258066 8.24796 -0.00129194 7.91121 0.0988892 7.59445C0.19907 7.2777 0.371993 6.99019 0.603135 6.75608C0.834276 6.52196 1.11689 6.34807 1.42724 6.24902C1.84428 6.11568 2.20825 5.8482 2.46516 5.48625C2.72207 5.1243 2.85822 4.68716 2.85342 4.23969C2.85031 3.90758 2.92495 3.57955 3.07108 3.28308C3.21721 2.9866 3.43059 2.73032 3.69333 2.5357C3.95607 2.34108 4.26052 2.21379 4.58117 2.1645C4.90182 2.11521 5.22934 2.14535 5.53627 2.25241C5.74514 2.32507 5.9642 2.36231 6.18479 2.36266C6.50934 2.3628 6.82921 2.2833 7.11761 2.1308C7.40601 1.9783 7.65454 1.75725 7.84239 1.48616C8.03012 1.21483 8.27859 0.993538 8.56699 0.840818C8.8554 0.688097 9.17533 0.608398 9.5 0.608398C9.82467 0.608398 10.1446 0.688097 10.433 0.840818C10.7214 0.993538 10.9699 1.21483 11.1576 1.48616C11.3455 1.75725 11.594 1.9783 11.8824 2.1308C12.1708 2.2833 12.4907 2.3628 12.8152 2.36266C13.0358 2.36231 13.2549 2.32507 13.4637 2.25241C13.7718 2.14346 14.1009 2.11212 14.4233 2.16105C14.7457 2.20997 15.0518 2.33772 15.3158 2.53348C15.5798 2.72924 15.7938 2.98725 15.9398 3.28568C16.0858 3.58411 16.1595 3.91418 16.1546 4.24796C16.1511 4.69298 16.2868 5.12747 16.5421 5.48762C16.7973 5.84778 17.1586 6.11464 17.5728 6.24902C17.8822 6.34838 18.164 6.52218 18.3945 6.75589C18.6249 6.98961 18.7974 7.27645 18.8975 7.59242C18.9976 7.90839 19.0224 8.24433 18.9699 8.57212C18.9173 8.89993 18.7889 9.21007 18.5953 9.47663C18.3354 9.83534 18.195 10.2702 18.195 10.717C18.195 11.1637 18.3354 11.5986 18.5953 11.9573C18.79 12.2239 18.9194 12.5345 18.9726 12.863C19.0258 13.1915 19.0013 13.5282 18.9011 13.845C18.8009 14.1617 18.628 14.4492 18.3969 14.6833C18.1657 14.9175 17.8831 15.0913 17.5728 15.1904C17.1557 15.3237 16.7917 15.5912 16.5348 15.9532C16.2779 16.3151 16.1418 16.7523 16.1466 17.1997C16.1515 17.5335 16.0778 17.8636 15.9317 18.162C15.7857 18.4604 15.5717 18.7184 15.3077 18.9142C15.0437 19.11 14.7376 19.2377 14.4152 19.2866C14.0928 19.3356 13.7637 19.3042 13.4557 19.1953C13.0416 19.0525 12.5937 19.0501 12.1783 19.1887C11.7629 19.3272 11.4021 19.5992 11.1495 19.9643C10.9618 20.2356 10.7133 20.4569 10.4249 20.6096C10.1365 20.7623 9.81659 20.842 9.49193 20.842C9.16726 20.842 8.84732 20.7623 8.55892 20.6096C8.27051 20.4569 8.02204 20.2356 7.83432 19.9643C7.58174 19.5992 7.22099 19.3272 6.80557 19.1887C6.39016 19.0501 5.94222 19.0525 5.5282 19.1953C5.22015 19.3042 4.89101 19.3356 4.56863 19.2866C4.24626 19.2377 3.94013 19.11 3.67615 18.9142C3.41218 18.7184 3.19813 18.4604 3.05211 18.162C2.90609 17.8636 2.8324 17.5335 2.83728 17.1997C2.84314 16.7543 2.70933 16.3188 2.45551 15.9571C2.20169 15.5954 1.84127 15.3266 1.42724 15.1904C1.11777 15.091 0.836014 14.9172 0.605539 14.6835C0.375064 14.4498 0.202563 14.163 0.102458 13.847C0.00235319 13.531 -0.0224462 13.1951 0.0301332 12.8673C0.0827125 12.5395 0.211143 12.2294 0.404686 11.9628ZM6.92748 11.5742L7.34726 12.0124L8.0765 12.7594C8.27028 12.9578 8.53307 13.0693 8.80709 13.0693C9.0811 13.0693 9.3439 12.9578 9.53767 12.7594L10.2669 12.0124L12.0591 10.1767C12.2482 9.97727 12.3531 9.70962 12.3511 9.43159C12.3491 9.15357 12.2404 8.88752 12.0485 8.69092C11.8565 8.49432 11.5968 8.38298 11.3254 8.38094C11.0539 8.37891 10.7926 8.48636 10.5979 8.68006L8.81651 10.5213L8.38865 10.083C8.19393 9.88931 7.93262 9.78186 7.66119 9.78389C7.38976 9.78592 7.13002 9.89727 6.93808 10.0939C6.74615 10.2905 6.63744 10.5565 6.63546 10.8345C6.63347 11.1126 6.73837 11.3802 6.92748 11.5797V11.5742Z" fill="#AB882E"/>
</svg>
