<svg width="49" height="34" viewBox="0 0 49 34" fill="none" xmlns="http://www.w3.org/2000/svg">
<path d="M37.0005 20.0386L36.667 19.7589L26.9732 10.562V8.14727L24.2145 8.89602L23.1269 7.4159L22.7951 6.96595C22.7951 6.96595 17.5591 7.14836 15.8827 6.55249L12.4082 5.33643L8.36914 18.1259L11.5934 19.342C11.636 19.5584 11.6994 19.7702 11.7828 19.9744C11.8626 20.5592 12.1713 21.0884 12.641 21.4458L25.7658 31.4592C26.1107 31.723 26.525 31.8804 26.9579 31.9123C27.3909 31.9442 27.8238 31.8492 28.2036 31.6388C28.5834 31.4285 28.8936 31.1119 29.0962 30.728C29.2989 30.344 29.3852 29.9093 29.3445 29.477C29.6093 29.585 29.8925 29.6404 30.1784 29.6403C30.5279 29.6411 30.8728 29.5598 31.1851 29.4028C31.4974 29.2458 31.7685 29.0177 31.9764 28.7367C32.1843 28.4557 32.3233 28.1298 32.3822 27.7852C32.441 27.4407 32.4181 27.0871 32.3152 26.7531C32.5261 26.8185 32.7458 26.8519 32.9666 26.8521C33.3138 26.8527 33.6563 26.7723 33.967 26.6173C34.2776 26.4622 34.5477 26.2368 34.7559 25.959C34.9641 25.6811 35.1045 25.3585 35.1661 25.0169C35.2276 24.6752 35.2085 24.3239 35.1104 23.9909C35.6092 24.114 36.1353 24.0615 36.6 23.8423C37.0647 23.6231 37.4398 23.2506 37.662 22.7873C37.8843 22.324 37.9402 21.7983 37.8203 21.2987C37.7005 20.799 37.4122 20.3559 37.004 20.0439L37.0005 20.0386Z" fill="#FFDA00" stroke="black" stroke-width="1.56351" stroke-miterlimit="10"/>
<path d="M16.1138 27.9639C15.7878 27.9638 15.4681 27.8745 15.1892 27.7056C14.9103 27.5368 14.6828 27.295 14.5315 27.0062C14.3801 26.7175 14.3106 26.3928 14.3305 26.0674C14.3503 25.742 14.4588 25.4282 14.6442 25.16L15.8602 23.362C15.9935 23.1681 16.1636 23.0023 16.3609 22.8741C16.5582 22.746 16.7788 22.6579 17.0101 22.615C17.2414 22.5721 17.4789 22.5752 17.7091 22.6241C17.9392 22.6729 18.1575 22.7667 18.3514 22.8999C18.5453 23.0331 18.7111 23.2033 18.8393 23.4006C18.9674 23.5979 19.0555 23.8185 19.0984 24.0498C19.1413 24.2811 19.1382 24.5186 19.0894 24.7488C19.0405 24.9789 18.9468 25.1972 18.8135 25.3911L17.5975 27.1909C17.4319 27.4309 17.2101 27.6267 16.9515 27.7615C16.693 27.8962 16.4054 27.9657 16.1138 27.9639Z" fill="#FFDA00" stroke="black" stroke-width="1.56351" stroke-miterlimit="10"/>
<path d="M18.8935 30.3152C18.5572 30.3141 18.2281 30.2182 17.9439 30.0384C17.6597 29.8587 17.4319 29.6025 17.2868 29.2991C17.1416 28.9958 17.085 28.6577 17.1234 28.3236C17.1617 27.9895 17.2936 27.6731 17.5037 27.4105L18.4244 26.2831C18.7207 25.9129 19.1519 25.6755 19.6231 25.6232C20.0944 25.5709 20.5671 25.708 20.9373 26.0042C21.3075 26.3005 21.5449 26.7317 21.5972 27.2029C21.6495 27.6742 21.5124 28.1469 21.2162 28.5172L20.2954 29.6446C20.1275 29.855 19.9142 30.0246 19.6714 30.1407C19.4286 30.2569 19.1626 30.3165 18.8935 30.3152Z" fill="#FFDA00" stroke="black" stroke-width="1.56351" stroke-miterlimit="10"/>
<path d="M21.8081 32.5C21.4547 32.4999 21.1093 32.3951 20.8154 32.1987C20.5216 32.0024 20.2925 31.7234 20.1572 31.397C20.0218 31.0705 19.9863 30.7113 20.055 30.3646C20.1238 30.018 20.2937 29.6995 20.5434 29.4494L21.0177 29.0655C21.1841 28.8995 21.3816 28.7679 21.5988 28.6783C21.8161 28.5886 22.0489 28.5426 22.284 28.543C22.519 28.5433 22.7517 28.5899 22.9687 28.6801C23.1857 28.7704 23.3828 28.9025 23.5488 29.0689C23.7148 29.2353 23.8463 29.4328 23.936 29.6501C24.0256 29.8674 24.0716 30.1002 24.0713 30.3352C24.071 30.5703 24.0244 30.8029 23.9341 31.02C23.8439 31.237 23.7118 31.4341 23.5453 31.6001L23.0711 31.984C22.9049 32.1489 22.7077 32.2793 22.491 32.3679C22.2743 32.4564 22.0422 32.5013 21.8081 32.5Z" fill="#FFDA00" stroke="black" stroke-width="1.56351" stroke-miterlimit="10"/>
<path d="M13.4416 25.5891C13.1285 25.5895 12.8209 25.5068 12.5504 25.3493C12.142 25.1128 11.8438 24.7241 11.7211 24.2684C11.5984 23.8127 11.6611 23.3269 11.8954 22.9172L12.7415 21.3415C12.8552 21.1316 13.0098 20.9465 13.1962 20.7973C13.3827 20.6481 13.5971 20.5377 13.8269 20.4727C14.0567 20.4077 14.2972 20.3895 14.5341 20.419C14.7711 20.4485 14.9998 20.5251 15.2066 20.6445C15.4134 20.7638 15.5943 20.9233 15.7384 21.1137C15.8826 21.3041 15.9871 21.5214 16.0459 21.7528C16.1047 21.9843 16.1165 22.2252 16.0807 22.4613C16.0448 22.6973 15.9621 22.9239 15.8372 23.1274L14.9912 24.7031C14.8333 24.9737 14.607 25.1981 14.335 25.3536C14.063 25.5091 13.7549 25.5903 13.4416 25.5891Z" fill="#FFDA00" stroke="black" stroke-width="1.56351" stroke-miterlimit="10"/>
<path d="M40.2614 16.7694L36.6479 5.05006L33.6703 5.71541C33.4222 5.54156 33.1396 5.42307 32.8417 5.36797L27.5084 4.00771C27.1569 3.94304 26.7948 3.96813 26.4556 4.08068L20.2884 6.49543C19.9233 6.61595 19.5978 6.83353 19.3469 7.12487C19.0959 7.41621 18.929 7.77032 18.8639 8.14928L17.8737 14.9245C17.6739 16.0798 17.5106 17.0613 19.0445 17.1742C19.6786 17.2211 21.8241 17.0005 22.3088 14.1862L22.83 10.1193L26.9715 10.5571L36.6653 19.754C37.4106 18.9653 37.9961 18.3399 38.3174 17.9925L40.2614 16.7694Z" fill="#FFDA00" stroke="black" stroke-width="1.56351" stroke-miterlimit="10"/>
<path d="M6.93915 19.4151L1.75699 17.6413C1.4746 17.5421 1.24299 17.335 1.11278 17.0655C0.982567 16.796 0.964345 16.4858 1.06209 16.2029L5.65014 1.76475C5.74767 1.48077 5.95398 1.24713 6.22371 1.11519C6.49344 0.983262 6.80452 0.963829 7.08857 1.06117L12.269 2.83662C12.4098 2.88474 12.5397 2.96013 12.6513 3.05846C12.7629 3.1568 12.8541 3.27616 12.9196 3.40974C12.9851 3.54331 13.0237 3.68848 13.033 3.83695C13.0424 3.98542 13.0225 4.13429 12.9743 4.27505L8.38454 18.7115C8.33649 18.853 8.26083 18.9836 8.16198 19.0958C8.06313 19.2079 7.94303 19.2993 7.80862 19.3648C7.67421 19.4302 7.52817 19.4683 7.37893 19.477C7.22969 19.4856 7.08021 19.4646 6.93915 19.4151Z" fill="white" stroke="black" stroke-width="1.56351" stroke-miterlimit="10"/>
<path d="M42.0558 19.415L47.2363 17.6413C47.5187 17.542 47.7503 17.335 47.8805 17.0655C48.0107 16.7959 48.0289 16.4858 47.9312 16.2029L43.3431 1.76475C43.2456 1.48077 43.0393 1.24713 42.7695 1.11519C42.4998 0.983262 42.1887 0.963829 41.9047 1.06117L36.7243 2.83662C36.4416 2.93552 36.2097 3.1425 36.0794 3.41216C35.9491 3.68182 35.9311 3.99214 36.0294 4.27505L40.6174 18.7115C40.7149 18.9955 40.9212 19.2291 41.191 19.361C41.4607 19.493 41.7718 19.5124 42.0558 19.415Z" fill="white" stroke="black" stroke-width="1.56351" stroke-miterlimit="10"/>
</svg>
