<svg width="30" height="29" viewBox="0 0 30 29" fill="none" xmlns="http://www.w3.org/2000/svg">
    <circle cx="15.0001" cy="14.3431" r="14.3431" fill="#FFEDC0"/>
    <circle cx="15.0001" cy="14.3431" r="11.3006" fill="#AB882E"/>
    <path d="M17.8711 8.72754H12.5343C10.7973 8.72754 9.38428 10.1406 9.38428 11.8775V17.2144C9.38428 18.9512 10.7973 20.3643 12.5343 20.3643H17.8712C19.608 20.3643 21.0211 18.9512 21.0211 17.2144V11.8775C21.0211 10.1406 19.608 8.72754 17.8711 8.72754V8.72754ZM15.2027 17.7277C13.4482 17.7277 12.0208 16.3004 12.0208 14.5459C12.0208 12.7914 13.4482 11.3641 15.2027 11.3641C16.9572 11.3641 18.3845 12.7914 18.3845 14.5459C18.3845 16.3004 16.9572 17.7277 15.2027 17.7277V17.7277ZM18.4606 12.1145C17.9421 12.1145 17.5204 11.6927 17.5204 11.1743C17.5204 10.6558 17.9421 10.234 18.4606 10.234C18.9791 10.234 19.4009 10.6558 19.4009 11.1743C19.4009 11.6927 18.9791 12.1145 18.4606 12.1145Z" fill="white"/>
    <path d="M15.2028 12.0459C13.8245 12.0459 12.7031 13.1672 12.7031 14.5455C12.7031 15.9238 13.8245 17.0452 15.2028 17.0452C16.5811 17.0452 17.7024 15.9238 17.7024 14.5455C17.7024 13.1672 16.5811 12.0459 15.2028 12.0459Z" fill="white"/>
    <defs>
        <linearGradient id="paint0_linear_0:1" x1="15.0001" y1="0" x2="15.0001" y2="28.6862" gradientUnits="userSpaceOnUse">
            <stop stop-color="#FFE39A" stop-opacity="0.95"/>
            <stop offset="1" stop-color="#FFEDC0"/>
        </linearGradient>
    </defs>
</svg>