<svg width="484" height="64" viewBox="0 0 484 64" fill="none" xmlns="http://www.w3.org/2000/svg">
<path d="M11.9821 1.85L13.1521 8.33C9.91215 8.39 7.42215 8.75 5.68215 9.41C3.94215 10.01 2.65215 10.91 1.81215 12.11C1.03215 13.25 0.582148 14.66 0.462148 16.34C0.342148 17.96 0.282148 19.82 0.282148 21.92V26.33C0.642149 27.35 1.12215 28.37 1.72215 29.39C2.32215 30.35 2.95215 31.25 3.61215 32.09C4.33215 32.87 5.05215 33.53 5.77215 34.07C6.49215 34.55 7.12215 34.79 7.66215 34.79C7.96215 34.79 8.38215 34.79 8.92215 34.79C9.52215 34.73 9.85215 34.7 9.91215 34.7L12.6121 33.8L18.0121 36.5C18.0721 36.5 18.1321 36.53 18.1921 36.59C18.2521 36.59 18.3421 36.59 18.4621 36.59C18.8221 36.59 19.3021 36.56 19.9021 36.5C20.5021 36.38 21.1021 36.29 21.7021 36.23C22.3621 36.11 22.9621 36.02 23.5021 35.96C24.0421 35.84 24.4021 35.78 24.5821 35.78C24.5821 36.56 24.6121 37.19 24.6722 37.67C24.7321 38.09 24.7921 38.48 24.8522 38.84C24.9721 39.2 25.0621 39.59 25.1222 40.01C25.2422 40.37 25.3022 40.91 25.3022 41.63C25.3022 42.29 25.2422 42.86 25.1222 43.34C25.0621 43.76 24.7921 44.24 24.3121 44.78C24.1322 44.84 23.7722 44.93 23.2322 45.05C22.7521 45.17 22.2121 45.29 21.6121 45.41C21.0121 45.47 20.4421 45.53 19.9021 45.59C19.4221 45.65 19.0921 45.68 18.9121 45.68C17.7721 45.68 16.6921 45.47 15.6721 45.05C14.7121 44.63 14.2321 43.79 14.2321 42.53V41.99C14.2321 42.05 14.2321 42.02 14.2321 41.9C14.2921 41.72 14.3521 41.48 14.4121 41.18H2.08215V45.68C2.14215 47.12 2.29215 48.44 2.53215 49.64C2.77215 50.78 3.28215 51.77 4.06215 52.61C4.84215 53.45 6.01215 54.11 7.57215 54.59C9.13215 55.01 11.2921 55.22 14.0521 55.22V55.4C13.7521 57.56 13.5721 59.06 13.5121 59.9C13.4521 60.8 13.4221 61.28 13.4221 61.34L14.3221 62.24C14.3821 62.24 14.6221 62.3 15.0421 62.42C15.4621 62.6 15.9421 62.69 16.4821 62.69C16.9621 62.69 17.4421 62.72 17.9221 62.78C18.4021 62.84 18.7921 62.87 19.0921 62.87L26.9222 62.06L26.0221 55.22H27.9121C27.9721 55.22 28.2122 55.16 28.6322 55.04C29.0522 54.86 29.5322 54.65 30.0722 54.41C30.6722 54.17 31.2721 53.93 31.8721 53.69C32.4722 53.39 32.9522 53.15 33.3121 52.97C33.3722 52.91 33.5522 52.79 33.8522 52.61C34.1521 52.37 34.4521 52.1 34.7521 51.8C35.1122 51.5 35.4122 51.2 35.6522 50.9C35.9522 50.54 36.1022 50.18 36.1022 49.82V43.43L35.2922 40.73C35.2922 40.73 35.2621 40.7 35.2021 40.64C35.2021 40.52 35.2021 40.4 35.2021 40.28C35.2021 39.5 35.5321 38.72 36.1921 37.94C36.8522 37.16 37.3622 36.59 37.7222 36.23L37.8122 36.14V35.24H37.9021C37.8421 35.24 37.7222 34.82 37.5422 33.98C37.3621 33.14 37.0321 32.21 36.5522 31.19C36.1322 30.17 35.5322 29.21 34.7521 28.31C33.9722 27.35 32.9522 26.78 31.6922 26.6L15.5821 24.71V19.13C15.5821 18.65 15.7921 18.23 16.2121 17.87C16.6921 17.51 17.2321 17.24 17.8321 17.06C18.4321 16.82 19.0321 16.64 19.6321 16.52C20.2921 16.4 20.7721 16.34 21.0721 16.34C21.6121 16.34 22.0621 16.52 22.4221 16.88C22.8421 17.18 23.1722 17.57 23.4122 18.05C23.6521 18.47 23.8321 18.95 23.9521 19.49C24.1322 20.03 24.2522 20.51 24.3121 20.93H36.0121C36.4922 20.93 36.7622 20.75 36.8221 20.39C36.9421 20.03 37.0021 19.67 37.0021 19.31V18.77C37.0021 16.91 36.8222 15.44 36.4622 14.36C36.1622 13.22 35.6521 12.32 34.9321 11.66C34.2122 11 33.2822 10.46 32.1422 10.04C31.0622 9.62 29.7422 9.17 28.1822 8.69L27.0121 8.33H24.8522C24.9721 6.95 25.0621 5.87 25.1222 5.09C25.2422 4.31 25.3022 3.74 25.3022 3.38C25.3621 2.96 25.3921 2.72 25.3921 2.66C25.4522 2.54 25.4822 2.48 25.4822 2.48L24.5821 1.67C24.5221 1.67 24.2822 1.61 23.8622 1.48999C23.4422 1.31 22.9622 1.22 22.4221 1.22C21.9421 1.22 21.4621 1.19 20.9821 1.13C20.5021 1.07 20.1121 1.04 19.8121 1.04L11.9821 1.85ZM67.2035 53.6C67.9235 53.66 68.7335 53.81 69.6335 54.05C70.5935 54.23 71.5535 54.44 72.5135 54.68C73.4735 54.86 74.4035 55.04 75.3035 55.22C76.2635 55.34 77.1035 55.4 77.8235 55.4H78.8135C78.9935 55.4 79.3835 55.37 79.9835 55.31C80.6435 55.25 81.3035 55.19 81.9635 55.13C82.6835 55.01 83.3135 54.89 83.8535 54.77C84.4535 54.65 84.8435 54.56 85.0235 54.5C84.1835 50.54 83.3735 46.46 82.5935 42.26C81.8735 38 81.5135 33.8 81.5135 29.66C81.5135 25.4 81.6635 21.29 81.9635 17.33C82.2635 13.37 82.4135 9.2 82.4135 4.81999V3.65C82.4135 3.23 82.1135 2.96 81.5135 2.84H80.5235L77.6435 2.75H76.6535C74.9135 2.75 73.3235 2.75 71.8835 2.75C70.4435 2.75 68.8835 3.08 67.2035 3.74V5.18C67.2035 5.84 67.1735 6.56 67.1135 7.34C67.1135 8.06 67.1135 8.81 67.1135 9.59V10.85C67.1135 13.13 67.2935 15.23 67.6535 17.15C68.0135 19.01 68.1935 20.99 68.1935 23.09C68.1935 24.05 67.9235 24.62 67.3835 24.8C66.8435 24.98 66.0935 25.07 65.1335 25.07H64.5935C63.8735 25.01 62.9735 24.95 61.8935 24.89C60.8735 24.77 59.8535 24.68 58.8335 24.62C57.8735 24.5 57.0335 24.41 56.3135 24.35C55.5935 24.29 55.2335 24.26 55.2335 24.26V2.84C55.1135 2.84 54.6635 2.78 53.8835 2.66C53.1635 2.54 52.2335 2.42 51.0935 2.3C50.0135 2.12 49.1435 2 48.4835 1.94H47.6735H46.7735C46.2935 2 45.6935 2.09 44.9735 2.21C44.2535 2.27 43.5335 2.36 42.8135 2.48C42.1535 2.54 41.5835 2.63 41.1035 2.75C40.6835 2.81 40.4735 2.84 40.4735 2.84V17.06C41.2535 17.84 41.7635 18.44 42.0035 18.86C42.2435 19.22 42.3635 19.79 42.3635 20.57C42.3635 22.01 42.0935 23.42 41.5535 24.8C41.0735 26.12 40.4135 27.41 39.5735 28.67V52.7C39.5735 52.76 39.7235 52.85 40.0235 52.97C40.3835 53.03 40.7735 53.12 41.1935 53.24C41.6735 53.3 42.1835 53.39 42.7235 53.51C43.2635 53.57 43.7135 53.6 44.0735 53.6H54.7835L55.6835 52.7C55.2035 50.9 54.9035 49.34 54.7835 48.02C54.7235 46.64 54.6935 45.02 54.6935 43.16L54.7835 42.17V39.38C54.8435 39.08 54.9635 38.72 55.1435 38.3C55.3835 37.82 55.5635 37.58 55.6835 37.58H65.4935L67.2035 39.38V53.6ZM87.8402 32.72V55.49C88.0202 55.49 88.3802 55.49 88.9202 55.49C89.5202 55.43 90.1502 55.4 90.8102 55.4C91.4702 55.34 92.1002 55.31 92.7002 55.31C93.3002 55.25 93.7502 55.22 94.0502 55.22C94.4702 55.22 94.9802 55.19 95.5802 55.13C96.1802 55.01 96.7502 54.92 97.2902 54.86C97.8902 54.74 98.3702 54.65 98.7302 54.59C99.1502 54.47 99.3602 54.38 99.3602 54.32H107.55H108.72C109.32 54.32 109.95 54.35 110.61 54.41C111.27 54.41 111.9 54.41 112.5 54.41H113.85H115.74C116.52 54.41 117.36 54.38 118.26 54.32C119.22 54.2 120.09 54.02 120.87 53.78C121.71 53.54 122.4 53.24 122.94 52.88C123.48 52.46 123.75 51.95 123.75 51.35C123.75 51.65 123.84 51.68 124.02 51.44C124.2 51.2 124.41 50.78 124.65 50.18C124.89 49.58 125.1 48.83 125.28 47.93C125.46 46.97 125.55 45.89 125.55 44.69L121.77 27.77L121.14 5.54C121.14 5 120.78 4.46 120.06 3.92C119.4 3.38 118.59 2.9 117.63 2.48C116.67 2.06 115.68 1.73 114.66 1.48999C113.7 1.19 112.95 1.04 112.41 1.04H110.07C109.17 1.04 107.61 1.1 105.39 1.22C103.17 1.28 100.8 1.37 98.2802 1.48999C95.8202 1.61 93.4502 1.73 91.1702 1.85C88.9502 1.91 87.3902 1.94 86.4902 1.94L87.5702 16.97L90.1802 26.96L87.8402 32.72ZM103.14 43.43L101.16 10.76L104.13 9.86H105.03C105.09 9.92 105.27 10.25 105.57 10.85C105.87 11.39 106.2 11.99 106.56 12.65C106.92 13.31 107.25 13.91 107.55 14.45C107.85 14.99 108 15.29 108 15.35L109.35 41.45V41.63C109.35 42.29 109.08 42.77 108.54 43.07C108.06 43.31 107.49 43.43 106.83 43.43H103.14ZM150.856 45.41C155.356 52.61 161.806 56.21 170.206 56.21C172.306 56.21 174.196 56.12 175.876 55.94C177.616 55.76 179.656 55.52 181.996 55.22C182.116 55.16 182.266 55.04 182.446 54.86C182.686 54.62 182.836 54.44 182.896 54.32C183.256 53.9 183.706 53.3 184.246 52.52C184.786 51.68 185.266 50.87 185.686 50.09C186.166 49.31 186.556 48.65 186.856 48.11C187.216 47.51 187.396 47.21 187.396 47.21V10.13C188.236 9.35 188.746 8.75 188.926 8.33C189.106 7.85 189.196 7.19 189.196 6.35C189.196 5.21 189.106 4.25 188.926 3.47C188.806 2.63 188.596 1.58 188.296 0.319999H187.846C186.466 0.319999 185.116 0.499999 183.796 0.859998C182.476 1.16 181.096 1.31 179.656 1.31C178.456 1.31 177.526 1.13 176.866 0.769999C176.266 0.409996 175.426 0.229995 174.346 0.229995C174.286 0.229995 174.196 0.259996 174.076 0.319999C174.016 0.319999 173.986 0.319999 173.986 0.319999C173.866 0.499997 173.686 0.829996 173.446 1.31C173.206 1.73 173.086 2 173.086 2.12V39.2C173.086 40.64 172.906 41.48 172.546 41.72C172.246 41.9 171.616 41.99 170.656 41.99C170.236 41.99 169.756 41.99 169.216 41.99C168.676 41.93 168.136 41.84 167.596 41.72C167.056 41.6 166.546 41.42 166.066 41.18C165.646 40.94 165.316 40.58 165.076 40.1C165.016 39.44 164.926 38.27 164.806 36.59C164.746 34.91 164.656 33.17 164.536 31.37C164.476 29.51 164.386 27.77 164.266 26.15C164.206 24.47 164.176 23.3 164.176 22.64V21.38V19.13V16.88V15.44C164.176 15.32 164.056 15.05 163.816 14.63C163.576 14.15 163.396 13.85 163.276 13.73V2.12C162.856 2.06 162.136 1.97 161.116 1.85C160.156 1.73 159.106 1.64 157.966 1.58C156.886 1.46 155.836 1.37 154.816 1.31C153.796 1.25 153.076 1.22 152.656 1.22H151.666C151.366 1.22 151.006 1.25 150.586 1.31C150.166 1.37 149.956 1.64 149.956 2.12L150.856 28.49C150.976 28.49 151.276 28.61 151.756 28.85C152.236 29.09 152.536 29.27 152.656 29.39V29.75C152.656 30.77 152.536 31.79 152.296 32.81C152.116 33.77 151.906 34.76 151.666 35.78C151.486 36.74 151.276 37.73 151.036 38.75C150.856 39.77 150.766 40.82 150.766 41.9C150.766 42.2 150.766 42.8 150.766 43.7C150.826 44.54 150.856 45.11 150.856 45.41ZM195.771 55.31C196.551 55.43 197.841 55.55 199.641 55.67C201.501 55.73 203.451 55.82 205.491 55.94C207.591 56 209.571 56.06 211.431 56.12C213.291 56.18 214.611 56.21 215.391 56.21H215.751H218.901C220.761 56.21 222.591 56 224.391 55.58C226.251 55.16 227.691 54.17 228.711 52.61V52.16V51.8L227.811 45.5V44.6C227.811 42.86 227.961 41.24 228.261 39.74C228.621 38.24 228.801 36.62 228.801 34.88C228.801 32.18 228.381 30.26 227.541 29.12C226.761 27.98 225.651 27.2 224.211 26.78C222.771 26.36 221.061 26.12 219.081 26.06C217.101 25.94 214.971 25.64 212.691 25.16C212.391 25.1 211.881 25.04 211.161 24.98C210.501 24.86 209.781 24.77 209.001 24.71C208.281 24.59 207.591 24.5 206.931 24.44C206.271 24.32 205.821 24.26 205.581 24.26C204.501 23.96 203.901 23.48 203.781 22.82C203.721 22.16 203.691 21.41 203.691 20.57C203.691 20.15 203.811 19.34 204.051 18.14C204.351 16.94 204.681 15.71 205.041 14.45C205.401 13.19 205.791 12.08 206.211 11.12C206.631 10.16 207.021 9.68 207.381 9.68H213.591C214.071 9.68 214.341 9.89 214.401 10.31C214.521 10.67 214.581 11.03 214.581 11.39V11.93C214.581 13.07 214.431 14.03 214.131 14.81C213.831 15.53 213.351 16.52 212.691 17.78L213.591 18.59H227.901C227.901 18.47 227.871 18.2 227.811 17.78C227.811 17.3 227.811 17 227.811 16.88L227.001 12.38V11.93V11.48C227.001 11.36 227.031 11.15 227.091 10.85C227.211 10.49 227.301 10.13 227.361 9.77C227.481 9.35 227.571 8.99 227.631 8.69C227.751 8.33 227.811 8.09 227.811 7.97C227.811 5.99 227.361 4.52 226.461 3.55999C225.561 2.54 224.421 1.85 223.041 1.48999C221.721 1.07 220.221 0.859998 218.541 0.859998C216.921 0.799998 215.361 0.769999 213.861 0.769999C212.181 0.769999 210.651 0.799998 209.271 0.859998C207.891 0.859998 206.511 0.919997 205.131 1.04C203.811 1.1 202.401 1.19 200.901 1.31C199.401 1.37 197.691 1.49 195.771 1.67C193.971 3.23 192.771 5.33 192.171 7.97C191.571 10.55 191.271 13.19 191.271 15.89V20.48V22.82C191.271 24.26 191.361 25.64 191.541 26.96C191.721 28.22 192.231 29.42 193.071 30.56C194.751 31.88 196.461 32.81 198.201 33.35C199.941 33.83 201.681 34.19 203.421 34.43C205.221 34.61 207.021 34.76 208.821 34.88C210.681 35 212.571 35.33 214.491 35.87V37.22C214.491 37.76 214.521 38.51 214.581 39.47C214.641 40.37 214.611 41.27 214.491 42.17C214.431 43.07 214.251 43.85 213.951 44.51C213.711 45.17 213.291 45.5 212.691 45.5H205.581C205.041 45.5 204.741 45.29 204.681 44.87C204.621 44.45 204.591 43.91 204.591 43.25C204.591 42.71 204.501 42.23 204.321 41.81C204.141 41.33 203.601 41.09 202.701 41.09H201.081C200.481 41.15 199.731 41.24 198.831 41.36C197.931 41.42 197.061 41.51 196.221 41.63C195.381 41.69 194.631 41.78 193.971 41.9C193.371 41.96 193.071 41.99 193.071 41.99L192.171 42.89C192.171 42.89 192.201 43.19 192.261 43.79C192.321 44.33 192.381 44.99 192.441 45.77C192.561 46.55 192.681 47.36 192.801 48.2C192.921 48.98 193.011 49.58 193.071 50C193.071 50.06 193.071 50.39 193.071 50.99C193.131 51.59 193.251 52.25 193.431 52.97C193.611 53.63 193.881 54.23 194.241 54.77C194.601 55.25 195.111 55.43 195.771 55.31ZM232.523 33.62V36.5C232.523 37.7 232.673 38.87 232.973 40.01C233.333 41.15 233.513 42.2 233.513 43.16L232.613 44.69C232.613 45.41 232.643 46.31 232.703 47.39C232.823 48.47 232.913 49.55 232.973 50.63C233.093 51.65 233.183 52.55 233.243 53.33C233.363 54.05 233.453 54.44 233.513 54.5L234.413 55.4H261.143C261.263 55.4 261.533 55.28 261.953 55.04C262.433 54.8 262.733 54.62 262.853 54.5V54.23V53.6C262.853 53.18 262.823 52.46 262.763 51.44C262.703 50.42 262.613 49.37 262.493 48.29C262.433 47.15 262.343 46.07 262.223 45.05C262.163 44.03 262.103 43.31 262.043 42.89C261.563 42.89 260.723 42.92 259.523 42.98C258.323 42.98 257.063 42.98 255.743 42.98C254.423 42.98 253.163 42.98 251.963 42.98C250.823 42.92 250.013 42.89 249.533 42.89C248.153 42.83 247.163 42.5 246.563 41.9C245.963 41.24 245.573 40.46 245.393 39.56C245.213 38.6 245.153 37.61 245.213 36.59C245.333 35.51 245.393 34.52 245.393 33.62H257.183V21.56H246.113C246.113 19.52 246.413 17.93 247.013 16.79C247.673 15.65 248.573 14.81 249.713 14.27C250.913 13.73 252.353 13.43 254.033 13.37C255.713 13.31 257.573 13.37 259.613 13.55C260.093 13.43 260.363 13.13 260.423 12.65C260.483 12.17 260.513 11.72 260.513 11.3C260.513 10.52 260.303 9.92 259.883 9.5C259.463 9.02 259.253 8.45 259.253 7.79C259.253 6.59 259.493 5.48 259.973 4.46C260.513 3.44 260.783 2.3 260.783 1.04H242.423C241.763 1.46 240.983 1.76 240.083 1.94C239.183 2.12 238.253 2.24 237.293 2.3C236.333 2.3 235.433 2.27 234.593 2.21C233.753 2.09 233.093 2 232.613 1.94L231.713 2.84V14.45C231.713 14.57 231.923 14.96 232.343 15.62C232.823 16.22 233.213 16.7 233.513 17.06C233.573 17.12 233.693 17.24 233.873 17.42C234.053 17.6 234.233 17.78 234.413 17.96C234.653 18.14 234.863 18.32 235.043 18.5C235.223 18.68 235.313 18.8 235.313 18.86V19.04C235.313 19.34 235.163 19.67 234.863 20.03C234.623 20.39 234.353 20.75 234.053 21.11C233.753 21.41 233.453 21.71 233.153 22.01C232.853 22.25 232.673 22.4 232.613 22.46V24.62C232.613 25.7 232.583 26.81 232.523 27.95C232.523 29.09 232.523 30.23 232.523 31.37V33.62ZM325.74 51.08C325.74 53.06 325.56 54.68 325.2 55.94C324.84 57.14 324.24 58.13 323.4 58.91C322.62 59.69 321.6 60.32 320.34 60.8C319.08 61.34 317.55 61.88 315.75 62.42H314.22C313.5 62.42 312.72 62.42 311.88 62.42C311.1 62.48 310.35 62.51 309.63 62.51H308.1C303.36 62.51 299.67 62.39 297.03 62.15C294.45 61.91 292.53 61.19 291.27 59.99C290.01 58.85 289.26 57.05 289.02 54.59C288.78 52.07 288.66 48.53 288.66 43.97V42.35C288.66 42.35 288.66 41.96 288.66 41.18C288.72 40.4 288.75 39.44 288.75 38.3C288.81 37.16 288.84 35.93 288.84 34.61C288.9 33.23 288.93 32 288.93 30.92V28.4C288.93 27.86 288.9 27.62 288.84 27.68L288.93 26.78V23.18C289.11 23 289.38 22.7 289.74 22.28C290.16 21.8 290.58 21.29 291 20.75C291.42 20.21 291.78 19.67 292.08 19.13C292.44 18.53 292.62 18.02 292.62 17.6C292.62 17.48 292.59 17.39 292.53 17.33C292.53 17.21 292.53 17.15 292.53 17.15L289.83 14.9C289.83 14.9 289.8 14.72 289.74 14.36C289.74 14 289.74 13.79 289.74 13.73C289.74 13.43 289.92 13.1 290.28 12.74C290.64 12.38 291.03 12.05 291.45 11.75C291.87 11.45 292.26 11.21 292.62 11.03C293.04 10.79 293.31 10.64 293.43 10.58C293.79 10.4 294.27 10.16 294.87 9.86C295.47 9.5 296.04 9.2 296.58 8.96C297.18 8.66 297.69 8.42 298.11 8.24C298.53 8 298.77 7.88 298.83 7.88H323.13L324.03 8.78C324.03 8.78 324.06 9.2 324.12 10.04C324.24 10.88 324.33 11.87 324.39 13.01C324.51 14.15 324.6 15.35 324.66 16.61C324.78 17.81 324.87 18.8 324.93 19.58V20.48C324.93 20.9 324.93 21.35 324.93 21.83C324.99 22.31 325.02 22.76 325.02 23.18V24.08H312.33C312.57 23.18 312.6 22.46 312.42 21.92C312.24 21.32 311.91 20.84 311.43 20.48C310.95 20.12 310.38 19.88 309.72 19.76C309.12 19.64 308.49 19.58 307.83 19.58C307.65 19.58 307.35 19.61 306.93 19.67C306.51 19.73 306.06 19.82 305.58 19.94C305.16 20 304.74 20.09 304.32 20.21C303.96 20.33 303.69 20.42 303.51 20.48C303.03 21.02 302.73 21.53 302.61 22.01C302.55 22.43 302.52 22.97 302.52 23.63C302.52 24.65 302.4 25.64 302.16 26.6C301.92 27.5 301.86 28.46 301.98 29.48L302.52 30.02L304.95 42.71L303.33 50.72C303.33 51.2 303.63 51.62 304.23 51.98C304.89 52.34 305.61 52.64 306.39 52.88C307.23 53.06 308.04 53.21 308.82 53.33C309.6 53.45 310.14 53.51 310.44 53.51C310.98 53.51 311.4 53.33 311.7 52.97C312.06 52.61 312.33 52.19 312.51 51.71C312.69 51.23 312.81 50.72 312.87 50.18C312.93 49.58 312.99 49.07 313.05 48.65H324.75C325.23 48.65 325.5 48.86 325.56 49.28C325.68 49.64 325.74 50.03 325.74 50.45V51.08ZM345.411 51.17L344.691 62.42L334.701 61.88L327.411 62.15L331.011 38.93L330.651 31.37L335.511 23.9L333.891 13.64C333.891 13.1 334.371 12.47 335.331 11.75C336.351 11.03 337.491 10.34 338.751 9.68C340.071 8.96 341.361 8.39 342.621 7.97C343.881 7.49 344.781 7.25 345.321 7.25L347.751 8.96C348.651 8.96 349.731 8.87 350.991 8.69C352.251 8.45 353.541 8.21 354.861 7.97C356.181 7.67 357.471 7.43 358.731 7.25C359.991 7.01 361.071 6.88999 361.971 6.88999L367.191 23.36L365.481 34.34L367.911 40.28C367.911 43.88 368.331 47.57 369.171 51.35C370.011 55.13 370.731 58.94 371.331 62.78C371.151 62.78 370.671 62.72 369.891 62.6C369.111 62.48 368.271 62.33 367.371 62.15C366.471 62.03 365.631 61.91 364.851 61.79C364.071 61.67 363.561 61.61 363.321 61.61L359.001 62.33L355.581 52.43L345.411 51.17ZM351.711 23.9H350.811C350.691 24.02 350.361 24.35 349.821 24.89C349.341 25.43 348.771 26.03 348.111 26.69C347.511 27.35 346.971 27.98 346.491 28.58C346.011 29.12 345.771 29.42 345.771 29.48L346.851 35.24L345.591 40.1L353.241 40.46L351.711 23.9ZM375.687 62.51C376.407 62.57 377.697 62.66 379.557 62.78C381.477 62.9 383.487 62.99 385.587 63.05C387.687 63.17 389.667 63.26 391.527 63.32C393.447 63.38 394.767 63.41 395.487 63.41H395.937H399.087C400.947 63.41 402.807 63.2 404.667 62.78C406.527 62.36 407.967 61.37 408.987 59.81V59.36V58.91L408.087 52.61V51.71C408.087 49.97 408.237 48.35 408.537 46.85C408.897 45.29 409.077 43.64 409.077 41.9C409.077 39.2 408.657 37.28 407.817 36.14C406.977 34.94 405.837 34.13 404.397 33.71C402.957 33.23 401.247 32.96 399.267 32.9C397.287 32.84 395.127 32.57 392.787 32.09C392.487 32.03 391.977 31.94 391.257 31.82C390.597 31.7 389.877 31.61 389.097 31.55C388.317 31.43 387.597 31.34 386.937 31.28C386.277 31.22 385.827 31.19 385.587 31.19C384.507 30.89 383.907 30.41 383.787 29.75C383.727 29.03 383.697 28.25 383.697 27.41C383.697 26.99 383.817 26.18 384.057 24.98C384.357 23.78 384.687 22.55 385.047 21.29C385.407 20.03 385.797 18.92 386.217 17.96C386.637 16.94 387.027 16.43 387.387 16.43H393.687C394.227 16.43 394.527 16.76 394.587 17.42C394.647 18.02 394.677 18.44 394.677 18.68C394.677 19.82 394.527 20.78 394.227 21.56C393.927 22.34 393.447 23.33 392.787 24.53L393.687 25.43H408.177C408.177 25.31 408.147 25.01 408.087 24.53C408.087 24.05 408.087 23.75 408.087 23.63L407.187 19.13V18.68V18.23C407.187 18.17 407.217 17.96 407.277 17.6C407.397 17.24 407.517 16.88 407.637 16.52C407.757 16.1 407.847 15.71 407.907 15.35C408.027 14.99 408.087 14.75 408.087 14.63C408.087 12.65 407.637 11.15 406.737 10.13C405.837 9.11 404.667 8.42 403.227 8.06C401.847 7.64 400.317 7.43 398.637 7.43C397.017 7.37 395.457 7.34 393.957 7.34C392.217 7.34 390.657 7.37 389.277 7.43C387.897 7.43 386.517 7.49 385.137 7.61C383.757 7.67 382.317 7.76 380.817 7.88C379.317 8 377.607 8.15 375.687 8.33C373.827 9.83 372.597 11.93 371.997 14.63C371.397 17.27 371.097 19.94 371.097 22.64V27.32V29.75C371.097 31.13 371.187 32.51 371.367 33.89C371.607 35.21 372.147 36.41 372.987 37.49C374.667 38.81 376.377 39.74 378.117 40.28C379.857 40.82 381.627 41.21 383.427 41.45C385.227 41.63 387.057 41.78 388.917 41.9C390.777 42.02 392.667 42.35 394.587 42.89V44.24C394.587 44.78 394.617 45.53 394.677 46.49C394.737 47.39 394.707 48.32 394.587 49.28C394.527 50.18 394.347 50.96 394.047 51.62C393.807 52.28 393.387 52.61 392.787 52.61H385.587C385.047 52.61 384.747 52.37 384.687 51.89C384.627 51.41 384.597 50.9 384.597 50.36C384.597 49.82 384.477 49.31 384.237 48.83C384.057 48.35 383.517 48.11 382.617 48.11H381.087C380.487 48.17 379.737 48.26 378.837 48.38C377.937 48.44 377.037 48.53 376.137 48.65C375.297 48.71 374.547 48.8 373.887 48.92C373.287 48.98 372.987 49.01 372.987 49.01L372.087 49.91C372.087 50.03 372.117 50.51 372.177 51.35C372.297 52.19 372.417 53.21 372.537 54.41C372.717 55.61 372.867 56.51 372.987 57.11C372.987 57.23 372.987 57.62 372.987 58.28C373.047 58.88 373.167 59.51 373.347 60.17C373.527 60.83 373.797 61.4 374.157 61.88C374.517 62.42 375.027 62.63 375.687 62.51ZM412.613 40.55V43.52C412.613 44.72 412.763 45.92 413.063 47.12C413.423 48.32 413.603 49.37 413.603 50.27L412.703 51.8C412.703 52.52 412.733 53.42 412.793 54.5C412.913 55.58 413.003 56.66 413.063 57.74C413.183 58.76 413.273 59.66 413.333 60.44C413.453 61.22 413.543 61.64 413.603 61.7L414.503 62.6H441.503C441.623 62.6 441.923 62.48 442.403 62.24C442.883 62 443.183 61.82 443.303 61.7V61.34V60.8C443.303 60.38 443.273 59.66 443.213 58.64C443.153 57.62 443.063 56.54 442.943 55.4C442.883 54.26 442.793 53.18 442.673 52.16C442.553 51.14 442.463 50.42 442.403 50C441.923 50 441.083 50.03 439.883 50.09C438.683 50.09 437.423 50.09 436.103 50.09C434.783 50.09 433.523 50.09 432.323 50.09C431.123 50.03 430.283 50 429.803 50C428.423 49.94 427.433 49.58 426.833 48.92C426.233 48.26 425.843 47.48 425.663 46.58C425.483 45.62 425.423 44.6 425.483 43.52C425.603 42.44 425.663 41.45 425.663 40.55H437.543V28.4H426.383C426.383 26.36 426.683 24.77 427.283 23.63C427.943 22.43 428.873 21.56 430.073 21.02C431.273 20.48 432.683 20.18 434.303 20.12C435.983 20.06 437.873 20.12 439.973 20.3C440.513 20.18 440.813 19.88 440.873 19.4C440.933 18.92 440.963 18.47 440.963 18.05C440.963 17.33 440.723 16.73 440.243 16.25C439.823 15.71 439.613 15.11 439.613 14.45C439.613 13.25 439.853 12.14 440.333 11.12C440.873 10.1 441.143 8.96 441.143 7.7H422.603C421.943 8.12 421.133 8.42 420.173 8.6C419.273 8.72 418.343 8.81 417.383 8.87C416.483 8.87 415.613 8.84 414.773 8.78C413.933 8.72 413.243 8.66 412.703 8.6L411.803 9.5V21.2C411.803 21.32 412.013 21.71 412.433 22.37C412.913 23.03 413.303 23.54 413.603 23.9C413.663 23.96 413.783 24.08 413.963 24.26C414.143 24.38 414.323 24.56 414.503 24.8C414.743 24.98 414.953 25.16 415.133 25.34C415.313 25.52 415.403 25.64 415.403 25.7V25.88C415.403 26.18 415.253 26.51 414.953 26.87C414.713 27.23 414.443 27.59 414.143 27.95C413.843 28.25 413.543 28.55 413.243 28.85C412.943 29.09 412.763 29.24 412.703 29.3V31.55C412.703 32.63 412.673 33.77 412.613 34.97C412.613 36.11 412.613 37.22 412.613 38.3V40.55ZM450.482 62.51C451.202 62.57 452.492 62.66 454.352 62.78C456.272 62.9 458.282 62.99 460.382 63.05C462.482 63.17 464.462 63.26 466.322 63.32C468.242 63.38 469.562 63.41 470.282 63.41H470.732H473.882C475.742 63.41 477.602 63.2 479.462 62.78C481.322 62.36 482.762 61.37 483.782 59.81V59.36V58.91L482.882 52.61V51.71C482.882 49.97 483.032 48.35 483.332 46.85C483.692 45.29 483.872 43.64 483.872 41.9C483.872 39.2 483.452 37.28 482.612 36.14C481.772 34.94 480.632 34.13 479.192 33.71C477.752 33.23 476.042 32.96 474.062 32.9C472.082 32.84 469.922 32.57 467.582 32.09C467.282 32.03 466.772 31.94 466.052 31.82C465.392 31.7 464.672 31.61 463.892 31.55C463.112 31.43 462.392 31.34 461.732 31.28C461.072 31.22 460.622 31.19 460.382 31.19C459.302 30.89 458.702 30.41 458.582 29.75C458.522 29.03 458.492 28.25 458.492 27.41C458.492 26.99 458.612 26.18 458.852 24.98C459.152 23.78 459.482 22.55 459.842 21.29C460.202 20.03 460.592 18.92 461.012 17.96C461.432 16.94 461.822 16.43 462.182 16.43H468.482C469.022 16.43 469.322 16.76 469.382 17.42C469.442 18.02 469.472 18.44 469.472 18.68C469.472 19.82 469.322 20.78 469.022 21.56C468.722 22.34 468.242 23.33 467.582 24.53L468.482 25.43H482.972C482.972 25.31 482.942 25.01 482.882 24.53C482.882 24.05 482.882 23.75 482.882 23.63L481.982 19.13V18.68V18.23C481.982 18.17 482.012 17.96 482.072 17.6C482.192 17.24 482.312 16.88 482.432 16.52C482.552 16.1 482.642 15.71 482.702 15.35C482.822 14.99 482.882 14.75 482.882 14.63C482.882 12.65 482.432 11.15 481.532 10.13C480.632 9.11 479.462 8.42 478.022 8.06C476.642 7.64 475.112 7.43 473.432 7.43C471.812 7.37 470.252 7.34 468.752 7.34C467.012 7.34 465.452 7.37 464.072 7.43C462.692 7.43 461.312 7.49 459.932 7.61C458.552 7.67 457.112 7.76 455.612 7.88C454.112 8 452.402 8.15 450.482 8.33C448.622 9.83 447.392 11.93 446.792 14.63C446.192 17.27 445.892 19.94 445.892 22.64V27.32V29.75C445.892 31.13 445.982 32.51 446.162 33.89C446.402 35.21 446.942 36.41 447.782 37.49C449.462 38.81 451.172 39.74 452.912 40.28C454.652 40.82 456.422 41.21 458.222 41.45C460.022 41.63 461.852 41.78 463.712 41.9C465.572 42.02 467.462 42.35 469.382 42.89V44.24C469.382 44.78 469.412 45.53 469.472 46.49C469.532 47.39 469.502 48.32 469.382 49.28C469.322 50.18 469.142 50.96 468.842 51.62C468.602 52.28 468.182 52.61 467.582 52.61H460.382C459.842 52.61 459.542 52.37 459.482 51.89C459.422 51.41 459.392 50.9 459.392 50.36C459.392 49.82 459.272 49.31 459.032 48.83C458.852 48.35 458.312 48.11 457.412 48.11H455.882C455.282 48.17 454.532 48.26 453.632 48.38C452.732 48.44 451.832 48.53 450.932 48.65C450.092 48.71 449.342 48.8 448.682 48.92C448.082 48.98 447.782 49.01 447.782 49.01L446.882 49.91C446.882 50.03 446.912 50.51 446.972 51.35C447.092 52.19 447.212 53.21 447.332 54.41C447.512 55.61 447.662 56.51 447.782 57.11C447.782 57.23 447.782 57.62 447.782 58.28C447.842 58.88 447.962 59.51 448.142 60.17C448.322 60.83 448.592 61.4 448.952 61.88C449.312 62.42 449.822 62.63 450.482 62.51Z" fill="#AB882E"/>
</svg>
