<svg width="337" height="19" viewBox="0 0 337 19" fill="none" xmlns="http://www.w3.org/2000/svg">
<g filter="url(#filter0_d_452:1867)">
<path d="M1.11108 15.6452C1.13326 15.4013 1.11108 15.1574 1.04456 14.9356C0.978032 14.7139 0.955857 14.4921 1.00021 14.226L1.04456 13.9821L1.33283 13.4721C1.51023 13.0951 1.64328 12.7403 1.73198 12.3855C1.82068 12.0529 1.90938 11.7202 1.99808 11.4098C2.06461 11.0993 2.15331 10.7889 2.26418 10.4784C2.35288 10.168 2.50811 9.83535 2.70768 9.48056L2.72986 9.43621C2.72986 9.41403 2.75203 9.39186 2.75203 9.34751C2.75203 9.25881 2.70768 9.19228 2.64116 9.14793C2.55246 9.10358 2.48593 9.03706 2.39723 8.99271C2.30853 8.94836 2.21983 8.88183 2.15331 8.79313C2.06461 8.70443 2.04243 8.59356 2.06461 8.41616C2.08678 8.15006 2.13113 7.88396 2.21983 7.61786C2.30853 7.35176 2.39723 7.08566 2.50811 6.81956C2.59681 6.55346 2.6855 6.30953 2.77421 6.04343C2.8629 5.77733 2.90725 5.51123 2.9516 5.24513C2.99595 4.80164 2.97378 4.40249 2.88508 4.02551C2.79638 3.67071 2.79638 3.24939 2.8629 2.76154C2.8629 2.67284 2.88508 2.53979 2.92943 2.36239C2.9516 2.18499 2.97378 2.07411 2.99595 2.02976L3.26205 1.76366L8.16273 1.18711L9.6928 8.88183L9.71497 8.90401C9.73715 8.90401 9.75932 8.90401 9.7815 8.90401C9.80367 8.90401 9.82585 8.88183 9.8702 8.88183L9.93672 8.85966C9.98107 8.83748 10.0254 8.79313 10.0919 8.72661L10.225 8.59356C10.2472 8.50486 10.3137 8.30528 10.4024 8.03918C10.4911 7.77308 10.602 7.48481 10.7128 7.17436C10.8237 6.88608 10.9346 6.61998 11.0455 6.35388C11.1342 6.08778 11.2229 5.91038 11.2672 5.82168L11.5555 5.31166C11.5998 5.26731 11.7107 5.13426 11.8438 4.93468C11.9768 4.73511 12.132 4.51336 12.2873 4.29161C12.4425 4.06986 12.5977 3.87028 12.7308 3.67071C12.8638 3.47114 12.9747 3.31591 13.019 3.22721C13.019 3.22721 13.019 3.18286 13.0412 3.11634C13.0412 3.07199 13.0634 3.02764 13.0856 2.98329C13.0634 2.96111 13.0634 2.91676 13.0634 2.85024V2.73936C13.0634 2.73936 13.0412 2.67284 12.9969 2.58414C12.9525 2.49544 12.9082 2.40674 12.8638 2.29586C12.8195 2.20716 12.7751 2.09629 12.7308 2.00759C12.6864 1.91889 12.6864 1.87454 12.6864 1.83019C12.6864 1.80801 12.6642 1.78584 12.6642 1.76366C12.6642 1.76366 12.6642 1.71931 12.6642 1.67496C12.6864 1.45321 12.7751 1.20929 12.9082 0.965363C13.0412 0.721438 13.2408 0.588388 13.5512 0.544038L17.7867 0.0340136L18.2302 0.455338C18.0084 1.96324 17.8754 3.44896 17.831 4.89033C17.7867 6.35388 17.6758 7.81743 17.4984 9.32533C17.3875 10.3454 17.2323 11.3433 17.0327 12.319C16.8331 13.2947 16.6779 14.2704 16.567 15.2904C16.2566 15.3348 15.9683 15.3569 15.7022 15.3348L14.9261 15.2904C14.66 15.2904 14.3939 15.2682 14.1056 15.2682C13.7952 15.2682 13.4404 15.2904 13.0412 15.3348L13.9947 6.46476L13.396 6.53128C13.396 6.59781 13.3738 6.70868 13.3295 6.88608C13.2851 7.06348 13.2408 7.24088 13.1964 7.41828C13.1521 7.61786 13.1077 7.79526 13.0634 7.95048C13.019 8.12788 12.9747 8.21658 12.9747 8.26093C12.9303 8.39398 12.886 8.57138 12.7973 8.83748C12.7086 9.10358 12.5977 9.39186 12.4868 9.70231C12.3538 10.0349 12.2429 10.3676 12.1099 10.7224C11.9768 11.0772 11.8438 11.432 11.7329 11.7646C11.5998 12.0972 11.489 12.3855 11.4003 12.6516C11.3116 12.9177 11.245 13.1173 11.2007 13.2503C11.112 13.4277 11.0233 13.6495 10.9346 13.8934C10.8237 14.1595 10.7128 14.4034 10.6241 14.6473C10.5354 14.8913 10.4467 15.0908 10.358 15.2682C10.2693 15.4456 10.2028 15.5122 10.2028 15.5122L7.96315 15.7783C7.9188 15.7783 7.85228 15.5787 7.7414 15.1352C7.63053 14.6917 7.51965 14.1595 7.3866 13.5386C7.25355 12.9177 7.09833 12.2746 6.96528 11.6094C6.83223 10.9441 6.72135 10.4119 6.63265 9.96841C6.61048 9.92406 6.5883 9.83535 6.5883 9.70231C6.56613 9.56926 6.54395 9.43621 6.52178 9.25881C6.4996 9.08141 6.47743 8.90401 6.45525 8.72661C6.43308 8.54921 6.4109 8.39398 6.4109 8.26093C6.36655 8.03918 6.34438 7.90613 6.34438 7.86178C6.34438 7.81743 6.3222 7.75091 6.27785 7.61786C6.21133 7.52916 6.18915 7.44046 6.18915 7.39611H6.1448C6.10045 7.39611 6.07828 7.39611 6.07828 7.39611C6.03393 7.39611 6.01175 7.41828 5.9674 7.41828H5.92305C5.8787 7.46263 5.81218 7.55133 5.74565 7.68438C5.65695 7.81743 5.63478 7.90613 5.63478 7.92831L5.56825 8.41616C5.5239 8.66008 5.50173 8.90401 5.47955 9.14793C5.4352 9.41403 5.41303 9.65796 5.39085 9.8797L5.3465 10.3676C5.21345 11.4763 5.14693 12.5629 5.12475 13.6273C5.10258 14.6917 5.03605 15.7561 4.92518 16.8648L0.689757 17.3748C0.689757 17.3305 0.711932 17.2418 0.756282 17.1087C0.800632 16.9757 0.844982 16.8205 0.889332 16.6431C0.933682 16.4657 0.955857 16.3104 1.00021 16.1774C1.04456 16.0443 1.06673 15.9335 1.06673 15.8891L1.11108 15.6452ZM22.0046 13.2725H24.5325L25.1313 15.6009L26.24 15.2904H26.617C26.8166 15.2904 27.0383 15.3126 27.2601 15.3126C27.4818 15.3348 27.6814 15.3348 27.881 15.3348H28.2358C28.1914 14.4034 28.1027 13.4942 27.9918 12.6072C27.881 11.7202 27.881 10.8111 27.9697 9.92406L27.5262 8.54921L28.2358 5.82168L27.3488 1.94106C27.127 1.98541 26.8387 2.02976 26.5283 2.11846C26.1957 2.20716 25.863 2.31804 25.5304 2.40674C25.1978 2.51761 24.8652 2.60631 24.5547 2.69501C24.2221 2.78371 23.956 2.85024 23.7342 2.87241L23.1577 2.53979C23.0246 2.56196 22.7807 2.65066 22.4481 2.80589C22.1155 2.96111 21.7828 3.13851 21.4502 3.33809C21.0954 3.53766 20.8071 3.73724 20.541 3.93681C20.2749 4.15856 20.1197 4.31379 20.1197 4.44683L20.2528 6.90826L18.8336 8.88183L18.7227 10.7224L17.2148 16.4878L19.0553 16.2217L21.5611 16.0443L22.0046 13.2725ZM24.333 6.42041L24.2664 10.4119L22.3594 10.5671L22.8029 9.32533L22.692 7.95048C22.692 7.95048 22.7585 7.86178 22.8916 7.70656C23.0246 7.55133 23.1799 7.37393 23.3573 7.19653C23.5347 7.01913 23.6899 6.86391 23.8451 6.70868L24.1112 6.44258L24.333 6.42041ZM32.2912 10.7445C32.2912 10.6558 32.3355 10.5671 32.4686 10.4784C32.5795 10.4119 32.7125 10.3454 32.8677 10.301C33.023 10.2567 33.1782 10.2123 33.3334 10.168C33.4886 10.1458 33.5995 10.1236 33.666 10.1236L33.8878 10.1015C34.043 10.0793 34.1761 10.1015 34.3091 10.1458C34.4422 10.1902 34.4865 10.301 34.4643 10.4784L34.1095 14.0043L33.9987 15.8891C34.5087 15.867 34.9744 15.867 35.4179 15.867C35.8392 15.867 36.1496 15.867 36.3714 15.8226L36.7484 15.7783C36.8814 15.7783 37.0366 15.7117 37.2362 15.623C37.4136 15.5343 37.6132 15.4456 37.7906 15.3126C37.968 15.1795 38.1454 15.0465 38.2784 14.8913C38.4115 14.7582 38.5002 14.603 38.5224 14.4699L37.7684 9.01488L36.0166 8.66008L36.0388 8.43833C36.0831 8.39398 36.2162 8.32746 36.3936 8.19441C36.571 8.06136 36.7484 7.92831 36.9701 7.77308C37.1919 7.61786 37.3914 7.46263 37.5688 7.32958C37.7462 7.19653 37.9015 7.08566 37.9902 7.01913C38.0123 7.01913 38.0567 6.97478 38.101 6.90826C38.1454 6.86391 38.1897 6.81956 38.2341 6.77521L39.7642 2.91676C39.7642 2.89459 39.8085 2.82806 39.8529 2.71719C39.8972 2.60631 39.8972 2.53979 39.8529 2.53979C39.5868 2.60631 39.3428 2.62849 39.0767 2.62849C38.8106 2.62849 38.5445 2.62849 38.3228 2.60631C38.0789 2.58414 37.8793 2.56196 37.7019 2.53979C37.5245 2.51761 37.4136 2.51761 37.3471 2.51761L37.0366 2.56196C36.8814 2.58414 36.7262 2.60631 36.5488 2.62849C36.3714 2.65066 36.194 2.67284 36.0609 2.69501L35.7727 2.71719C35.7283 2.78371 35.684 2.89459 35.5953 3.04981C35.5066 3.20504 35.44 3.36026 35.3735 3.53766C35.2848 3.71506 35.2183 3.89246 35.1518 4.04768C35.0852 4.20291 35.0409 4.29161 35.0409 4.33596C35.0409 4.38031 35.0409 4.44683 35.0852 4.53553C35.1296 4.64641 35.1739 4.75728 35.2183 4.86816C35.2626 4.97903 35.2848 5.08991 35.3292 5.17861C35.3735 5.28948 35.3957 5.35601 35.3957 5.37818C35.3735 5.40036 35.3735 5.46688 35.3735 5.57776V5.82168C35.3513 5.95473 35.2626 6.13213 35.1296 6.35388C34.9965 6.57563 34.8191 6.77521 34.6417 6.97478C34.4643 7.19653 34.2869 7.37393 34.1095 7.50698C33.9321 7.66221 33.8213 7.75091 33.7326 7.75091C33.6882 7.75091 33.5773 7.72873 33.3556 7.64003C33.1338 7.57351 32.9786 7.50698 32.8677 7.41828C32.8234 7.39611 32.779 7.35176 32.7347 7.30741C32.6903 7.26306 32.6682 7.24088 32.6682 7.21871L33.2891 2.89459C33.2891 2.89459 33.2004 2.89459 33.0451 2.89459C32.8899 2.89459 32.7125 2.91676 32.5129 2.93894C32.3134 2.96111 32.1138 2.98329 31.9142 2.98329C31.6925 3.00546 31.5372 3.02764 31.4485 3.02764C31.382 3.02764 31.2711 3.04981 31.1159 3.04981C30.9607 3.07199 30.8055 3.09416 30.6281 3.09416C30.4507 3.09416 30.2954 3.11634 30.1624 3.11634C30.0072 3.13851 29.9185 3.13851 29.8741 3.13851L29.231 8.94836L29.4084 9.34751L28.6545 16.3991C28.7875 16.3991 28.9871 16.377 29.2754 16.3326C29.5415 16.3104 29.8741 16.2883 30.2289 16.2439C30.5837 16.2217 30.9829 16.1996 31.382 16.1552C31.7812 16.133 32.1581 16.1109 32.5129 16.0665L32.2912 10.7445ZM39.7375 11.0106L39.804 10.4563C39.8262 10.1902 39.8483 9.92406 39.8927 9.63578C39.9149 9.34751 39.937 9.05923 39.9814 8.79313L40.0479 8.26093C40.0479 8.26093 40.0923 8.21658 40.181 8.12788C40.2697 8.06136 40.3584 7.97266 40.4471 7.88396C40.5358 7.79526 40.6023 7.68438 40.691 7.59568C40.7575 7.50698 40.8019 7.41828 40.8019 7.32958L40.824 7.28523C40.824 7.28523 40.8019 7.26306 40.7575 7.21871C40.7132 7.17436 40.6688 7.13001 40.6245 7.08566C40.5801 7.04131 40.5358 7.01913 40.4914 6.97478C40.4471 6.95261 40.4249 6.93043 40.4249 6.90826C40.3362 6.84173 40.2475 6.73086 40.1588 6.57563C40.0701 6.42041 40.0257 6.33171 40.0257 6.28736L40.3584 3.42679L40.5801 3.18286C40.7132 3.18286 40.8684 3.18286 41.0901 3.18286C41.3119 3.18286 41.5336 3.16069 41.7776 3.11634C41.9993 3.07199 42.2432 3.02764 42.4872 2.96111C42.7089 2.89459 42.9307 2.80589 43.1081 2.67284L47.787 2.11846C47.7426 2.42891 47.6318 2.71719 47.4765 2.98329C47.3213 3.24939 47.2326 3.51549 47.2104 3.80376C47.1883 3.98116 47.2326 4.11421 47.3435 4.22509C47.4322 4.33596 47.4765 4.46901 47.4544 4.64641C47.4322 4.75728 47.41 4.86816 47.3878 4.97903C47.3435 5.11208 47.277 5.17861 47.1439 5.22296C46.6117 5.26731 46.146 5.31166 45.7247 5.35601C45.3034 5.42253 44.9486 5.53341 44.6381 5.71081C44.3277 5.88821 44.0616 6.10996 43.8842 6.42041C43.6846 6.73086 43.5516 7.13001 43.5072 7.61786L46.3234 7.28523L45.9908 10.2567L42.9972 10.6115C42.9528 10.8332 42.9307 11.0772 42.8863 11.3433C42.842 11.6094 42.8198 11.8533 42.842 12.075C42.8641 12.2968 42.9528 12.4964 43.0859 12.6294C43.2189 12.7846 43.4407 12.8512 43.7955 12.8068C43.9285 12.7846 44.1281 12.7625 44.4386 12.7403C44.7268 12.7181 45.0373 12.6738 45.3921 12.6294C45.7025 12.6072 46.013 12.5629 46.3234 12.5185C46.6339 12.4742 46.8335 12.452 46.9665 12.4298V12.962C46.9665 13.206 46.9443 13.4721 46.9443 13.7382C46.9443 14.0043 46.9222 14.2704 46.9222 14.5143C46.9222 14.7804 46.9 14.9578 46.9 15.0465V15.1795V15.2461C46.8556 15.2904 46.7669 15.3569 46.6339 15.4235C46.5008 15.49 46.4343 15.5343 46.4121 15.5343L39.6266 16.3326L39.4048 16.1552C39.4048 16.1552 39.3827 16.0443 39.3827 15.867C39.3827 15.6896 39.3827 15.4678 39.3827 15.2017C39.3827 14.9356 39.4048 14.6695 39.4048 14.4034C39.4048 14.1373 39.427 13.9377 39.4492 13.7603L39.7153 13.3612C39.7375 13.1394 39.7153 12.8955 39.6709 12.6072C39.6266 12.3411 39.6044 12.0529 39.6488 11.7424L39.7375 11.0106ZM58.3783 9.36968L58.8218 10.9219C58.8218 10.9441 58.9105 10.9441 59.1323 10.8998L59.5536 10.8554C59.5092 11.0106 59.4205 11.188 59.2653 11.3876C59.1101 11.5872 59.0436 11.8089 59.0657 12.0529C58.9327 12.2746 58.8218 12.4298 58.6888 12.4742C58.5557 12.5407 58.4005 12.5851 58.2231 12.6072L57.9348 12.6516C57.8461 12.6738 57.6909 12.6959 57.5135 12.6959C57.3139 12.7181 57.203 12.7181 57.203 12.7181C57.1587 12.7181 57.1143 12.6959 57.07 12.6516C57.0256 12.6072 57.0035 12.5629 57.0035 12.5185L57.7131 5.91038C57.7131 5.71081 57.8239 5.57776 58.0457 5.48906C58.2674 5.42253 58.4448 5.37818 58.6222 5.33383L58.9105 5.28948L59.1323 5.26731C59.2875 5.24513 59.4871 5.22296 59.7088 5.22296C59.9306 5.22296 60.0636 5.20078 60.108 5.20078C60.108 5.28948 60.1301 5.33383 60.1301 5.35601V5.40036C60.108 5.51123 60.0858 5.62211 60.0414 5.71081C59.9971 5.79951 59.9749 5.88821 59.9527 5.97691C59.9527 6.10996 59.9971 6.22083 60.108 6.30953C60.1967 6.39823 60.4406 6.50911 60.7954 6.61998C60.7954 6.59781 60.8397 6.59781 60.9063 6.59781C60.9728 6.61998 61.0615 6.61998 61.1945 6.59781C61.3498 6.59781 61.5493 6.57563 61.8154 6.53128C62.0815 6.50911 62.3255 6.46476 62.5916 6.42041C62.8355 6.37606 63.0572 6.33171 63.2346 6.28736C63.412 6.24301 63.5229 6.19866 63.5229 6.10996C63.5673 5.57776 63.5894 5.06773 63.5451 4.62423C63.5007 4.18073 63.3899 3.78159 63.2125 3.47114C63.0351 3.16069 62.7468 2.93894 62.392 2.80589C62.0372 2.67284 61.5493 2.62849 60.9728 2.67284C60.6845 2.71719 60.4184 2.65066 60.1745 2.51761C59.9084 2.38456 59.6645 2.34021 59.3984 2.34021C59.221 2.38456 59.0436 2.42891 58.8883 2.49544C58.7331 2.58414 58.5779 2.67284 58.4005 2.76154C58.2231 2.85024 58.0457 2.93894 57.8461 3.02764C57.6244 3.11634 57.3804 3.18286 57.07 3.20504C56.8039 3.24939 56.56 3.29374 56.316 3.33809C56.0721 3.38244 55.8504 3.47114 55.6286 3.55984C55.4069 3.67071 55.1851 3.80376 55.0077 3.95898C54.8081 4.13639 54.6307 4.33596 54.4755 4.60206C54.3646 5.11208 54.2759 5.53341 54.2316 5.86603C54.1651 6.19866 54.1207 6.48693 54.0764 6.73086C54.032 6.99696 53.9877 7.21871 53.9655 7.44046C53.9211 7.66221 53.899 7.92831 53.8768 8.19441L53.7216 9.65796C53.6772 10.0128 53.6107 10.4119 53.5442 10.8332C53.4776 11.2767 53.4555 11.7424 53.4555 12.2303C53.4555 12.7403 53.4998 13.2725 53.6329 13.8269C53.7437 14.4034 53.9655 14.98 54.3203 15.5787L54.6529 15.7561C54.6529 15.7561 54.7416 15.8004 54.8968 15.8891C55.0521 15.9778 55.1851 16.0222 55.2738 16C56.2495 15.8891 57.2474 15.7117 58.2453 15.4678C59.221 15.2239 60.2188 15.0243 61.2167 14.8469C61.4828 14.8247 61.6602 14.7139 61.7489 14.4921C61.8376 14.2704 61.9263 14.0708 61.9928 13.8712C62.015 13.8269 62.0594 13.6716 62.1259 13.4499C62.1924 13.2281 62.2589 12.962 62.3476 12.6738C62.4363 12.3855 62.5029 12.0972 62.5694 11.8311C62.6359 11.565 62.6803 11.3433 62.7246 11.188L62.7468 11.0772C62.7468 10.9441 62.7468 10.8111 62.7024 10.7002C62.6581 10.5893 62.5916 10.4784 62.525 10.3454C62.8133 10.2789 63.0572 10.2123 63.2568 10.1458C63.4564 10.1015 63.5673 10.0349 63.5673 9.96841L63.789 7.70656C63.7003 7.70656 63.5673 7.70656 63.3899 7.70656C63.2125 7.70656 63.0351 7.68438 62.8577 7.68438C62.6803 7.68438 62.5029 7.70656 62.3255 7.70656C62.1481 7.70656 61.9928 7.72873 61.9041 7.72873L61.0171 7.81743C60.8841 7.83961 60.7067 7.88396 60.4849 7.92831C60.241 7.97266 59.9971 8.03918 59.731 8.08353C59.4649 8.12788 59.1988 8.19441 58.977 8.23876C58.7331 8.28311 58.5779 8.32746 58.4892 8.34963C58.4892 8.39398 58.467 8.46051 58.467 8.54921C58.4448 8.63791 58.4227 8.74878 58.4005 8.85966C58.3783 8.99271 58.3561 9.10358 58.3561 9.19228C58.334 9.28098 58.334 9.34751 58.334 9.39186L58.3783 9.36968ZM67.5996 15.5343C67.3335 15.5787 67.0896 15.6452 66.9122 15.7561C66.7126 15.8891 66.4687 15.9557 66.1804 15.9778C65.6039 16.0665 65.116 16.0222 64.7612 15.867C64.4064 15.7339 64.1182 15.49 63.9408 15.1795C63.7412 14.8691 63.6303 14.4921 63.586 14.0486C63.5416 13.6051 63.5638 13.0951 63.6303 12.5407C63.6525 12.2081 63.7412 11.8755 63.8742 11.5428C64.0073 11.2324 64.1403 10.8998 64.2956 10.5671C64.4508 10.2567 64.606 9.92406 64.7391 9.59143C64.8721 9.28098 64.9386 8.94836 64.983 8.59356C64.983 8.41616 64.9608 8.26093 64.9165 8.12788C64.8721 7.99483 64.8056 7.88396 64.7391 7.75091C64.6504 7.64003 64.5838 7.52916 64.5395 7.39611C64.473 7.26306 64.4508 7.13001 64.473 6.95261L64.4951 6.86391C64.5173 6.73086 64.5617 6.50911 64.6504 6.22083C64.7169 5.95473 64.7834 5.66646 64.8721 5.37818C64.9386 5.08991 65.0052 4.82381 65.0717 4.60206C65.1382 4.38031 65.1826 4.22509 65.2269 4.15856C65.2713 3.98116 65.36 3.80376 65.4708 3.58201C65.5595 3.36026 65.7369 3.24939 66.003 3.20504C67.0009 3.02764 67.9988 2.82806 68.9745 2.58414C69.9502 2.34021 70.9481 2.16281 71.9459 2.02976C72.0346 2.02976 72.1677 2.05194 72.3229 2.14064C72.4781 2.22934 72.5668 2.27369 72.589 2.27369L72.8995 2.45109L72.6777 4.35813C73.0769 4.49118 73.343 4.71294 73.4982 5.02338C73.6312 5.33383 73.7199 5.66646 73.7421 6.04343C73.7421 6.44258 73.7199 6.84173 73.6534 7.24088C73.5869 7.66221 73.5425 8.03918 73.4982 8.39398L73.3208 10.0571C73.2764 10.4563 73.2321 10.8111 73.1877 11.1659C73.1434 11.5207 73.0769 11.8755 73.0325 12.2303C72.966 12.5851 72.8995 12.9842 72.8329 13.3834C72.7442 13.8047 72.6555 14.2704 72.5668 14.7582C72.2342 15.2904 71.8351 15.623 71.3916 15.8004C70.9481 15.9778 70.4602 16.1109 69.9502 16.1552C69.6397 16.1996 69.3958 16.1774 69.1741 16.1109C68.9523 16.0443 68.7749 15.9557 68.5975 15.867C68.4201 15.7783 68.2649 15.7117 68.1097 15.623C67.9323 15.5565 67.777 15.5343 67.5996 15.5343ZM67.267 10.1015C67.134 11.2546 67.2448 12.3633 67.5775 13.3834C67.6218 13.4055 67.7105 13.4055 67.8879 13.3834C68.0653 13.3834 68.1762 13.3612 68.2427 13.3612L68.531 13.3168C68.7084 13.2947 68.8858 13.2503 69.0854 13.1616C69.2849 13.0951 69.3958 12.962 69.4402 12.7403L70.2163 5.51123C70.2163 5.48906 70.1941 5.44471 70.1498 5.40036C70.0832 5.35601 70.0389 5.33383 70.0167 5.33383C69.9945 5.33383 69.8837 5.35601 69.7063 5.35601C69.5289 5.37818 69.3958 5.37818 69.3071 5.37818L68.9745 5.42253C68.7971 5.46688 68.664 5.51123 68.531 5.55558C68.3979 5.62211 68.2649 5.75516 68.154 5.97691C68.154 6.44258 68.154 6.81956 68.1097 7.13001C68.0653 7.44046 68.021 7.70656 67.9323 7.97266C67.8436 8.23876 67.7549 8.52703 67.644 8.83748C67.5331 9.14793 67.4222 9.54708 67.2892 9.99058L67.267 10.1015ZM77.5827 15.5343C77.3166 15.5787 77.0727 15.6452 76.8953 15.7561C76.6957 15.8891 76.4518 15.9557 76.1635 15.9778C75.587 16.0665 75.0991 16.0222 74.7443 15.867C74.3895 15.7339 74.1012 15.49 73.9238 15.1795C73.7243 14.8691 73.6134 14.4921 73.569 14.0486C73.5247 13.6051 73.5469 13.0951 73.6134 12.5407C73.6356 12.2081 73.7243 11.8755 73.8573 11.5428C73.9904 11.2324 74.1234 10.8998 74.2786 10.5671C74.4339 10.2567 74.5891 9.92406 74.7221 9.59143C74.8552 9.28098 74.9217 8.94836 74.9661 8.59356C74.9661 8.41616 74.9439 8.26093 74.8995 8.12788C74.8552 7.99483 74.7887 7.88396 74.7221 7.75091C74.6334 7.64003 74.5669 7.52916 74.5226 7.39611C74.456 7.26306 74.4339 7.13001 74.456 6.95261L74.4782 6.86391C74.5004 6.73086 74.5447 6.50911 74.6334 6.22083C74.7 5.95473 74.7665 5.66646 74.8552 5.37818C74.9217 5.08991 74.9882 4.82381 75.0548 4.60206C75.1213 4.38031 75.1656 4.22509 75.21 4.15856C75.2543 3.98116 75.343 3.80376 75.4539 3.58201C75.5426 3.36026 75.72 3.24939 75.9861 3.20504C76.984 3.02764 77.9819 2.82806 78.9576 2.58414C79.9333 2.34021 80.9311 2.16281 81.929 2.02976C82.0177 2.02976 82.1508 2.05194 82.306 2.14064C82.4612 2.22934 82.5499 2.27369 82.5721 2.27369L82.8825 2.45109L82.6608 4.35813C83.0599 4.49118 83.326 4.71294 83.4813 5.02338C83.6143 5.33383 83.703 5.66646 83.7252 6.04343C83.7252 6.44258 83.703 6.84173 83.6365 7.24088C83.57 7.66221 83.5256 8.03918 83.4813 8.39398L83.3039 10.0571C83.2595 10.4563 83.2152 10.8111 83.1708 11.1659C83.1265 11.5207 83.0599 11.8755 83.0156 12.2303C82.9491 12.5851 82.8825 12.9842 82.816 13.3834C82.7273 13.8047 82.6386 14.2704 82.5499 14.7582C82.2173 15.2904 81.8181 15.623 81.3746 15.8004C80.9311 15.9778 80.4433 16.1109 79.9333 16.1552C79.6228 16.1996 79.3789 16.1774 79.1571 16.1109C78.9354 16.0443 78.758 15.9557 78.5806 15.867C78.4032 15.7783 78.248 15.7117 78.0927 15.623C77.9153 15.5565 77.7601 15.5343 77.5827 15.5343ZM77.2501 10.1015C77.117 11.2546 77.2279 12.3633 77.5605 13.3834C77.6049 13.4055 77.6936 13.4055 77.871 13.3834C78.0484 13.3834 78.1593 13.3612 78.2258 13.3612L78.5141 13.3168C78.6915 13.2947 78.8689 13.2503 79.0684 13.1616C79.268 13.0951 79.3789 12.962 79.4232 12.7403L80.1994 5.51123C80.1994 5.48906 80.1772 5.44471 80.1328 5.40036C80.0663 5.35601 80.022 5.33383 79.9998 5.33383C79.9776 5.33383 79.8667 5.35601 79.6893 5.35601C79.5119 5.37818 79.3789 5.37818 79.2902 5.37818L78.9576 5.42253C78.7802 5.46688 78.6471 5.51123 78.5141 5.55558C78.381 5.62211 78.248 5.75516 78.1371 5.97691C78.1371 6.44258 78.1371 6.81956 78.0927 7.13001C78.0484 7.44046 78.004 7.70656 77.9153 7.97266C77.8266 8.23876 77.7379 8.52703 77.6271 8.83748C77.5162 9.14793 77.4053 9.54708 77.2723 9.99058L77.2501 10.1015ZM83.9513 10.8998L84.7274 9.41403L84.3504 7.01913L84.4835 3.33809C84.7052 3.31591 85.0822 3.24939 85.6587 3.16069C86.2131 3.07199 86.8118 2.98329 87.4549 2.87241C88.0758 2.78371 88.6745 2.67284 89.2511 2.58414C89.8276 2.49544 90.2268 2.45109 90.4707 2.40674L91.0694 2.34021C91.2025 2.34021 91.3799 2.34021 91.6238 2.36239C91.8677 2.40674 92.1117 2.45109 92.3334 2.51761C92.5552 2.60631 92.7547 2.69501 92.9321 2.80589C93.1095 2.91676 93.1761 3.02764 93.1761 3.16069L92.7104 8.66008L93.2426 12.7181C93.1982 13.0286 93.1539 13.2947 93.0874 13.5164C92.9987 13.7603 92.9321 13.9599 92.8656 14.1151C92.7769 14.2704 92.7104 14.3812 92.666 14.4478C92.6217 14.5143 92.5995 14.5143 92.5995 14.4256C92.5773 14.5808 92.4886 14.7139 92.3556 14.8247C92.2004 14.9356 92.023 15.0243 91.8012 15.113C91.5795 15.2017 91.3577 15.2682 91.136 15.3126C90.892 15.3569 90.6703 15.4013 90.4929 15.4235L90.005 15.4678L89.6724 15.5122C89.5172 15.5565 89.362 15.5787 89.1846 15.5787C89.0072 15.5787 88.8298 15.6009 88.6967 15.6009L88.4084 15.6452L86.324 15.8891C86.324 15.9113 86.2575 15.9335 86.1688 15.9778C86.0579 16.0222 85.9248 16.0443 85.7918 16.0887C85.6366 16.133 85.4813 16.1552 85.3261 16.1996C85.1709 16.2439 85.0378 16.2661 84.9491 16.2661C84.8826 16.2883 84.7717 16.3104 84.6165 16.3326C84.4613 16.3548 84.3061 16.377 84.1287 16.3991C83.9513 16.4435 83.796 16.4657 83.663 16.4878C83.5078 16.5322 83.3969 16.5322 83.3525 16.5322L83.9513 10.8998ZM87.5658 13.0729L88.5415 12.962C88.6745 12.9399 88.8076 12.8955 88.9628 12.8068C89.0959 12.7181 89.1846 12.6072 89.2067 12.4298V12.4077L89.5615 5.99908C89.5615 5.99908 89.5172 5.93256 89.4728 5.79951C89.4285 5.66646 89.362 5.53341 89.2733 5.37818C89.1846 5.22296 89.118 5.08991 89.0515 4.95686C88.985 4.82381 88.9406 4.75728 88.9406 4.73511L88.7189 4.75728L87.9428 5.06773L87.5658 13.0729ZM99.5647 10.8998L100.341 9.41403L99.9639 7.01913L100.097 3.33809C100.319 3.31591 100.696 3.24939 101.272 3.16069C101.827 3.07199 102.425 2.98329 103.068 2.87241C103.689 2.78371 104.288 2.67284 104.865 2.58414C105.441 2.49544 105.84 2.45109 106.084 2.40674L106.683 2.34021C106.816 2.34021 106.993 2.34021 107.237 2.36239C107.481 2.40674 107.725 2.45109 107.947 2.51761C108.169 2.60631 108.368 2.69501 108.546 2.80589C108.723 2.91676 108.789 3.02764 108.789 3.16069L108.324 8.66008L108.856 12.7181C108.812 13.0286 108.767 13.2947 108.701 13.5164C108.612 13.7603 108.546 13.9599 108.479 14.1151C108.39 14.2704 108.324 14.3812 108.279 14.4478C108.235 14.5143 108.213 14.5143 108.213 14.4256C108.191 14.5808 108.102 14.7139 107.969 14.8247C107.814 14.9356 107.636 15.0243 107.415 15.113C107.193 15.2017 106.971 15.2682 106.749 15.3126C106.505 15.3569 106.284 15.4013 106.106 15.4235L105.618 15.4678L105.286 15.5122C105.131 15.5565 104.975 15.5787 104.798 15.5787C104.621 15.5787 104.443 15.6009 104.31 15.6009L104.022 15.6452L101.937 15.8891C101.937 15.9113 101.871 15.9335 101.782 15.9778C101.671 16.0222 101.538 16.0443 101.405 16.0887C101.25 16.133 101.095 16.1552 100.94 16.1996C100.784 16.2439 100.651 16.2661 100.563 16.2661C100.496 16.2883 100.385 16.3104 100.23 16.3326C100.075 16.3548 99.9195 16.377 99.7421 16.3991C99.5647 16.4435 99.4095 16.4657 99.2764 16.4878C99.1212 16.5322 99.0103 16.5322 98.966 16.5322L99.5647 10.8998ZM103.179 13.0729L104.155 12.962C104.288 12.9399 104.421 12.8955 104.576 12.8068C104.709 12.7181 104.798 12.6072 104.82 12.4298V12.4077L105.175 5.99908C105.175 5.99908 105.131 5.93256 105.086 5.79951C105.042 5.66646 104.975 5.53341 104.887 5.37818C104.798 5.22296 104.731 5.08991 104.665 4.95686C104.598 4.82381 104.554 4.75728 104.554 4.73511L104.332 4.75728L103.556 5.06773L103.179 13.0729ZM109.814 11.0106L109.88 10.4563C109.903 10.1902 109.925 9.92406 109.969 9.63578C109.991 9.34751 110.013 9.05923 110.058 8.79313L110.124 8.26093C110.124 8.26093 110.169 8.21658 110.257 8.12788C110.346 8.06136 110.435 7.97266 110.523 7.88396C110.612 7.79526 110.679 7.68438 110.767 7.59568C110.834 7.50698 110.878 7.41828 110.878 7.32958L110.9 7.28523C110.9 7.28523 110.878 7.26306 110.834 7.21871C110.79 7.17436 110.745 7.13001 110.701 7.08566C110.657 7.04131 110.612 7.01913 110.568 6.97478C110.523 6.95261 110.501 6.93043 110.501 6.90826C110.413 6.84173 110.324 6.73086 110.235 6.57563C110.147 6.42041 110.102 6.33171 110.102 6.28736L110.435 3.42679L110.657 3.18286C110.79 3.18286 110.945 3.18286 111.167 3.18286C111.388 3.18286 111.61 3.16069 111.854 3.11634C112.076 3.07199 112.32 3.02764 112.564 2.96111C112.785 2.89459 113.007 2.80589 113.184 2.67284L117.863 2.11846C117.819 2.42891 117.708 2.71719 117.553 2.98329C117.398 3.24939 117.309 3.51549 117.287 3.80376C117.265 3.98116 117.309 4.11421 117.42 4.22509C117.509 4.33596 117.553 4.46901 117.531 4.64641C117.509 4.75728 117.486 4.86816 117.464 4.97903C117.42 5.11208 117.353 5.17861 117.22 5.22296C116.688 5.26731 116.222 5.31166 115.801 5.35601C115.38 5.42253 115.025 5.53341 114.715 5.71081C114.404 5.88821 114.138 6.10996 113.961 6.42041C113.761 6.73086 113.628 7.13001 113.584 7.61786L116.4 7.28523L116.067 10.2567L113.074 10.6115C113.029 10.8332 113.007 11.0772 112.963 11.3433C112.918 11.6094 112.896 11.8533 112.918 12.075C112.941 12.2968 113.029 12.4964 113.162 12.6294C113.295 12.7846 113.517 12.8512 113.872 12.8068C114.005 12.7846 114.205 12.7625 114.515 12.7403C114.803 12.7181 115.114 12.6738 115.468 12.6294C115.779 12.6072 116.089 12.5629 116.4 12.5185C116.71 12.4742 116.91 12.452 117.043 12.4298V12.962C117.043 13.206 117.021 13.4721 117.021 13.7382C117.021 14.0043 116.999 14.2704 116.999 14.5143C116.999 14.7804 116.976 14.9578 116.976 15.0465V15.1795V15.2461C116.932 15.2904 116.843 15.3569 116.71 15.4235C116.577 15.49 116.511 15.5343 116.489 15.5343L109.703 16.3326L109.481 16.1552C109.481 16.1552 109.459 16.0443 109.459 15.867C109.459 15.6896 109.459 15.4678 109.459 15.2017C109.459 14.9356 109.481 14.6695 109.481 14.4034C109.481 14.1373 109.503 13.9377 109.526 13.7603L109.792 13.3612C109.814 13.1394 109.792 12.8955 109.747 12.6072C109.703 12.3411 109.681 12.0529 109.725 11.7424L109.814 11.0106ZM127.126 12.5851V12.4298C127.126 12.3411 127.126 12.2303 127.126 12.1416C127.126 12.0529 127.06 12.0085 126.949 12.0085L124 12.3633C123.955 12.4742 123.933 12.6072 123.889 12.7403C123.844 12.8733 123.8 13.0064 123.756 13.1394C123.689 13.2725 123.623 13.3834 123.534 13.4721C123.445 13.5608 123.334 13.6273 123.201 13.6273C123.113 13.6495 122.98 13.6495 122.802 13.6495C122.603 13.6495 122.403 13.6273 122.203 13.5829C122.004 13.5608 121.826 13.5164 121.693 13.4499C121.538 13.3834 121.472 13.2947 121.494 13.1616L122.115 11.1437L121.826 8.12788L121.716 8.01701C121.693 7.77308 121.738 7.52916 121.826 7.28523C121.915 7.06348 121.96 6.81956 122.004 6.55346C122.026 6.39823 122.048 6.26518 122.093 6.15431C122.115 6.04343 122.203 5.91038 122.337 5.75516C122.381 5.75516 122.447 5.73298 122.558 5.68863C122.647 5.64428 122.758 5.62211 122.891 5.57776C123.002 5.53341 123.113 5.51123 123.224 5.46688C123.312 5.44471 123.401 5.42253 123.445 5.40036C123.6 5.40036 123.756 5.40036 123.933 5.40036C124.088 5.42253 124.221 5.46688 124.332 5.53341C124.421 5.59993 124.487 5.71081 124.532 5.84386C124.554 5.97691 124.532 6.15431 124.443 6.37606L127.636 5.99908L127.658 5.77733C127.681 5.68863 127.703 5.57776 127.703 5.44471C127.703 5.33383 127.703 5.22296 127.725 5.11208L127.747 4.89033C127.747 4.71294 127.769 4.46901 127.769 4.15856C127.769 3.87028 127.792 3.58201 127.792 3.29374C127.792 3.02764 127.814 2.78371 127.814 2.58414V2.27369L127.614 2.09629L121.494 2.82806C121.472 2.82806 121.405 2.87241 121.294 2.91676C121.183 2.98329 121.05 3.04981 120.917 3.13851C120.762 3.22721 120.607 3.33809 120.452 3.42679C120.296 3.51549 120.163 3.60419 120.075 3.64854C120.03 3.67071 119.964 3.71506 119.875 3.75941C119.764 3.82594 119.653 3.89246 119.542 3.98116C119.409 4.06986 119.299 4.18073 119.21 4.26943C119.121 4.35813 119.055 4.44683 119.055 4.51336C119.032 4.53553 119.032 4.57988 119.032 4.66858L119.055 4.80164L119.676 5.26731V5.37818C119.653 5.48906 119.587 5.62211 119.498 5.75516C119.409 5.91038 119.299 6.06561 119.165 6.19866C119.032 6.35388 118.922 6.48693 118.811 6.61998C118.7 6.75303 118.633 6.81956 118.589 6.86391L118.5 7.72873L118.456 7.95048C118.478 7.92831 118.478 7.99483 118.456 8.12788L118.389 8.74878C118.345 9.01488 118.323 9.32533 118.278 9.65796C118.234 9.99058 118.19 10.301 118.145 10.5671C118.101 10.8554 118.079 11.0993 118.057 11.2767L118.012 11.565L117.968 11.942C117.835 13.0507 117.791 13.9156 117.791 14.5143C117.791 15.1352 117.924 15.5565 118.212 15.8004C118.478 16.0665 118.944 16.1774 119.609 16.1552C120.252 16.133 121.183 16.0443 122.381 15.9113L122.78 15.8448C122.957 15.8448 123.135 15.8226 123.334 15.7783C123.534 15.7561 123.734 15.7339 123.911 15.6896L124.31 15.6452C124.754 15.4678 125.153 15.3126 125.485 15.1352C125.818 14.98 126.106 14.8026 126.328 14.5808C126.55 14.3591 126.705 14.093 126.838 13.7825C126.971 13.4721 127.06 13.0729 127.126 12.5851ZM127.713 15.5122C127.713 15.3791 127.758 15.1574 127.802 14.8469C127.846 14.5365 127.869 14.2038 127.913 13.849C127.957 13.5164 127.98 13.1838 128.002 12.8733C128.024 12.5629 128.046 12.3411 128.046 12.2081C128.046 11.8976 128.068 11.4763 128.113 10.9441C128.157 10.4341 128.179 9.92406 128.223 9.43621C128.246 8.94836 128.268 8.52703 128.29 8.17223C128.312 7.81743 128.334 7.64003 128.334 7.61786L128.223 6.55346C128.312 5.77733 128.423 5.13426 128.512 4.64641C128.6 4.15856 128.756 3.78159 128.955 3.51549C129.133 3.24939 129.399 3.04981 129.731 2.91676C130.042 2.78371 130.507 2.69501 131.084 2.60631L133.058 2.38456C133.191 2.38456 133.257 2.45109 133.257 2.58414L132.902 5.59993C132.636 5.79951 132.481 5.93256 132.437 6.02126C132.392 6.10996 132.37 6.19866 132.37 6.28736C132.37 6.37606 132.348 6.50911 132.326 6.66433C132.304 6.84173 132.193 7.08566 132.015 7.39611C131.971 7.41828 131.949 7.46263 131.904 7.52916C131.86 7.59568 131.838 7.66221 131.794 7.75091C131.749 7.83961 131.705 7.90613 131.683 7.97266C131.638 8.03918 131.638 8.08353 131.638 8.08353C131.638 8.30528 131.661 8.46051 131.727 8.57138C131.771 8.68226 131.838 8.79313 131.904 8.90401C131.971 9.01488 132.038 9.12576 132.082 9.25881C132.126 9.39186 132.126 9.59143 132.104 9.81318L132.06 10.4341C131.971 10.8332 131.904 11.2989 131.816 11.8755C131.727 12.452 131.661 13.0286 131.594 13.5608C131.528 14.093 131.461 14.5586 131.417 14.9356C131.35 15.3348 131.306 15.5122 131.284 15.5122L127.846 16.1552L127.713 15.5122ZM133.531 16.3548C133.354 16.3991 133.243 16.377 133.154 16.2661C133.065 16.1552 133.021 16.0222 132.999 15.8448C132.977 15.6896 132.977 15.5343 132.977 15.3791C132.977 15.2461 132.999 15.1574 132.999 15.113C132.977 15.0243 132.955 14.8691 132.955 14.6695C132.955 14.4699 132.955 14.2704 132.955 14.093V13.6051V13.3834L133.221 13.1394L133.442 13.0729C133.598 13.0286 133.797 12.9842 134.019 12.9399C134.241 12.8955 134.462 12.8512 134.684 12.8068C134.906 12.7625 135.105 12.7181 135.283 12.6738L135.66 12.6294C135.882 12.6072 136.015 12.6516 136.059 12.7625C136.103 12.8733 136.103 12.9842 136.103 13.1173C136.059 13.2503 136.059 13.3834 136.059 13.4942C136.059 13.6273 136.148 13.6716 136.281 13.6495L138.099 13.4277C138.232 13.4277 138.365 13.339 138.454 13.1616C138.543 12.9842 138.609 12.7846 138.653 12.5629C138.698 12.3411 138.72 12.0972 138.742 11.8755C138.742 11.6537 138.764 11.4541 138.787 11.3211L138.809 10.9885C138.321 10.9219 137.855 10.8998 137.39 10.9219C136.924 10.9441 136.48 10.9663 136.037 10.9663C135.593 10.9663 135.15 10.9441 134.729 10.8554C134.307 10.7667 133.908 10.5893 133.509 10.3232C133.331 10.0793 133.221 9.79101 133.221 9.48056C133.198 9.17011 133.198 8.83748 133.243 8.48268L133.309 7.88396L133.42 6.75303C133.487 6.08778 133.642 5.42253 133.864 4.75728C134.085 4.09204 134.462 3.53766 134.972 3.11634C135.46 3.02764 135.882 2.93894 136.281 2.85024C136.658 2.76154 137.013 2.69501 137.367 2.62849C137.7 2.58414 138.055 2.51761 138.41 2.47326C138.764 2.42891 139.141 2.36239 139.585 2.31804C139.94 2.27369 140.339 2.22934 140.76 2.18499C141.181 2.14064 141.558 2.16281 141.913 2.20716C142.246 2.27369 142.512 2.40674 142.712 2.62849C142.911 2.85024 142.978 3.18286 142.933 3.67071C142.933 3.71506 142.911 3.75941 142.889 3.84811C142.845 3.93681 142.822 4.04768 142.778 4.13639C142.734 4.24726 142.712 4.33596 142.667 4.42466C142.623 4.51336 142.623 4.57988 142.623 4.57988V4.69076V4.80164L142.712 5.88821V6.10996C142.712 6.22083 142.689 6.28736 142.689 6.30953L139.03 6.75303L138.831 6.55346C139.03 6.24301 139.186 5.99908 139.274 5.79951C139.363 5.59993 139.43 5.35601 139.474 5.06773C139.474 5.02338 139.474 4.91251 139.474 4.75728C139.474 4.62423 139.407 4.55771 139.274 4.55771L137.7 4.73511C137.611 4.75728 137.5 4.89033 137.367 5.13426C137.234 5.40036 137.101 5.68863 136.968 5.99908C136.835 6.30953 136.724 6.61998 136.636 6.93043C136.547 7.24088 136.48 7.44046 136.48 7.52916C136.436 7.75091 136.436 7.92831 136.436 8.08353C136.436 8.26093 136.591 8.34963 136.857 8.39398C136.902 8.39398 137.013 8.39398 137.19 8.39398C137.345 8.39398 137.523 8.37181 137.722 8.37181C137.9 8.37181 138.077 8.39398 138.254 8.39398C138.432 8.39398 138.543 8.41616 138.631 8.41616C139.208 8.46051 139.74 8.46051 140.228 8.41616C140.716 8.37181 141.159 8.39398 141.514 8.46051C141.869 8.52703 142.135 8.68226 142.312 8.94836C142.49 9.21446 142.534 9.65796 142.468 10.3232C142.423 10.7667 142.335 11.1659 142.224 11.5428C142.091 11.9198 142.024 12.319 141.98 12.7403L141.958 12.962L142.002 14.4699V14.5808V14.6917C141.691 15.1352 141.292 15.4235 140.804 15.5565C140.317 15.7117 139.851 15.8226 139.385 15.867L138.609 15.9778H138.498C138.299 16.0222 137.966 16.0443 137.5 16.0887C137.035 16.133 136.547 16.1552 136.015 16.1996C135.482 16.2439 134.972 16.2661 134.507 16.3104C134.041 16.3548 133.708 16.3548 133.531 16.3548ZM142.829 15.5122C142.829 15.3791 142.873 15.1574 142.917 14.8469C142.962 14.5365 142.984 14.2038 143.028 13.849C143.073 13.5164 143.095 13.1838 143.117 12.8733C143.139 12.5629 143.161 12.3411 143.161 12.2081C143.161 11.8976 143.184 11.4763 143.228 10.9441C143.272 10.4341 143.294 9.92406 143.339 9.43621C143.361 8.94836 143.383 8.52703 143.405 8.17223C143.428 7.81743 143.45 7.64003 143.45 7.61786L143.339 6.55346C143.428 5.77733 143.538 5.13426 143.627 4.64641C143.716 4.15856 143.871 3.78159 144.071 3.51549C144.248 3.24939 144.514 3.04981 144.847 2.91676C145.157 2.78371 145.623 2.69501 146.199 2.60631L148.173 2.38456C148.306 2.38456 148.373 2.45109 148.373 2.58414L148.018 5.59993C147.752 5.79951 147.596 5.93256 147.552 6.02126C147.508 6.10996 147.486 6.19866 147.486 6.28736C147.486 6.37606 147.463 6.50911 147.441 6.66433C147.419 6.84173 147.308 7.08566 147.131 7.39611C147.086 7.41828 147.064 7.46263 147.02 7.52916C146.975 7.59568 146.953 7.66221 146.909 7.75091C146.865 7.83961 146.82 7.90613 146.798 7.97266C146.754 8.03918 146.754 8.08353 146.754 8.08353C146.754 8.30528 146.776 8.46051 146.842 8.57138C146.887 8.68226 146.953 8.79313 147.02 8.90401C147.086 9.01488 147.153 9.12576 147.197 9.25881C147.242 9.39186 147.242 9.59143 147.219 9.81318L147.175 10.4341C147.086 10.8332 147.02 11.2989 146.931 11.8755C146.842 12.452 146.776 13.0286 146.709 13.5608C146.643 14.093 146.576 14.5586 146.532 14.9356C146.465 15.3348 146.421 15.5122 146.399 15.5122L142.962 16.1552L142.829 15.5122ZM151.752 15.5343C151.486 15.5787 151.242 15.6452 151.065 15.7561C150.865 15.8891 150.621 15.9557 150.333 15.9778C149.756 16.0665 149.268 16.0222 148.914 15.867C148.559 15.7339 148.27 15.49 148.093 15.1795C147.894 14.8691 147.783 14.4921 147.738 14.0486C147.694 13.6051 147.716 13.0951 147.783 12.5407C147.805 12.2081 147.894 11.8755 148.027 11.5428C148.16 11.2324 148.293 10.8998 148.448 10.5671C148.603 10.2567 148.758 9.92406 148.891 9.59143C149.024 9.28098 149.091 8.94836 149.135 8.59356C149.135 8.41616 149.113 8.26093 149.069 8.12788C149.024 7.99483 148.958 7.88396 148.891 7.75091C148.803 7.64003 148.736 7.52916 148.692 7.39611C148.625 7.26306 148.603 7.13001 148.625 6.95261L148.647 6.86391C148.67 6.73086 148.714 6.50911 148.803 6.22083C148.869 5.95473 148.936 5.66646 149.024 5.37818C149.091 5.08991 149.157 4.82381 149.224 4.60206C149.291 4.38031 149.335 4.22509 149.379 4.15856C149.424 3.98116 149.512 3.80376 149.623 3.58201C149.712 3.36026 149.889 3.24939 150.155 3.20504C151.153 3.02764 152.151 2.82806 153.127 2.58414C154.103 2.34021 155.1 2.16281 156.098 2.02976C156.187 2.02976 156.32 2.05194 156.475 2.14064C156.63 2.22934 156.719 2.27369 156.741 2.27369L157.052 2.45109L156.83 4.35813C157.229 4.49118 157.495 4.71294 157.651 5.02338C157.784 5.33383 157.872 5.66646 157.894 6.04343C157.894 6.44258 157.872 6.84173 157.806 7.24088C157.739 7.66221 157.695 8.03918 157.651 8.39398L157.473 10.0571C157.429 10.4563 157.384 10.8111 157.34 11.1659C157.296 11.5207 157.229 11.8755 157.185 12.2303C157.118 12.5851 157.052 12.9842 156.985 13.3834C156.897 13.8047 156.808 14.2704 156.719 14.7582C156.387 15.2904 155.987 15.623 155.544 15.8004C155.1 15.9778 154.613 16.1109 154.103 16.1552C153.792 16.1996 153.548 16.1774 153.326 16.1109C153.105 16.0443 152.927 15.9557 152.75 15.867C152.572 15.7783 152.417 15.7117 152.262 15.623C152.085 15.5565 151.929 15.5343 151.752 15.5343ZM151.419 10.1015C151.286 11.2546 151.397 12.3633 151.73 13.3834C151.774 13.4055 151.863 13.4055 152.04 13.3834C152.218 13.3834 152.329 13.3612 152.395 13.3612L152.683 13.3168C152.861 13.2947 153.038 13.2503 153.238 13.1616C153.437 13.0951 153.548 12.962 153.592 12.7403L154.369 5.51123C154.369 5.48906 154.346 5.44471 154.302 5.40036C154.236 5.35601 154.191 5.33383 154.169 5.33383C154.147 5.33383 154.036 5.35601 153.859 5.35601C153.681 5.37818 153.548 5.37818 153.459 5.37818L153.127 5.42253C152.949 5.46688 152.816 5.51123 152.683 5.55558C152.55 5.62211 152.417 5.75516 152.306 5.97691C152.306 6.44258 152.306 6.81956 152.262 7.13001C152.218 7.44046 152.173 7.70656 152.085 7.97266C151.996 8.23876 151.907 8.52703 151.796 8.83748C151.685 9.14793 151.575 9.54708 151.442 9.99058L151.419 10.1015ZM162.179 9.39186C162.201 9.50273 162.267 9.70231 162.356 9.99058C162.445 10.301 162.533 10.6115 162.644 10.9441C162.733 11.2767 162.844 11.5872 162.955 11.8755C163.043 12.1859 163.132 12.3855 163.176 12.4742C163.221 12.6294 163.309 12.8955 163.465 13.2503C163.62 13.6051 163.797 13.9821 164.019 14.3591C164.219 14.736 164.44 15.0687 164.662 15.3569C164.884 15.6452 165.083 15.7783 165.261 15.7339C165.394 15.7339 165.549 15.6674 165.682 15.5787C165.815 15.49 165.97 15.4013 166.104 15.3126C166.237 15.2239 166.392 15.113 166.525 15.0243C166.658 14.9356 166.813 14.8913 166.991 14.8691L167.301 15.0687C167.323 15.0687 167.39 15.0908 167.501 15.113C167.611 15.1574 167.744 15.1795 167.878 15.2017C168.011 15.2461 168.121 15.2682 168.232 15.2904C168.343 15.3348 168.41 15.3348 168.454 15.3348C168.498 15.3348 168.565 15.2904 168.698 15.2239C168.809 15.1574 168.898 15.0908 168.942 15.0465C168.964 14.2925 169.031 13.5608 169.119 12.8512C169.208 12.1416 169.297 11.4098 169.43 10.6558L168.654 9.94623L169.652 9.10358C169.829 7.86178 169.984 6.64216 170.162 5.46688C170.339 4.29161 170.494 3.07199 170.627 1.80801L167.19 2.22934L166.946 2.47326L166.724 4.44683C166.68 4.75728 166.614 5.13426 166.547 5.57776C166.458 6.02126 166.392 6.46476 166.325 6.88608C166.237 7.30741 166.17 7.66221 166.126 7.97266C166.081 8.28311 166.059 8.46051 166.059 8.46051L165.815 8.92618L165.571 8.74878C165.549 8.72661 165.483 8.57138 165.372 8.28311C165.239 7.99483 165.106 7.66221 164.973 7.28523C164.817 6.90826 164.662 6.53128 164.529 6.13213C164.374 5.75516 164.263 5.44471 164.174 5.20078C164.13 5.11208 164.086 4.93468 164.041 4.69076L163.842 3.93681C163.775 3.67071 163.709 3.42679 163.664 3.18286C163.62 2.93894 163.576 2.76154 163.576 2.65066C163.265 2.60631 163.021 2.58414 162.822 2.56196C162.6 2.56196 162.378 2.56196 162.112 2.58414C161.802 2.62849 161.602 2.71719 161.513 2.85024C161.425 2.98329 161.358 3.11634 161.314 3.24939C161.269 3.40461 161.203 3.53766 161.158 3.67071C161.092 3.80376 160.959 3.87028 160.759 3.89246C160.538 3.93681 160.36 3.91464 160.205 3.82594C160.05 3.73724 159.895 3.64854 159.761 3.53766C159.628 3.44896 159.473 3.36026 159.318 3.27156C159.141 3.20504 158.963 3.18286 158.786 3.18286L158.764 3.38244C158.764 3.47114 158.741 3.55984 158.741 3.64854C158.741 3.75941 158.741 3.84811 158.741 3.93681L158.719 4.11421L158.032 14.6252C157.987 15.113 158.01 15.4678 158.143 15.6674C158.276 15.8891 158.475 16 158.741 16.0443C159.008 16.0887 159.318 16.0887 159.717 16.0222C160.094 15.9778 160.538 15.9113 161.025 15.8448L161.691 9.65796C161.691 9.65796 161.713 9.61361 161.779 9.54708C161.846 9.48056 161.912 9.43621 161.957 9.41403L162.001 9.39186C162.023 9.39186 162.045 9.36968 162.068 9.36968C162.068 9.36968 162.09 9.39186 162.112 9.39186C162.134 9.39186 162.156 9.39186 162.179 9.39186ZM170.756 16.3548C170.579 16.3991 170.468 16.377 170.379 16.2661C170.291 16.1552 170.246 16.0222 170.224 15.8448C170.202 15.6896 170.202 15.5343 170.202 15.3791C170.202 15.2461 170.224 15.1574 170.224 15.113C170.202 15.0243 170.18 14.8691 170.18 14.6695C170.18 14.4699 170.18 14.2704 170.18 14.093V13.6051V13.3834L170.446 13.1394L170.668 13.0729C170.823 13.0286 171.023 12.9842 171.244 12.9399C171.466 12.8955 171.688 12.8512 171.91 12.8068C172.131 12.7625 172.331 12.7181 172.508 12.6738L172.885 12.6294C173.107 12.6072 173.24 12.6516 173.284 12.7625C173.329 12.8733 173.329 12.9842 173.329 13.1173C173.284 13.2503 173.284 13.3834 173.284 13.4942C173.284 13.6273 173.373 13.6716 173.506 13.6495L175.324 13.4277C175.458 13.4277 175.591 13.339 175.679 13.1616C175.768 12.9842 175.835 12.7846 175.879 12.5629C175.923 12.3411 175.945 12.0972 175.968 11.8755C175.968 11.6537 175.99 11.4541 176.012 11.3211L176.034 10.9885C175.546 10.9219 175.081 10.8998 174.615 10.9219C174.149 10.9441 173.706 10.9663 173.262 10.9663C172.819 10.9663 172.375 10.9441 171.954 10.8554C171.533 10.7667 171.133 10.5893 170.734 10.3232C170.557 10.0793 170.446 9.79101 170.446 9.48056C170.424 9.17011 170.424 8.83748 170.468 8.48268L170.535 7.88396L170.646 6.75303C170.712 6.08778 170.867 5.42253 171.089 4.75728C171.311 4.09204 171.688 3.53766 172.198 3.11634C172.686 3.02764 173.107 2.93894 173.506 2.85024C173.883 2.76154 174.238 2.69501 174.593 2.62849C174.925 2.58414 175.28 2.51761 175.635 2.47326C175.99 2.42891 176.367 2.36239 176.81 2.31804C177.165 2.27369 177.564 2.22934 177.985 2.18499C178.407 2.14064 178.784 2.16281 179.139 2.20716C179.471 2.27369 179.737 2.40674 179.937 2.62849C180.136 2.85024 180.203 3.18286 180.159 3.67071C180.159 3.71506 180.136 3.75941 180.114 3.84811C180.07 3.93681 180.048 4.04768 180.003 4.13639C179.959 4.24726 179.937 4.33596 179.893 4.42466C179.848 4.51336 179.848 4.57988 179.848 4.57988V4.69076V4.80164L179.937 5.88821V6.10996C179.937 6.22083 179.915 6.28736 179.915 6.30953L176.256 6.75303L176.056 6.55346C176.256 6.24301 176.411 5.99908 176.5 5.79951C176.588 5.59993 176.655 5.35601 176.699 5.06773C176.699 5.02338 176.699 4.91251 176.699 4.75728C176.699 4.62423 176.633 4.55771 176.5 4.55771L174.925 4.73511C174.837 4.75728 174.726 4.89033 174.593 5.13426C174.46 5.40036 174.327 5.68863 174.194 5.99908C174.061 6.30953 173.95 6.61998 173.861 6.93043C173.772 7.24088 173.706 7.44046 173.706 7.52916C173.661 7.75091 173.661 7.92831 173.661 8.08353C173.661 8.26093 173.817 8.34963 174.083 8.39398C174.127 8.39398 174.238 8.39398 174.415 8.39398C174.571 8.39398 174.748 8.37181 174.948 8.37181C175.125 8.37181 175.302 8.39398 175.48 8.39398C175.657 8.39398 175.768 8.41616 175.857 8.41616C176.433 8.46051 176.965 8.46051 177.453 8.41616C177.941 8.37181 178.385 8.39398 178.739 8.46051C179.094 8.52703 179.36 8.68226 179.538 8.94836C179.715 9.21446 179.759 9.65796 179.693 10.3232C179.649 10.7667 179.56 11.1659 179.449 11.5428C179.316 11.9198 179.249 12.319 179.205 12.7403L179.183 12.962L179.227 14.4699V14.5808V14.6917C178.917 15.1352 178.518 15.4235 178.03 15.5565C177.542 15.7117 177.076 15.8226 176.611 15.867L175.835 15.9778H175.724C175.524 16.0222 175.191 16.0443 174.726 16.0887C174.26 16.133 173.772 16.1552 173.24 16.1996C172.708 16.2439 172.198 16.2661 171.732 16.3104C171.266 16.3548 170.934 16.3548 170.756 16.3548ZM202.582 1.56409C202.538 1.54191 202.471 1.49756 202.382 1.45321C202.271 1.40886 202.205 1.40886 202.161 1.40886C202.072 1.43104 201.894 1.45321 201.628 1.47539C201.362 1.49756 201.074 1.51974 200.764 1.54191C200.453 1.56409 200.165 1.58626 199.899 1.60844C199.633 1.63061 199.455 1.65279 199.366 1.65279C199.278 2.53979 199.211 3.40461 199.211 4.22509C199.211 5.06773 199.167 5.91038 199.078 6.79738L199.056 6.99696C199.012 7.13001 198.967 7.28523 198.901 7.48481C198.834 7.68438 198.768 7.88396 198.701 8.08353C198.613 8.28311 198.546 8.46051 198.502 8.59356L198.413 8.81531L198.147 9.05923C197.925 8.97053 197.792 8.81531 197.748 8.59356C197.703 8.39398 197.681 8.17223 197.703 7.92831C197.703 7.68438 197.726 7.44046 197.77 7.17436C197.814 6.93043 197.814 6.70868 197.77 6.48693C197.726 6.28736 197.659 6.02126 197.592 5.68863C197.526 5.37818 197.459 5.04556 197.393 4.69076C197.304 4.33596 197.238 4.00334 197.171 3.67071C197.082 3.36026 197.038 3.09416 196.994 2.87241L197.082 2.16281C197.082 2.16281 197.016 2.14064 196.927 2.14064C196.816 2.14064 196.683 2.11846 196.55 2.11846C196.417 2.11846 196.262 2.09629 196.129 2.09629C195.974 2.09629 195.841 2.11846 195.752 2.11846H195.597C195.486 2.14064 195.375 2.16281 195.264 2.16281C195.131 2.16281 195.02 2.18499 194.909 2.18499L194.665 2.20716C194.555 2.22934 194.399 2.25151 194.222 2.27369C194.022 2.31804 193.911 2.31804 193.911 2.31804L193.69 2.56196C193.69 2.58414 193.668 2.65066 193.645 2.76154C193.623 2.87241 193.601 2.98329 193.601 3.09416C193.557 3.40461 193.534 3.62636 193.49 3.80376C193.446 4.11421 193.379 4.40249 193.246 4.66858C193.113 4.95686 192.98 5.24513 192.847 5.51123C192.692 5.79951 192.559 6.08778 192.426 6.35388C192.293 6.64216 192.226 6.93043 192.204 7.19653C192.182 7.32958 192.16 7.57351 192.137 7.88396C192.115 8.21658 192.071 8.54921 192.027 8.88183C191.982 9.23663 191.894 9.54708 191.805 9.81318C191.716 10.0793 191.583 10.2345 191.406 10.2345L191.051 9.54708C190.984 9.45838 190.94 9.21446 190.896 8.85966C190.851 8.50486 190.829 8.10571 190.829 7.61786C190.807 7.15218 190.807 6.66433 190.807 6.13213C190.807 5.62211 190.785 5.13426 190.785 4.69076C190.785 4.24726 190.763 3.89246 190.763 3.60419C190.763 3.31591 190.74 3.16069 190.718 3.13851C190.585 3.13851 190.408 3.16069 190.186 3.16069C189.942 3.16069 189.698 3.18286 189.432 3.18286C189.166 3.18286 188.9 3.20504 188.678 3.20504C188.434 3.20504 188.257 3.22721 188.146 3.22721L187.525 3.31591C187.215 3.36026 186.993 3.44896 186.838 3.60419C186.682 3.78159 186.572 3.95898 186.505 4.18073C186.438 4.40249 186.394 4.64641 186.372 4.89033C186.35 5.15643 186.328 5.37818 186.305 5.59993C186.261 5.84386 186.283 6.04343 186.328 6.19866C186.372 6.35388 186.438 6.48693 186.527 6.61998C186.616 6.75303 186.705 6.88608 186.793 7.01913C186.882 7.15218 186.949 7.32958 186.993 7.50698L187.436 9.61361C187.636 9.72448 187.769 9.8797 187.858 10.0793C187.924 10.301 187.969 10.5228 187.969 10.7667C187.969 11.0106 187.969 11.2546 187.946 11.4985C187.924 11.7646 187.946 11.9863 187.991 12.1637C188.035 12.452 188.079 12.829 188.168 13.2725C188.235 13.716 188.301 14.1595 188.39 14.5808C188.479 15.0243 188.545 15.4013 188.612 15.7117C188.678 16.0222 188.723 16.1996 188.767 16.1996L188.966 16.377L190.718 16.1774C190.763 16.133 190.896 16.0443 191.073 15.9113C191.25 15.7783 191.384 15.6896 191.472 15.6452L191.694 15.623L192.337 15.7783L192.581 15.7339C192.603 15.7339 192.647 15.6896 192.714 15.623C192.758 15.5787 192.803 15.5343 192.803 15.49C192.847 15.0465 192.98 14.603 193.18 14.1151C193.379 13.6273 193.601 13.1616 193.845 12.6738L194.555 11.2324C194.776 10.7445 194.976 10.2789 195.153 9.83535L196.373 15.3569H196.883C197.105 15.3569 197.349 15.3569 197.592 15.3569C197.836 15.3569 198.08 15.3348 198.302 15.3126C198.524 15.3126 198.723 15.2904 198.856 15.2682L199.477 15.2017C199.766 15.1574 199.987 15.0687 200.143 14.8913C200.298 14.736 200.409 14.5365 200.497 14.3147C200.564 14.093 200.608 13.8712 200.63 13.6051C200.63 13.3612 200.653 13.1173 200.697 12.8955C200.697 12.6738 200.719 12.4964 200.741 12.319C200.741 12.1637 200.764 12.0085 200.764 11.8755C200.764 11.7424 200.741 11.5872 200.719 11.4541C200.675 11.3211 200.653 11.1437 200.608 10.9441C200.786 10.6337 200.963 10.3454 201.118 10.0793C201.251 9.83535 201.384 9.59143 201.495 9.36968C201.584 9.14793 201.673 8.92618 201.739 8.70443C201.784 8.48268 201.828 8.21658 201.872 7.90613C201.894 7.70656 201.917 7.50698 201.917 7.32958C201.917 7.15218 201.939 6.99696 201.983 6.81956C201.983 6.66433 202.005 6.50911 202.005 6.33171C202.005 6.15431 202.027 5.97691 202.072 5.75516C202.094 5.51123 202.161 5.28948 202.249 5.11208C202.338 4.93468 202.404 4.73511 202.449 4.51336L202.471 4.42466C202.449 4.31379 202.449 4.11421 202.471 3.84811C202.471 3.58201 202.493 3.29374 202.515 2.98329C202.538 2.67284 202.56 2.38456 202.582 2.11846C202.582 1.85236 202.582 1.67496 202.582 1.56409ZM202.207 15.5122C202.207 15.3791 202.252 15.1574 202.296 14.8469C202.341 14.5365 202.363 14.2038 202.407 13.849C202.451 13.5164 202.474 13.1838 202.496 12.8733C202.518 12.5629 202.54 12.3411 202.54 12.2081C202.54 11.8976 202.562 11.4763 202.607 10.9441C202.651 10.4341 202.673 9.92406 202.718 9.43621C202.74 8.94836 202.762 8.52703 202.784 8.17223C202.806 7.81743 202.828 7.64003 202.828 7.61786L202.718 6.55346C202.806 5.77733 202.917 5.13426 203.006 4.64641C203.094 4.15856 203.25 3.78159 203.449 3.51549C203.627 3.24939 203.893 3.04981 204.225 2.91676C204.536 2.78371 205.002 2.69501 205.578 2.60631L207.552 2.38456C207.685 2.38456 207.751 2.45109 207.751 2.58414L207.396 5.59993C207.13 5.79951 206.975 5.93256 206.931 6.02126C206.886 6.10996 206.864 6.19866 206.864 6.28736C206.864 6.37606 206.842 6.50911 206.82 6.66433C206.798 6.84173 206.687 7.08566 206.509 7.39611C206.465 7.41828 206.443 7.46263 206.399 7.52916C206.354 7.59568 206.332 7.66221 206.288 7.75091C206.243 7.83961 206.199 7.90613 206.177 7.97266C206.132 8.03918 206.132 8.08353 206.132 8.08353C206.132 8.30528 206.155 8.46051 206.221 8.57138C206.266 8.68226 206.332 8.79313 206.399 8.90401C206.465 9.01488 206.532 9.12576 206.576 9.25881C206.62 9.39186 206.62 9.59143 206.598 9.81318L206.554 10.4341C206.465 10.8332 206.399 11.2989 206.31 11.8755C206.221 12.452 206.155 13.0286 206.088 13.5608C206.022 14.093 205.955 14.5586 205.911 14.9356C205.844 15.3348 205.8 15.5122 205.778 15.5122L202.341 16.1552L202.207 15.5122ZM210.243 15.9113C210.243 14.6252 210.287 13.3834 210.42 12.1416C210.531 10.8998 210.664 9.63578 210.841 8.32746C210.797 8.28311 210.775 8.19441 210.753 8.03918C210.73 7.88396 210.708 7.77308 210.708 7.70656L210.73 7.50698L210.775 7.28523L211.263 6.39823V6.28736L211.285 6.17648C211.263 6.08778 211.196 6.02126 211.107 5.99908C210.664 6.10996 210.331 6.17648 210.087 6.17648C209.843 6.17648 209.644 6.15431 209.511 6.10996C209.356 6.06561 209.245 6.02126 209.156 5.93256C209.067 5.86603 208.979 5.79951 208.89 5.73298C208.801 5.68863 208.668 5.64428 208.535 5.59993C208.402 5.55558 208.203 5.55558 207.936 5.57776C207.936 5.53341 207.959 5.42253 207.981 5.28948C207.981 5.15643 208.003 5.00121 208.025 4.84598C208.047 4.69076 208.069 4.53553 208.092 4.38031C208.114 4.24726 208.136 4.13639 208.136 4.04768C208.158 3.95898 208.203 3.82594 208.269 3.64854C208.336 3.49331 208.38 3.40461 208.424 3.38244L218.07 2.25151L217.96 3.62636L217.494 4.35813L217.782 4.55771L217.738 5.31166L215.698 5.55558C215.609 5.55558 215.542 5.62211 215.454 5.75516C215.365 5.88821 215.276 6.02126 215.188 6.15431C215.099 6.28736 215.032 6.42041 214.988 6.55346C214.922 6.68651 214.899 6.77521 214.899 6.79738C214.722 7.50698 214.589 8.21658 214.456 8.94836C214.323 9.70231 214.234 10.4341 214.145 11.1659C214.057 11.9198 213.968 12.6294 213.924 13.339C213.857 14.0486 213.791 14.6917 213.746 15.2904C213.502 15.49 213.236 15.6452 212.97 15.7339C212.682 15.8226 212.394 15.8891 212.083 15.9335L211.529 16C211.263 16.0443 211.063 16.0443 210.886 16.0443C210.708 16.0443 210.509 16 210.243 15.9113ZM224.078 15.3569L224.433 11.8311L224.034 11.4541L221.55 11.7424C221.506 11.7646 221.462 11.8311 221.395 11.942C221.329 12.0529 221.284 12.1416 221.262 12.2081L221.196 12.9177L221.174 13.1616C221.107 13.6273 221.063 14.0264 221.04 14.3591C221.018 14.6917 221.04 15.0687 221.129 15.49L220.907 15.7339L218.18 16.0665C218.091 16.0887 217.98 16.0887 217.847 16.0887C217.714 16.0887 217.603 16.0665 217.492 16.0665C217.359 16.0665 217.271 16.0443 217.182 16.0222C217.093 16.0222 217.071 16 217.071 15.9778L217.714 10.0349C217.936 9.72448 218.113 9.36968 218.291 9.01488C218.468 8.66008 218.579 8.30528 218.646 7.95048C218.668 7.77308 218.646 7.61786 218.601 7.52916C218.535 7.44046 218.424 7.32958 218.246 7.15218L218.623 3.62636L218.801 3.58201C218.912 3.53766 219.045 3.49331 219.222 3.44896C219.4 3.40461 219.577 3.38244 219.754 3.33809C219.932 3.29374 220.109 3.27156 220.242 3.22721L220.464 3.18286L220.708 3.16069H221.174H221.728C221.905 3.16069 222.038 3.18286 222.171 3.18286H222.349L221.794 8.46051H222.061C222.238 8.46051 222.437 8.43833 222.704 8.43833C222.948 8.43833 223.214 8.41616 223.48 8.41616C223.746 8.41616 223.968 8.39398 224.145 8.39398H224.278C224.522 8.37181 224.722 8.32746 224.877 8.23876C225.01 8.17223 225.098 8.01701 225.143 7.77308C225.187 7.26306 225.187 6.77521 225.143 6.30953C225.098 5.86603 225.098 5.35601 225.187 4.80164L225.209 4.46901C225.232 4.29161 225.254 4.11421 225.276 3.91464C225.298 3.73724 225.32 3.55984 225.342 3.38244L225.387 3.02764C225.83 2.85024 226.229 2.71719 226.584 2.67284C226.939 2.62849 227.338 2.56196 227.782 2.51761L228.048 2.47326L228.802 2.40674L229.046 2.38456C229.179 2.38456 229.245 2.45109 229.245 2.56196L229.223 2.85024C229.09 3.91464 228.935 4.95686 228.757 5.95473C228.58 6.97478 228.425 7.99483 228.336 9.01488C228.203 10.0349 228.181 11.0772 228.27 12.0972C228.358 13.1173 228.447 14.1151 228.558 15.0465C228.513 15.0908 228.403 15.113 228.247 15.1574C228.092 15.2017 227.937 15.2239 227.759 15.2682C227.582 15.3126 227.405 15.3569 227.249 15.4013C227.094 15.4456 227.006 15.4456 226.961 15.4456L226.695 15.49C226.496 15.5343 226.274 15.5343 226.052 15.5122C225.83 15.5122 225.586 15.49 225.365 15.4678L224.677 15.4013C224.455 15.3791 224.256 15.3569 224.078 15.3569ZM241.511 15.3569L241.866 11.8311L241.467 11.4541L238.983 11.7424C238.939 11.7646 238.894 11.8311 238.828 11.942C238.761 12.0529 238.717 12.1416 238.695 12.2081L238.628 12.9177L238.606 13.1616C238.539 13.6273 238.495 14.0264 238.473 14.3591C238.451 14.6917 238.473 15.0687 238.562 15.49L238.34 15.7339L235.612 16.0665C235.524 16.0887 235.413 16.0887 235.28 16.0887C235.147 16.0887 235.036 16.0665 234.925 16.0665C234.792 16.0665 234.703 16.0443 234.614 16.0222C234.526 16.0222 234.504 16 234.504 15.9778L235.147 10.0349C235.368 9.72448 235.546 9.36968 235.723 9.01488C235.901 8.66008 236.012 8.30528 236.078 7.95048C236.1 7.77308 236.078 7.61786 236.034 7.52916C235.967 7.44046 235.856 7.32958 235.679 7.15218L236.056 3.62636L236.233 3.58201C236.344 3.53766 236.477 3.49331 236.655 3.44896C236.832 3.40461 237.009 3.38244 237.187 3.33809C237.364 3.29374 237.542 3.27156 237.675 3.22721L237.896 3.18286L238.14 3.16069H238.606H239.16C239.338 3.16069 239.471 3.18286 239.604 3.18286H239.781L239.227 8.46051H239.493C239.67 8.46051 239.87 8.43833 240.136 8.43833C240.38 8.43833 240.646 8.41616 240.912 8.41616C241.178 8.41616 241.4 8.39398 241.577 8.39398H241.71C241.954 8.37181 242.154 8.32746 242.309 8.23876C242.442 8.17223 242.531 8.01701 242.575 7.77308C242.62 7.26306 242.62 6.77521 242.575 6.30953C242.531 5.86603 242.531 5.35601 242.62 4.80164L242.642 4.46901C242.664 4.29161 242.686 4.11421 242.708 3.91464C242.731 3.73724 242.753 3.55984 242.775 3.38244L242.819 3.02764C243.263 2.85024 243.662 2.71719 244.017 2.67284C244.371 2.62849 244.771 2.56196 245.214 2.51761L245.48 2.47326L246.234 2.40674L246.478 2.38456C246.611 2.38456 246.678 2.45109 246.678 2.56196L246.656 2.85024C246.522 3.91464 246.367 4.95686 246.19 5.95473C246.012 6.97478 245.857 7.99483 245.769 9.01488C245.635 10.0349 245.613 11.0772 245.702 12.0972C245.791 13.1173 245.879 14.1151 245.99 15.0465C245.946 15.0908 245.835 15.113 245.68 15.1574C245.525 15.2017 245.369 15.2239 245.192 15.2682C245.015 15.3126 244.837 15.3569 244.682 15.4013C244.527 15.4456 244.438 15.4456 244.394 15.4456L244.128 15.49C243.928 15.5343 243.706 15.5343 243.484 15.5122C243.263 15.5122 243.019 15.49 242.797 15.4678L242.11 15.4013C241.888 15.3791 241.688 15.3569 241.511 15.3569ZM246.619 14.0486C246.619 13.9821 246.641 13.849 246.664 13.6273C246.664 13.4055 246.686 13.2725 246.686 13.1838C246.708 12.9177 246.752 12.6738 246.841 12.4077C246.908 12.1416 246.996 11.8976 247.085 11.6315C247.174 11.3876 247.24 11.1437 247.329 10.8776C247.395 10.6337 247.44 10.3897 247.484 10.1236L247.506 10.0349C247.462 10.0128 247.395 9.96841 247.307 9.92406C247.196 9.8797 247.129 9.8797 247.085 9.8797L247.551 3.38244C247.573 3.27156 247.639 3.20504 247.75 3.18286C247.839 3.16069 247.928 3.13851 248.016 3.11634L248.26 3.07199C248.349 3.07199 248.526 3.04981 248.792 3.04981C249.059 3.04981 249.325 3.02764 249.613 3.00546C249.879 3.00546 250.145 2.98329 250.411 2.98329H250.966L250.655 5.84386C250.677 5.88821 250.722 5.95473 250.766 6.04343C250.81 6.13213 250.833 6.19866 250.833 6.24301L250.788 6.57563L250.722 7.15218L250.655 7.70656L250.633 8.01701C250.589 8.19441 250.566 8.48268 250.544 8.88183C250.522 9.28098 250.5 9.72448 250.478 10.168C250.456 10.6337 250.433 11.055 250.433 11.4541C250.411 11.8533 250.411 12.1416 250.411 12.2968C250.5 12.5185 250.677 12.6294 250.988 12.6294C251.276 12.6294 251.542 12.6294 251.786 12.5851C252.008 12.5851 252.185 12.5407 252.274 12.4742C252.363 12.4077 252.407 12.1859 252.451 11.8311L253.449 2.67284C253.449 2.65066 253.471 2.58414 253.56 2.45109C253.627 2.34021 253.671 2.25151 253.715 2.20716H253.737C253.76 2.20716 253.782 2.18499 253.804 2.18499C254.07 2.16281 254.27 2.18499 254.447 2.25151C254.602 2.31804 254.824 2.31804 255.134 2.27369C255.489 2.25151 255.822 2.18499 256.177 2.05194C256.532 1.91889 256.864 1.83019 257.219 1.78584H257.33C257.374 2.09629 257.419 2.34021 257.441 2.53979C257.441 2.73936 257.441 2.96111 257.419 3.22721C257.396 3.44896 257.352 3.60419 257.308 3.73724C257.241 3.87028 257.086 4.02551 256.864 4.22509L255.844 13.3834L255.689 13.6273C255.6 13.7825 255.467 13.9599 255.334 14.1595C255.201 14.3812 255.046 14.5808 254.913 14.8026C254.758 15.0243 254.624 15.1795 254.536 15.2904C254.514 15.3348 254.469 15.3791 254.425 15.4235C254.358 15.4678 254.314 15.5122 254.292 15.5343C253.671 15.6896 253.161 15.8226 252.717 15.9113C252.274 16 251.786 16.0887 251.254 16.133C249.125 16.377 247.595 15.6896 246.619 14.0486ZM261.186 9.39186C261.209 9.50273 261.275 9.70231 261.364 9.99058C261.452 10.301 261.541 10.6115 261.652 10.9441C261.741 11.2767 261.852 11.5872 261.962 11.8755C262.051 12.1859 262.14 12.3855 262.184 12.4742C262.229 12.6294 262.317 12.8955 262.473 13.2503C262.628 13.6051 262.805 13.9821 263.027 14.3591C263.226 14.736 263.448 15.0687 263.67 15.3569C263.892 15.6452 264.091 15.7783 264.269 15.7339C264.402 15.7339 264.557 15.6674 264.69 15.5787C264.823 15.49 264.978 15.4013 265.111 15.3126C265.244 15.2239 265.4 15.113 265.533 15.0243C265.666 14.9356 265.821 14.8913 265.998 14.8691L266.309 15.0687C266.331 15.0687 266.397 15.0908 266.508 15.113C266.619 15.1574 266.752 15.1795 266.885 15.2017C267.018 15.2461 267.129 15.2682 267.24 15.2904C267.351 15.3348 267.418 15.3348 267.462 15.3348C267.506 15.3348 267.573 15.2904 267.706 15.2239C267.817 15.1574 267.905 15.0908 267.95 15.0465C267.972 14.2925 268.038 13.5608 268.127 12.8512C268.216 12.1416 268.305 11.4098 268.438 10.6558L267.661 9.94623L268.659 9.10358C268.837 7.86178 268.992 6.64216 269.169 5.46688C269.347 4.29161 269.502 3.07199 269.635 1.80801L266.198 2.22934L265.954 2.47326L265.732 4.44683C265.688 4.75728 265.621 5.13426 265.555 5.57776C265.466 6.02126 265.4 6.46476 265.333 6.88608C265.244 7.30741 265.178 7.66221 265.133 7.97266C265.089 8.28311 265.067 8.46051 265.067 8.46051L264.823 8.92618L264.579 8.74878C264.557 8.72661 264.49 8.57138 264.38 8.28311C264.246 7.99483 264.113 7.66221 263.98 7.28523C263.825 6.90826 263.67 6.53128 263.537 6.13213C263.382 5.75516 263.271 5.44471 263.182 5.20078C263.138 5.11208 263.093 4.93468 263.049 4.69076L262.849 3.93681C262.783 3.67071 262.716 3.42679 262.672 3.18286C262.628 2.93894 262.583 2.76154 262.583 2.65066C262.273 2.60631 262.029 2.58414 261.829 2.56196C261.608 2.56196 261.386 2.56196 261.12 2.58414C260.809 2.62849 260.61 2.71719 260.521 2.85024C260.432 2.98329 260.366 3.11634 260.322 3.24939C260.277 3.40461 260.211 3.53766 260.166 3.67071C260.1 3.80376 259.967 3.87028 259.767 3.89246C259.545 3.93681 259.368 3.91464 259.213 3.82594C259.058 3.73724 258.902 3.64854 258.769 3.53766C258.636 3.44896 258.481 3.36026 258.326 3.27156C258.148 3.20504 257.971 3.18286 257.794 3.18286L257.771 3.38244C257.771 3.47114 257.749 3.55984 257.749 3.64854C257.749 3.75941 257.749 3.84811 257.749 3.93681L257.727 4.11421L257.04 14.6252C256.995 15.113 257.017 15.4678 257.151 15.6674C257.284 15.8891 257.483 16 257.749 16.0443C258.015 16.0887 258.326 16.0887 258.725 16.0222C259.102 15.9778 259.545 15.9113 260.033 15.8448L260.699 9.65796C260.699 9.65796 260.721 9.61361 260.787 9.54708C260.854 9.48056 260.92 9.43621 260.965 9.41403L261.009 9.39186C261.031 9.39186 261.053 9.36968 261.075 9.36968C261.075 9.36968 261.098 9.39186 261.12 9.39186C261.142 9.39186 261.164 9.39186 261.186 9.39186ZM271.982 15.9113C271.982 14.6252 272.026 13.3834 272.159 12.1416C272.27 10.8998 272.403 9.63578 272.58 8.32746C272.536 8.28311 272.514 8.19441 272.492 8.03918C272.47 7.88396 272.447 7.77308 272.447 7.70656L272.47 7.50698L272.514 7.28523L273.002 6.39823V6.28736L273.024 6.17648C273.002 6.08778 272.935 6.02126 272.847 5.99908C272.403 6.10996 272.07 6.17648 271.827 6.17648C271.583 6.17648 271.383 6.15431 271.25 6.10996C271.095 6.06561 270.984 6.02126 270.895 5.93256C270.806 5.86603 270.718 5.79951 270.629 5.73298C270.54 5.68863 270.407 5.64428 270.274 5.59993C270.141 5.55558 269.942 5.55558 269.676 5.57776C269.676 5.53341 269.698 5.42253 269.72 5.28948C269.72 5.15643 269.742 5.00121 269.764 4.84598C269.786 4.69076 269.809 4.53553 269.831 4.38031C269.853 4.24726 269.875 4.13639 269.875 4.04768C269.897 3.95898 269.942 3.82594 270.008 3.64854C270.075 3.49331 270.119 3.40461 270.163 3.38244L279.809 2.25151L279.699 3.62636L279.233 4.35813L279.521 4.55771L279.477 5.31166L277.437 5.55558C277.348 5.55558 277.282 5.62211 277.193 5.75516C277.104 5.88821 277.015 6.02126 276.927 6.15431C276.838 6.28736 276.772 6.42041 276.727 6.55346C276.661 6.68651 276.638 6.77521 276.638 6.79738C276.461 7.50698 276.328 8.21658 276.195 8.94836C276.062 9.70231 275.973 10.4341 275.885 11.1659C275.796 11.9198 275.707 12.6294 275.663 13.339C275.596 14.0486 275.53 14.6917 275.485 15.2904C275.241 15.49 274.975 15.6452 274.709 15.7339C274.421 15.8226 274.133 15.8891 273.822 15.9335L273.268 16C273.002 16.0443 272.802 16.0443 272.625 16.0443C272.447 16.0443 272.248 16 271.982 15.9113ZM279.786 11.0106L279.852 10.4563C279.875 10.1902 279.897 9.92406 279.941 9.63578C279.963 9.34751 279.986 9.05923 280.03 8.79313L280.096 8.26093C280.096 8.26093 280.141 8.21658 280.229 8.12788C280.318 8.06136 280.407 7.97266 280.496 7.88396C280.584 7.79526 280.651 7.68438 280.739 7.59568C280.806 7.50698 280.85 7.41828 280.85 7.32958L280.873 7.28523C280.873 7.28523 280.85 7.26306 280.806 7.21871C280.762 7.17436 280.717 7.13001 280.673 7.08566C280.629 7.04131 280.584 7.01913 280.54 6.97478C280.496 6.95261 280.473 6.93043 280.473 6.90826C280.385 6.84173 280.296 6.73086 280.207 6.57563C280.119 6.42041 280.074 6.33171 280.074 6.28736L280.407 3.42679L280.629 3.18286C280.762 3.18286 280.917 3.18286 281.139 3.18286C281.36 3.18286 281.582 3.16069 281.826 3.11634C282.048 3.07199 282.292 3.02764 282.536 2.96111C282.757 2.89459 282.979 2.80589 283.157 2.67284L287.835 2.11846C287.791 2.42891 287.68 2.71719 287.525 2.98329C287.37 3.24939 287.281 3.51549 287.259 3.80376C287.237 3.98116 287.281 4.11421 287.392 4.22509C287.481 4.33596 287.525 4.46901 287.503 4.64641C287.481 4.75728 287.459 4.86816 287.436 4.97903C287.392 5.11208 287.325 5.17861 287.192 5.22296C286.66 5.26731 286.195 5.31166 285.773 5.35601C285.352 5.42253 284.997 5.53341 284.687 5.71081C284.376 5.88821 284.11 6.10996 283.933 6.42041C283.733 6.73086 283.6 7.13001 283.556 7.61786L286.372 7.28523L286.039 10.2567L283.046 10.6115C283.001 10.8332 282.979 11.0772 282.935 11.3433C282.89 11.6094 282.868 11.8533 282.89 12.075C282.913 12.2968 283.001 12.4964 283.134 12.6294C283.267 12.7846 283.489 12.8512 283.844 12.8068C283.977 12.7846 284.177 12.7625 284.487 12.7403C284.775 12.7181 285.086 12.6738 285.441 12.6294C285.751 12.6072 286.061 12.5629 286.372 12.5185C286.682 12.4742 286.882 12.452 287.015 12.4298V12.962C287.015 13.206 286.993 13.4721 286.993 13.7382C286.993 14.0043 286.971 14.2704 286.971 14.5143C286.971 14.7804 286.948 14.9578 286.948 15.0465V15.1795V15.2461C286.904 15.2904 286.815 15.3569 286.682 15.4235C286.549 15.49 286.483 15.5343 286.461 15.5343L279.675 16.3326L279.453 16.1552C279.453 16.1552 279.431 16.0443 279.431 15.867C279.431 15.6896 279.431 15.4678 279.431 15.2017C279.431 14.9356 279.453 14.6695 279.453 14.4034C279.453 14.1373 279.476 13.9377 279.498 13.7603L279.764 13.3612C279.786 13.1394 279.764 12.8955 279.719 12.6072C279.675 12.3411 279.653 12.0529 279.697 11.7424L279.786 11.0106ZM292.996 15.5343C293.04 15.0908 293.151 14.6695 293.351 14.226C293.55 13.7825 293.683 13.339 293.75 12.8512C293.772 12.5629 293.706 12.3411 293.573 12.2081C293.417 12.075 293.218 11.9642 292.974 11.9198C292.73 11.8755 292.464 11.8533 292.176 11.8533C291.887 11.8755 291.621 11.8976 291.377 11.9198C291.289 12.6738 291.244 13.3834 291.222 14.0043C291.2 14.6473 291.156 15.3348 291.067 16.0665L287.63 16.4878L288.827 4.57988L289.271 3.24939C289.803 3.20504 290.313 3.16069 290.756 3.09416C291.2 3.02764 291.621 2.96111 292.043 2.87241C292.442 2.78371 292.863 2.71719 293.306 2.62849C293.728 2.53979 294.216 2.47326 294.77 2.38456C295.08 2.34021 295.391 2.31804 295.679 2.29586C295.967 2.27369 296.211 2.29586 296.433 2.34021C296.655 2.38456 296.81 2.49544 296.921 2.65066C297.01 2.82806 297.054 3.07199 297.054 3.38244L296.877 7.13001L296.832 7.50698C296.788 7.86178 296.677 8.15006 296.478 8.37181C296.278 8.61573 296.056 8.81531 295.834 8.99271C295.591 9.17011 295.369 9.30316 295.191 9.43621C294.992 9.56926 294.881 9.70231 294.881 9.83535C294.859 9.99058 294.97 10.0793 295.236 10.1236C295.502 10.168 295.79 10.1902 296.101 10.2345C296.411 10.2789 296.699 10.3676 296.965 10.4563C297.231 10.5671 297.342 10.7667 297.32 11.0328L297.298 11.1659L296.943 12.4742L296.899 12.6959L297.076 15.1352V15.2904C296.411 15.3791 295.79 15.49 295.191 15.6674C294.593 15.8448 293.972 15.9557 293.351 16.0222C293.173 16.0665 293.063 16.0222 293.018 15.9335C292.974 15.8448 292.952 15.7117 292.996 15.5343ZM291.466 8.32746L293.639 7.72873L293.95 4.91251L291.799 5.15643L291.466 8.32746ZM298.143 10.8998L298.92 9.41403L298.543 7.01913L298.676 3.33809C298.897 3.31591 299.274 3.24939 299.851 3.16069C300.405 3.07199 301.004 2.98329 301.647 2.87241C302.268 2.78371 302.867 2.67284 303.443 2.58414C304.02 2.49544 304.419 2.45109 304.663 2.40674L305.262 2.34021C305.395 2.34021 305.572 2.34021 305.816 2.36239C306.06 2.40674 306.304 2.45109 306.526 2.51761C306.747 2.60631 306.947 2.69501 307.124 2.80589C307.302 2.91676 307.368 3.02764 307.368 3.16069L306.903 8.66008L307.435 12.7181C307.39 13.0286 307.346 13.2947 307.279 13.5164C307.191 13.7603 307.124 13.9599 307.058 14.1151C306.969 14.2704 306.903 14.3812 306.858 14.4478C306.814 14.5143 306.792 14.5143 306.792 14.4256C306.769 14.5808 306.681 14.7139 306.548 14.8247C306.392 14.9356 306.215 15.0243 305.993 15.113C305.772 15.2017 305.55 15.2682 305.328 15.3126C305.084 15.3569 304.862 15.4013 304.685 15.4235L304.197 15.4678L303.865 15.5122C303.709 15.5565 303.554 15.5787 303.377 15.5787C303.199 15.5787 303.022 15.6009 302.889 15.6009L302.601 15.6452L300.516 15.8891C300.516 15.9113 300.45 15.9335 300.361 15.9778C300.25 16.0222 300.117 16.0443 299.984 16.0887C299.829 16.133 299.673 16.1552 299.518 16.1996C299.363 16.2439 299.23 16.2661 299.141 16.2661C299.075 16.2883 298.964 16.3104 298.809 16.3326C298.653 16.3548 298.498 16.377 298.321 16.3991C298.143 16.4435 297.988 16.4657 297.855 16.4878C297.7 16.5322 297.589 16.5322 297.545 16.5322L298.143 10.8998ZM301.758 13.0729L302.734 12.962C302.867 12.9399 303 12.8955 303.155 12.8068C303.288 12.7181 303.377 12.6072 303.399 12.4298V12.4077L303.754 5.99908C303.754 5.99908 303.709 5.93256 303.665 5.79951C303.621 5.66646 303.554 5.53341 303.465 5.37818C303.377 5.22296 303.31 5.08991 303.244 4.95686C303.177 4.82381 303.133 4.75728 303.133 4.73511L302.911 4.75728L302.135 5.06773L301.758 13.0729ZM311.676 15.5343C311.41 15.5787 311.166 15.6452 310.989 15.7561C310.789 15.8891 310.545 15.9557 310.257 15.9778C309.68 16.0665 309.192 16.0222 308.838 15.867C308.483 15.7339 308.195 15.49 308.017 15.1795C307.818 14.8691 307.707 14.4921 307.662 14.0486C307.618 13.6051 307.64 13.0951 307.707 12.5407C307.729 12.2081 307.818 11.8755 307.951 11.5428C308.084 11.2324 308.217 10.8998 308.372 10.5671C308.527 10.2567 308.682 9.92406 308.815 9.59143C308.948 9.28098 309.015 8.94836 309.059 8.59356C309.059 8.41616 309.037 8.26093 308.993 8.12788C308.948 7.99483 308.882 7.88396 308.815 7.75091C308.727 7.64003 308.66 7.52916 308.616 7.39611C308.549 7.26306 308.527 7.13001 308.549 6.95261L308.572 6.86391C308.594 6.73086 308.638 6.50911 308.727 6.22083C308.793 5.95473 308.86 5.66646 308.948 5.37818C309.015 5.08991 309.082 4.82381 309.148 4.60206C309.215 4.38031 309.259 4.22509 309.303 4.15856C309.348 3.98116 309.436 3.80376 309.547 3.58201C309.636 3.36026 309.813 3.24939 310.079 3.20504C311.077 3.02764 312.075 2.82806 313.051 2.58414C314.027 2.34021 315.024 2.16281 316.022 2.02976C316.111 2.02976 316.244 2.05194 316.399 2.14064C316.555 2.22934 316.643 2.27369 316.665 2.27369L316.976 2.45109L316.754 4.35813C317.153 4.49118 317.419 4.71294 317.575 5.02338C317.708 5.33383 317.796 5.66646 317.818 6.04343C317.818 6.44258 317.796 6.84173 317.73 7.24088C317.663 7.66221 317.619 8.03918 317.575 8.39398L317.397 10.0571C317.353 10.4563 317.308 10.8111 317.264 11.1659C317.22 11.5207 317.153 11.8755 317.109 12.2303C317.042 12.5851 316.976 12.9842 316.909 13.3834C316.821 13.8047 316.732 14.2704 316.643 14.7582C316.311 15.2904 315.911 15.623 315.468 15.8004C315.024 15.9778 314.537 16.1109 314.027 16.1552C313.716 16.1996 313.472 16.1774 313.25 16.1109C313.029 16.0443 312.851 15.9557 312.674 15.867C312.496 15.7783 312.341 15.7117 312.186 15.623C312.009 15.5565 311.853 15.5343 311.676 15.5343ZM311.343 10.1015C311.21 11.2546 311.321 12.3633 311.654 13.3834C311.698 13.4055 311.787 13.4055 311.964 13.3834C312.142 13.3834 312.253 13.3612 312.319 13.3612L312.607 13.3168C312.785 13.2947 312.962 13.2503 313.162 13.1616C313.361 13.0951 313.472 12.962 313.517 12.7403L314.293 5.51123C314.293 5.48906 314.27 5.44471 314.226 5.40036C314.16 5.35601 314.115 5.33383 314.093 5.33383C314.071 5.33383 313.96 5.35601 313.783 5.35601C313.605 5.37818 313.472 5.37818 313.383 5.37818L313.051 5.42253C312.873 5.46688 312.74 5.51123 312.607 5.55558C312.474 5.62211 312.341 5.75516 312.23 5.97691C312.23 6.44258 312.23 6.81956 312.186 7.13001C312.142 7.44046 312.097 7.70656 312.009 7.97266C311.92 8.23876 311.831 8.52703 311.72 8.83748C311.609 9.14793 311.499 9.54708 311.366 9.99058L311.343 10.1015ZM322.746 9.36968L323.189 10.9219C323.189 10.9441 323.278 10.9441 323.5 10.8998L323.921 10.8554C323.877 11.0106 323.788 11.188 323.633 11.3876C323.477 11.5872 323.411 11.8089 323.433 12.0529C323.3 12.2746 323.189 12.4298 323.056 12.4742C322.923 12.5407 322.768 12.5851 322.59 12.6072L322.302 12.6516C322.213 12.6738 322.058 12.6959 321.881 12.6959C321.681 12.7181 321.57 12.7181 321.57 12.7181C321.526 12.7181 321.482 12.6959 321.437 12.6516C321.393 12.6072 321.371 12.5629 321.371 12.5185L322.08 5.91038C322.08 5.71081 322.191 5.57776 322.413 5.48906C322.635 5.42253 322.812 5.37818 322.99 5.33383L323.278 5.28948L323.5 5.26731C323.655 5.24513 323.854 5.22296 324.076 5.22296C324.298 5.22296 324.431 5.20078 324.475 5.20078C324.475 5.28948 324.498 5.33383 324.498 5.35601V5.40036C324.475 5.51123 324.453 5.62211 324.409 5.71081C324.364 5.79951 324.342 5.88821 324.32 5.97691C324.32 6.10996 324.364 6.22083 324.475 6.30953C324.564 6.39823 324.808 6.50911 325.163 6.61998C325.163 6.59781 325.207 6.59781 325.274 6.59781C325.34 6.61998 325.429 6.61998 325.562 6.59781C325.717 6.59781 325.917 6.57563 326.183 6.53128C326.449 6.50911 326.693 6.46476 326.959 6.42041C327.203 6.37606 327.425 6.33171 327.602 6.28736C327.779 6.24301 327.89 6.19866 327.89 6.10996C327.935 5.57776 327.957 5.06773 327.912 4.62423C327.868 4.18073 327.757 3.78159 327.58 3.47114C327.402 3.16069 327.114 2.93894 326.759 2.80589C326.405 2.67284 325.917 2.62849 325.34 2.67284C325.052 2.71719 324.786 2.65066 324.542 2.51761C324.276 2.38456 324.032 2.34021 323.766 2.34021C323.588 2.38456 323.411 2.42891 323.256 2.49544C323.1 2.58414 322.945 2.67284 322.768 2.76154C322.59 2.85024 322.413 2.93894 322.213 3.02764C321.992 3.11634 321.748 3.18286 321.437 3.20504C321.171 3.24939 320.927 3.29374 320.683 3.33809C320.439 3.38244 320.218 3.47114 319.996 3.55984C319.774 3.67071 319.552 3.80376 319.375 3.95898C319.176 4.13639 318.998 4.33596 318.843 4.60206C318.732 5.11208 318.643 5.53341 318.599 5.86603C318.532 6.19866 318.488 6.48693 318.444 6.73086C318.399 6.99696 318.355 7.21871 318.333 7.44046C318.289 7.66221 318.266 7.92831 318.244 8.19441L318.089 9.65796C318.045 10.0128 317.978 10.4119 317.912 10.8332C317.845 11.2767 317.823 11.7424 317.823 12.2303C317.823 12.7403 317.867 13.2725 318 13.8269C318.111 14.4034 318.333 14.98 318.688 15.5787L319.02 15.7561C319.02 15.7561 319.109 15.8004 319.264 15.8891C319.419 15.9778 319.552 16.0222 319.641 16C320.617 15.8891 321.615 15.7117 322.613 15.4678C323.588 15.2239 324.586 15.0243 325.584 14.8469C325.85 14.8247 326.028 14.7139 326.116 14.4921C326.205 14.2704 326.294 14.0708 326.36 13.8712C326.382 13.8269 326.427 13.6716 326.493 13.4499C326.56 13.2281 326.626 12.962 326.715 12.6738C326.804 12.3855 326.87 12.0972 326.937 11.8311C327.003 11.565 327.048 11.3433 327.092 11.188L327.114 11.0772C327.114 10.9441 327.114 10.8111 327.07 10.7002C327.025 10.5893 326.959 10.4784 326.892 10.3454C327.181 10.2789 327.425 10.2123 327.624 10.1458C327.824 10.1015 327.935 10.0349 327.935 9.96841L328.156 7.70656C328.068 7.70656 327.935 7.70656 327.757 7.70656C327.58 7.70656 327.402 7.68438 327.225 7.68438C327.048 7.68438 326.87 7.70656 326.693 7.70656C326.515 7.70656 326.36 7.72873 326.272 7.72873L325.385 7.81743C325.251 7.83961 325.074 7.88396 324.852 7.92831C324.608 7.97266 324.364 8.03918 324.098 8.08353C323.832 8.12788 323.566 8.19441 323.344 8.23876C323.1 8.28311 322.945 8.32746 322.857 8.34963C322.857 8.39398 322.834 8.46051 322.834 8.54921C322.812 8.63791 322.79 8.74878 322.768 8.85966C322.746 8.99271 322.724 9.10358 322.724 9.19228C322.701 9.28098 322.701 9.34751 322.701 9.39186L322.746 9.36968ZM328.662 11.0106L328.728 10.4563C328.751 10.1902 328.773 9.92406 328.817 9.63578C328.839 9.34751 328.861 9.05923 328.906 8.79313L328.972 8.26093C328.972 8.26093 329.017 8.21658 329.105 8.12788C329.194 8.06136 329.283 7.97266 329.371 7.88396C329.46 7.79526 329.527 7.68438 329.615 7.59568C329.682 7.50698 329.726 7.41828 329.726 7.32958L329.748 7.28523C329.748 7.28523 329.726 7.26306 329.682 7.21871C329.638 7.17436 329.593 7.13001 329.549 7.08566C329.505 7.04131 329.46 7.01913 329.416 6.97478C329.371 6.95261 329.349 6.93043 329.349 6.90826C329.261 6.84173 329.172 6.73086 329.083 6.57563C328.995 6.42041 328.95 6.33171 328.95 6.28736L329.283 3.42679L329.505 3.18286C329.638 3.18286 329.793 3.18286 330.015 3.18286C330.236 3.18286 330.458 3.16069 330.702 3.11634C330.924 3.07199 331.168 3.02764 331.412 2.96111C331.633 2.89459 331.855 2.80589 332.032 2.67284L336.711 2.11846C336.667 2.42891 336.556 2.71719 336.401 2.98329C336.246 3.24939 336.157 3.51549 336.135 3.80376C336.113 3.98116 336.157 4.11421 336.268 4.22509C336.357 4.33596 336.401 4.46901 336.379 4.64641C336.357 4.75728 336.334 4.86816 336.312 4.97903C336.268 5.11208 336.201 5.17861 336.068 5.22296C335.536 5.26731 335.07 5.31166 334.649 5.35601C334.228 5.42253 333.873 5.53341 333.563 5.71081C333.252 5.88821 332.986 6.10996 332.809 6.42041C332.609 6.73086 332.476 7.13001 332.432 7.61786L335.248 7.28523L334.915 10.2567L331.922 10.6115C331.877 10.8332 331.855 11.0772 331.811 11.3433C331.766 11.6094 331.744 11.8533 331.766 12.075C331.789 12.2968 331.877 12.4964 332.01 12.6294C332.143 12.7846 332.365 12.8512 332.72 12.8068C332.853 12.7846 333.053 12.7625 333.363 12.7403C333.651 12.7181 333.962 12.6738 334.317 12.6294C334.627 12.6072 334.937 12.5629 335.248 12.5185C335.558 12.4742 335.758 12.452 335.891 12.4298V12.962C335.891 13.206 335.869 13.4721 335.869 13.7382C335.869 14.0043 335.847 14.2704 335.847 14.5143C335.847 14.7804 335.824 14.9578 335.824 15.0465V15.1795V15.2461C335.78 15.2904 335.691 15.3569 335.558 15.4235C335.425 15.49 335.359 15.5343 335.337 15.5343L328.551 16.3326L328.329 16.1552C328.329 16.1552 328.307 16.0443 328.307 15.867C328.307 15.6896 328.307 15.4678 328.307 15.2017C328.307 14.9356 328.329 14.6695 328.329 14.4034C328.329 14.1373 328.351 13.9377 328.374 13.7603L328.64 13.3612C328.662 13.1394 328.64 12.8955 328.595 12.6072C328.551 12.3411 328.529 12.0529 328.573 11.7424L328.662 11.0106Z" fill="#AB882E"/>
</g>
<defs>
<filter id="filter0_d_452:1867" x="0.691406" y="0.0341797" width="336.297" height="18.1724" filterUnits="userSpaceOnUse" color-interpolation-filters="sRGB">
<feFlood flood-opacity="0" result="BackgroundImageFix"/>
<feColorMatrix in="SourceAlpha" type="matrix" values="0 0 0 0 0 0 0 0 0 0 0 0 0 0 0 0 0 0 127 0" result="hardAlpha"/>
<feOffset dx="0.277187" dy="0.831562"/>
<feComposite in2="hardAlpha" operator="out"/>
<feColorMatrix type="matrix" values="0 0 0 0 0 0 0 0 0 0 0 0 0 0 0 0 0 0 0.1 0"/>
<feBlend mode="normal" in2="BackgroundImageFix" result="effect1_dropShadow_452:1867"/>
<feBlend mode="normal" in="SourceGraphic" in2="effect1_dropShadow_452:1867" result="shape"/>
</filter>
</defs>
</svg>
