<svg width="23" height="22" viewBox="0 0 23 22" fill="none" xmlns="http://www.w3.org/2000/svg">
<path d="M5.03744 10.7232C5.03746 10.6037 5.0611 10.4853 5.10699 10.3749C5.15287 10.2645 5.22011 10.1643 5.30484 10.08C5.38957 9.99568 5.49013 9.92893 5.60072 9.88358C5.71132 9.83822 5.82979 9.81516 5.94933 9.81572L7.46114 9.82066C7.70219 9.82066 7.93337 9.91642 8.10382 10.0869C8.27427 10.2573 8.37003 10.4885 8.37003 10.7295V16.4465C8.5403 16.396 8.75821 16.3422 8.99801 16.2857C9.16414 16.2467 9.3122 16.1526 9.41817 16.0188C9.52415 15.885 9.58184 15.7194 9.58188 15.5487V8.45777C9.58188 8.2167 9.67763 7.98551 9.84807 7.81503C10.0185 7.64455 10.2497 7.54876 10.4908 7.54871H12.0072C12.2482 7.54876 12.4794 7.64455 12.6499 7.81503C12.8203 7.98551 12.9161 8.2167 12.9161 8.45777V15.0393C12.9161 15.0393 13.2954 14.8858 13.6647 14.7298C13.802 14.6718 13.9191 14.5746 14.0014 14.4504C14.0838 14.3263 14.1278 14.1806 14.1279 14.0316V6.18547C14.1279 5.94444 14.2236 5.71329 14.394 5.54285C14.5645 5.3724 14.7956 5.27663 15.0366 5.27658H16.5514C16.7923 5.27681 17.0233 5.37267 17.1935 5.5431C17.3638 5.71352 17.4594 5.94457 17.4594 6.18547V12.6465C18.7727 11.6947 20.1037 10.5499 21.1599 9.17345C21.3132 8.97364 21.4146 8.73902 21.4551 8.49049C21.4956 8.24197 21.474 7.98729 21.3921 7.74915C20.9032 6.34253 20.126 5.05346 19.1103 3.96443C18.0946 2.8754 16.8627 2.0104 15.4935 1.42477C14.1243 0.839149 12.648 0.5458 11.1589 0.5635C9.66982 0.5812 8.20084 0.909557 6.84596 1.52756C5.49107 2.14556 4.28011 3.0396 3.29057 4.15247C2.30104 5.26533 1.55471 6.57251 1.09936 7.99036C0.644009 9.40821 0.489656 10.9055 0.646178 12.3864C0.8027 13.8674 1.26665 15.2993 2.00834 16.5906C2.13756 16.8134 2.32767 16.9947 2.55634 17.1131C2.78501 17.2316 3.04274 17.2823 3.29924 17.2594C3.58579 17.2342 3.94257 17.1985 4.36676 17.1488C4.55137 17.1277 4.72181 17.0396 4.84562 16.901C4.96943 16.7625 5.03795 16.5832 5.03815 16.3974V10.7232" fill="white"/>
<path d="M5.00525 19.8916C6.60197 21.0532 8.48891 21.7504 10.4573 21.9061C12.4257 22.0619 14.3988 21.6701 16.1583 20.774C17.9178 19.878 19.3952 18.5126 20.4269 16.8291C21.4586 15.1455 22.0045 13.2094 22.0041 11.2348C22.0041 10.9878 21.9927 10.7446 21.9763 10.5022C18.0656 16.3347 10.845 19.0614 5.00525 19.8916Z" fill="#E9E9E9"/>
</svg>
