<svg width="19" height="17" viewBox="0 0 19 17" fill="none" xmlns="http://www.w3.org/2000/svg">
<path d="M6.14091 16.25C13.21 16.25 17.0756 10.1911 17.0756 4.93721C17.0756 4.76512 17.0722 4.5938 17.0647 4.42325C17.8151 3.86201 18.4674 3.16163 18.9817 2.36434C18.2931 2.68101 17.5521 2.89419 16.7747 2.99031C17.5682 2.49806 18.1774 1.71938 18.4647 0.791082C17.7222 1.24651 16.8999 1.57752 16.0243 1.7562C15.323 0.983332 14.3246 0.5 13.219 0.5C11.0967 0.5 9.37557 2.28062 9.37557 4.47558C9.37557 4.7876 9.40929 5.09108 9.47523 5.38217C6.28104 5.21589 3.44875 3.63372 1.55345 1.22791C1.22339 1.8155 1.03307 2.49806 1.03307 3.22636C1.03307 4.60581 1.71154 5.82364 2.7433 6.53605C2.11278 6.51589 1.52048 6.33682 1.00272 6.03876C1.00216 6.05544 1.00216 6.07171 1.00216 6.08953C1.00216 8.01512 2.32689 9.62287 4.08545 9.98721C3.76251 10.0783 3.42271 10.1271 3.07205 10.1271C2.82479 10.1271 2.58389 10.102 2.34974 10.0554C2.83902 11.6353 4.25779 12.7849 5.93993 12.8171C4.62456 13.8837 2.96752 14.519 1.16663 14.519C0.856797 14.519 0.550715 14.5008 0.249878 14.464C1.95075 15.5919 3.97044 16.25 6.1411 16.25" fill="white"/>
</svg>
